G04 #@! TF.GenerationSoftware,KiCad,Pcbnew,5.1.4-e60b266~84~ubuntu19.04.1*
G04 #@! TF.CreationDate,2019-11-07T13:35:51-05:00*
G04 #@! TF.ProjectId,pcb2molex8878_pin,70636232-6d6f-46c6-9578-383837385f70,rev?*
G04 #@! TF.SameCoordinates,Original*
G04 #@! TF.FileFunction,Other,ECO2*
%FSLAX46Y46*%
G04 Gerber Fmt 4.6, Leading zero omitted, Abs format (unit mm)*
G04 Created by KiCad (PCBNEW 5.1.4-e60b266~84~ubuntu19.04.1) date 2019-11-07 13:35:51*
%MOMM*%
%LPD*%
G04 APERTURE LIST*
%ADD10C,0.010000*%
G04 APERTURE END LIST*
D10*
X139218400Y-80087000D02*
X155218400Y-80087000D01*
X155218400Y-118287000D02*
X155218400Y-80087000D01*
X139218400Y-80087000D02*
X139218400Y-118287000D01*
X155218400Y-118287000D02*
X139218400Y-118287000D01*
X142125542Y-112822714D02*
X142192209Y-112822714D01*
X142220780Y-112927476D02*
X142125542Y-112927476D01*
X142125542Y-112727476D01*
X142220780Y-112727476D01*
X142392209Y-112917952D02*
X142373161Y-112927476D01*
X142335066Y-112927476D01*
X142316019Y-112917952D01*
X142306495Y-112908428D01*
X142296971Y-112889380D01*
X142296971Y-112832238D01*
X142306495Y-112813190D01*
X142316019Y-112803666D01*
X142335066Y-112794142D01*
X142373161Y-112794142D01*
X142392209Y-112803666D01*
X142506495Y-112927476D02*
X142487447Y-112917952D01*
X142477923Y-112908428D01*
X142468400Y-112889380D01*
X142468400Y-112832238D01*
X142477923Y-112813190D01*
X142487447Y-112803666D01*
X142506495Y-112794142D01*
X142535066Y-112794142D01*
X142554114Y-112803666D01*
X142563638Y-112813190D01*
X142573161Y-112832238D01*
X142573161Y-112889380D01*
X142563638Y-112908428D01*
X142554114Y-112917952D01*
X142535066Y-112927476D01*
X142506495Y-112927476D01*
X142649352Y-112746523D02*
X142658876Y-112737000D01*
X142677923Y-112727476D01*
X142725542Y-112727476D01*
X142744590Y-112737000D01*
X142754114Y-112746523D01*
X142763638Y-112765571D01*
X142763638Y-112784619D01*
X142754114Y-112813190D01*
X142639828Y-112927476D01*
X142763638Y-112927476D01*
X142849352Y-112908428D02*
X142858876Y-112917952D01*
X142849352Y-112927476D01*
X142839828Y-112917952D01*
X142849352Y-112908428D01*
X142849352Y-112927476D01*
X142944590Y-112727476D02*
X142944590Y-112889380D01*
X142954114Y-112908428D01*
X142963638Y-112917952D01*
X142982685Y-112927476D01*
X143020780Y-112927476D01*
X143039828Y-112917952D01*
X143049352Y-112908428D01*
X143058876Y-112889380D01*
X143058876Y-112727476D01*
X143144590Y-112917952D02*
X143163638Y-112927476D01*
X143201733Y-112927476D01*
X143220780Y-112917952D01*
X143230304Y-112898904D01*
X143230304Y-112889380D01*
X143220780Y-112870333D01*
X143201733Y-112860809D01*
X143173161Y-112860809D01*
X143154114Y-112851285D01*
X143144590Y-112832238D01*
X143144590Y-112822714D01*
X143154114Y-112803666D01*
X143173161Y-112794142D01*
X143201733Y-112794142D01*
X143220780Y-112803666D01*
X143392209Y-112917952D02*
X143373161Y-112927476D01*
X143335066Y-112927476D01*
X143316019Y-112917952D01*
X143306495Y-112898904D01*
X143306495Y-112822714D01*
X143316019Y-112803666D01*
X143335066Y-112794142D01*
X143373161Y-112794142D01*
X143392209Y-112803666D01*
X143401733Y-112822714D01*
X143401733Y-112841761D01*
X143306495Y-112860809D01*
X143487447Y-112927476D02*
X143487447Y-112794142D01*
X143487447Y-112832238D02*
X143496971Y-112813190D01*
X143506495Y-112803666D01*
X143525542Y-112794142D01*
X143544590Y-112794142D01*
X143763638Y-112927476D02*
X143763638Y-112794142D01*
X143763638Y-112727476D02*
X143754114Y-112737000D01*
X143763638Y-112746523D01*
X143773161Y-112737000D01*
X143763638Y-112727476D01*
X143763638Y-112746523D01*
X143849352Y-112917952D02*
X143868400Y-112927476D01*
X143906495Y-112927476D01*
X143925542Y-112917952D01*
X143935066Y-112898904D01*
X143935066Y-112889380D01*
X143925542Y-112870333D01*
X143906495Y-112860809D01*
X143877923Y-112860809D01*
X143858876Y-112851285D01*
X143849352Y-112832238D01*
X143849352Y-112822714D01*
X143858876Y-112803666D01*
X143877923Y-112794142D01*
X143906495Y-112794142D01*
X143925542Y-112803666D01*
X144173161Y-112822714D02*
X144239828Y-112822714D01*
X144268400Y-112927476D02*
X144173161Y-112927476D01*
X144173161Y-112727476D01*
X144268400Y-112727476D01*
X144439828Y-112927476D02*
X144439828Y-112727476D01*
X144439828Y-112917952D02*
X144420780Y-112927476D01*
X144382685Y-112927476D01*
X144363638Y-112917952D01*
X144354114Y-112908428D01*
X144344590Y-112889380D01*
X144344590Y-112832238D01*
X144354114Y-112813190D01*
X144363638Y-112803666D01*
X144382685Y-112794142D01*
X144420780Y-112794142D01*
X144439828Y-112803666D01*
X144620780Y-112794142D02*
X144620780Y-112956047D01*
X144611257Y-112975095D01*
X144601733Y-112984619D01*
X144582685Y-112994142D01*
X144554114Y-112994142D01*
X144535066Y-112984619D01*
X144620780Y-112917952D02*
X144601733Y-112927476D01*
X144563638Y-112927476D01*
X144544590Y-112917952D01*
X144535066Y-112908428D01*
X144525542Y-112889380D01*
X144525542Y-112832238D01*
X144535066Y-112813190D01*
X144544590Y-112803666D01*
X144563638Y-112794142D01*
X144601733Y-112794142D01*
X144620780Y-112803666D01*
X144792209Y-112917952D02*
X144773161Y-112927476D01*
X144735066Y-112927476D01*
X144716019Y-112917952D01*
X144706495Y-112898904D01*
X144706495Y-112822714D01*
X144716019Y-112803666D01*
X144735066Y-112794142D01*
X144773161Y-112794142D01*
X144792209Y-112803666D01*
X144801733Y-112822714D01*
X144801733Y-112841761D01*
X144706495Y-112860809D01*
X144887447Y-112908428D02*
X144896971Y-112917952D01*
X144887447Y-112927476D01*
X144877923Y-112917952D01*
X144887447Y-112908428D01*
X144887447Y-112927476D01*
X145096971Y-112908428D02*
X145087447Y-112917952D01*
X145058876Y-112927476D01*
X145039828Y-112927476D01*
X145011257Y-112917952D01*
X144992209Y-112898904D01*
X144982685Y-112879857D01*
X144973161Y-112841761D01*
X144973161Y-112813190D01*
X144982685Y-112775095D01*
X144992209Y-112756047D01*
X145011257Y-112737000D01*
X145039828Y-112727476D01*
X145058876Y-112727476D01*
X145087447Y-112737000D01*
X145096971Y-112746523D01*
X145268400Y-112794142D02*
X145268400Y-112927476D01*
X145182685Y-112794142D02*
X145182685Y-112898904D01*
X145192209Y-112917952D01*
X145211257Y-112927476D01*
X145239828Y-112927476D01*
X145258876Y-112917952D01*
X145268400Y-112908428D01*
X145335066Y-112794142D02*
X145411257Y-112794142D01*
X145363638Y-112727476D02*
X145363638Y-112898904D01*
X145373161Y-112917952D01*
X145392209Y-112927476D01*
X145411257Y-112927476D01*
X145468400Y-112917952D02*
X145487447Y-112927476D01*
X145525542Y-112927476D01*
X145544590Y-112917952D01*
X145554114Y-112898904D01*
X145554114Y-112889380D01*
X145544590Y-112870333D01*
X145525542Y-112860809D01*
X145496971Y-112860809D01*
X145477923Y-112851285D01*
X145468400Y-112832238D01*
X145468400Y-112822714D01*
X145477923Y-112803666D01*
X145496971Y-112794142D01*
X145525542Y-112794142D01*
X145544590Y-112803666D01*
X145763638Y-112794142D02*
X145839828Y-112794142D01*
X145792209Y-112927476D02*
X145792209Y-112756047D01*
X145801733Y-112737000D01*
X145820780Y-112727476D01*
X145839828Y-112727476D01*
X145935066Y-112927476D02*
X145916019Y-112917952D01*
X145906495Y-112908428D01*
X145896971Y-112889380D01*
X145896971Y-112832238D01*
X145906495Y-112813190D01*
X145916019Y-112803666D01*
X145935066Y-112794142D01*
X145963638Y-112794142D01*
X145982685Y-112803666D01*
X145992209Y-112813190D01*
X146001733Y-112832238D01*
X146001733Y-112889380D01*
X145992209Y-112908428D01*
X145982685Y-112917952D01*
X145963638Y-112927476D01*
X145935066Y-112927476D01*
X146087447Y-112927476D02*
X146087447Y-112794142D01*
X146087447Y-112832238D02*
X146096971Y-112813190D01*
X146106495Y-112803666D01*
X146125542Y-112794142D01*
X146144590Y-112794142D01*
X146449352Y-112794142D02*
X146449352Y-112927476D01*
X146363638Y-112794142D02*
X146363638Y-112898904D01*
X146373161Y-112917952D01*
X146392209Y-112927476D01*
X146420780Y-112927476D01*
X146439828Y-112917952D01*
X146449352Y-112908428D01*
X146535066Y-112917952D02*
X146554114Y-112927476D01*
X146592209Y-112927476D01*
X146611257Y-112917952D01*
X146620780Y-112898904D01*
X146620780Y-112889380D01*
X146611257Y-112870333D01*
X146592209Y-112860809D01*
X146563638Y-112860809D01*
X146544590Y-112851285D01*
X146535066Y-112832238D01*
X146535066Y-112822714D01*
X146544590Y-112803666D01*
X146563638Y-112794142D01*
X146592209Y-112794142D01*
X146611257Y-112803666D01*
X146782685Y-112917952D02*
X146763638Y-112927476D01*
X146725542Y-112927476D01*
X146706495Y-112917952D01*
X146696971Y-112898904D01*
X146696971Y-112822714D01*
X146706495Y-112803666D01*
X146725542Y-112794142D01*
X146763638Y-112794142D01*
X146782685Y-112803666D01*
X146792209Y-112822714D01*
X146792209Y-112841761D01*
X146696971Y-112860809D01*
X147011257Y-112794142D02*
X147049352Y-112927476D01*
X147087447Y-112832238D01*
X147125542Y-112927476D01*
X147163638Y-112794142D01*
X147239828Y-112927476D02*
X147239828Y-112794142D01*
X147239828Y-112727476D02*
X147230304Y-112737000D01*
X147239828Y-112746523D01*
X147249352Y-112737000D01*
X147239828Y-112727476D01*
X147239828Y-112746523D01*
X147306495Y-112794142D02*
X147382685Y-112794142D01*
X147335066Y-112727476D02*
X147335066Y-112898904D01*
X147344590Y-112917952D01*
X147363638Y-112927476D01*
X147382685Y-112927476D01*
X147449352Y-112927476D02*
X147449352Y-112727476D01*
X147535066Y-112927476D02*
X147535066Y-112822714D01*
X147525542Y-112803666D01*
X147506495Y-112794142D01*
X147477923Y-112794142D01*
X147458876Y-112803666D01*
X147449352Y-112813190D01*
X147773161Y-112727476D02*
X147773161Y-112765571D01*
X147849352Y-112727476D02*
X147849352Y-112765571D01*
X147935066Y-112794142D02*
X147935066Y-112994142D01*
X147935066Y-112803666D02*
X147954114Y-112794142D01*
X147992209Y-112794142D01*
X148011257Y-112803666D01*
X148020780Y-112813190D01*
X148030304Y-112832238D01*
X148030304Y-112889380D01*
X148020780Y-112908428D01*
X148011257Y-112917952D01*
X147992209Y-112927476D01*
X147954114Y-112927476D01*
X147935066Y-112917952D01*
X148201733Y-112917952D02*
X148182685Y-112927476D01*
X148144590Y-112927476D01*
X148125542Y-112917952D01*
X148116019Y-112908428D01*
X148106495Y-112889380D01*
X148106495Y-112832238D01*
X148116019Y-112813190D01*
X148125542Y-112803666D01*
X148144590Y-112794142D01*
X148182685Y-112794142D01*
X148201733Y-112803666D01*
X148287447Y-112927476D02*
X148287447Y-112727476D01*
X148287447Y-112803666D02*
X148306495Y-112794142D01*
X148344590Y-112794142D01*
X148363638Y-112803666D01*
X148373161Y-112813190D01*
X148382685Y-112832238D01*
X148382685Y-112889380D01*
X148373161Y-112908428D01*
X148363638Y-112917952D01*
X148344590Y-112927476D01*
X148306495Y-112927476D01*
X148287447Y-112917952D01*
X148458876Y-112746523D02*
X148468400Y-112737000D01*
X148487447Y-112727476D01*
X148535066Y-112727476D01*
X148554114Y-112737000D01*
X148563638Y-112746523D01*
X148573161Y-112765571D01*
X148573161Y-112784619D01*
X148563638Y-112813190D01*
X148449352Y-112927476D01*
X148573161Y-112927476D01*
X148658876Y-112927476D02*
X148658876Y-112794142D01*
X148658876Y-112813190D02*
X148668400Y-112803666D01*
X148687447Y-112794142D01*
X148716019Y-112794142D01*
X148735066Y-112803666D01*
X148744590Y-112822714D01*
X148744590Y-112927476D01*
X148744590Y-112822714D02*
X148754114Y-112803666D01*
X148773161Y-112794142D01*
X148801733Y-112794142D01*
X148820780Y-112803666D01*
X148830304Y-112822714D01*
X148830304Y-112927476D01*
X148954114Y-112927476D02*
X148935066Y-112917952D01*
X148925542Y-112908428D01*
X148916019Y-112889380D01*
X148916019Y-112832238D01*
X148925542Y-112813190D01*
X148935066Y-112803666D01*
X148954114Y-112794142D01*
X148982685Y-112794142D01*
X149001733Y-112803666D01*
X149011257Y-112813190D01*
X149020780Y-112832238D01*
X149020780Y-112889380D01*
X149011257Y-112908428D01*
X149001733Y-112917952D01*
X148982685Y-112927476D01*
X148954114Y-112927476D01*
X149135066Y-112927476D02*
X149116019Y-112917952D01*
X149106495Y-112898904D01*
X149106495Y-112727476D01*
X149287447Y-112917952D02*
X149268400Y-112927476D01*
X149230304Y-112927476D01*
X149211257Y-112917952D01*
X149201733Y-112898904D01*
X149201733Y-112822714D01*
X149211257Y-112803666D01*
X149230304Y-112794142D01*
X149268400Y-112794142D01*
X149287447Y-112803666D01*
X149296971Y-112822714D01*
X149296971Y-112841761D01*
X149201733Y-112860809D01*
X149363638Y-112927476D02*
X149468400Y-112794142D01*
X149363638Y-112794142D02*
X149468400Y-112927476D01*
X149573161Y-112813190D02*
X149554114Y-112803666D01*
X149544590Y-112794142D01*
X149535066Y-112775095D01*
X149535066Y-112765571D01*
X149544590Y-112746523D01*
X149554114Y-112737000D01*
X149573161Y-112727476D01*
X149611257Y-112727476D01*
X149630304Y-112737000D01*
X149639828Y-112746523D01*
X149649352Y-112765571D01*
X149649352Y-112775095D01*
X149639828Y-112794142D01*
X149630304Y-112803666D01*
X149611257Y-112813190D01*
X149573161Y-112813190D01*
X149554114Y-112822714D01*
X149544590Y-112832238D01*
X149535066Y-112851285D01*
X149535066Y-112889380D01*
X149544590Y-112908428D01*
X149554114Y-112917952D01*
X149573161Y-112927476D01*
X149611257Y-112927476D01*
X149630304Y-112917952D01*
X149639828Y-112908428D01*
X149649352Y-112889380D01*
X149649352Y-112851285D01*
X149639828Y-112832238D01*
X149630304Y-112822714D01*
X149611257Y-112813190D01*
X149763638Y-112813190D02*
X149744590Y-112803666D01*
X149735066Y-112794142D01*
X149725542Y-112775095D01*
X149725542Y-112765571D01*
X149735066Y-112746523D01*
X149744590Y-112737000D01*
X149763638Y-112727476D01*
X149801733Y-112727476D01*
X149820780Y-112737000D01*
X149830304Y-112746523D01*
X149839828Y-112765571D01*
X149839828Y-112775095D01*
X149830304Y-112794142D01*
X149820780Y-112803666D01*
X149801733Y-112813190D01*
X149763638Y-112813190D01*
X149744590Y-112822714D01*
X149735066Y-112832238D01*
X149725542Y-112851285D01*
X149725542Y-112889380D01*
X149735066Y-112908428D01*
X149744590Y-112917952D01*
X149763638Y-112927476D01*
X149801733Y-112927476D01*
X149820780Y-112917952D01*
X149830304Y-112908428D01*
X149839828Y-112889380D01*
X149839828Y-112851285D01*
X149830304Y-112832238D01*
X149820780Y-112822714D01*
X149801733Y-112813190D01*
X149906495Y-112727476D02*
X150039828Y-112727476D01*
X149954114Y-112927476D01*
X150144590Y-112813190D02*
X150125542Y-112803666D01*
X150116019Y-112794142D01*
X150106495Y-112775095D01*
X150106495Y-112765571D01*
X150116019Y-112746523D01*
X150125542Y-112737000D01*
X150144590Y-112727476D01*
X150182685Y-112727476D01*
X150201733Y-112737000D01*
X150211257Y-112746523D01*
X150220780Y-112765571D01*
X150220780Y-112775095D01*
X150211257Y-112794142D01*
X150201733Y-112803666D01*
X150182685Y-112813190D01*
X150144590Y-112813190D01*
X150125542Y-112822714D01*
X150116019Y-112832238D01*
X150106495Y-112851285D01*
X150106495Y-112889380D01*
X150116019Y-112908428D01*
X150125542Y-112917952D01*
X150144590Y-112927476D01*
X150182685Y-112927476D01*
X150201733Y-112917952D01*
X150211257Y-112908428D01*
X150220780Y-112889380D01*
X150220780Y-112851285D01*
X150211257Y-112832238D01*
X150201733Y-112822714D01*
X150182685Y-112813190D01*
X150258876Y-112946523D02*
X150411257Y-112946523D01*
X150458876Y-112794142D02*
X150458876Y-112994142D01*
X150458876Y-112803666D02*
X150477923Y-112794142D01*
X150516019Y-112794142D01*
X150535066Y-112803666D01*
X150544590Y-112813190D01*
X150554114Y-112832238D01*
X150554114Y-112889380D01*
X150544590Y-112908428D01*
X150535066Y-112917952D01*
X150516019Y-112927476D01*
X150477923Y-112927476D01*
X150458876Y-112917952D01*
X150639828Y-112927476D02*
X150639828Y-112794142D01*
X150639828Y-112727476D02*
X150630304Y-112737000D01*
X150639828Y-112746523D01*
X150649352Y-112737000D01*
X150639828Y-112727476D01*
X150639828Y-112746523D01*
X150735066Y-112794142D02*
X150735066Y-112927476D01*
X150735066Y-112813190D02*
X150744590Y-112803666D01*
X150763638Y-112794142D01*
X150792209Y-112794142D01*
X150811257Y-112803666D01*
X150820780Y-112822714D01*
X150820780Y-112927476D01*
X150906495Y-112727476D02*
X150906495Y-112765571D01*
X150982685Y-112727476D02*
X150982685Y-112765571D01*
X151306495Y-112917952D02*
X151287447Y-112927476D01*
X151249352Y-112927476D01*
X151230304Y-112917952D01*
X151220780Y-112908428D01*
X151211257Y-112889380D01*
X151211257Y-112832238D01*
X151220780Y-112813190D01*
X151230304Y-112803666D01*
X151249352Y-112794142D01*
X151287447Y-112794142D01*
X151306495Y-112803666D01*
X151477923Y-112927476D02*
X151477923Y-112822714D01*
X151468400Y-112803666D01*
X151449352Y-112794142D01*
X151411257Y-112794142D01*
X151392209Y-112803666D01*
X151477923Y-112917952D02*
X151458876Y-112927476D01*
X151411257Y-112927476D01*
X151392209Y-112917952D01*
X151382685Y-112898904D01*
X151382685Y-112879857D01*
X151392209Y-112860809D01*
X151411257Y-112851285D01*
X151458876Y-112851285D01*
X151477923Y-112841761D01*
X151573161Y-112927476D02*
X151573161Y-112794142D01*
X151573161Y-112832238D02*
X151582685Y-112813190D01*
X151592209Y-112803666D01*
X151611257Y-112794142D01*
X151630304Y-112794142D01*
X151696971Y-112927476D02*
X151696971Y-112794142D01*
X151696971Y-112832238D02*
X151706495Y-112813190D01*
X151716019Y-112803666D01*
X151735066Y-112794142D01*
X151754114Y-112794142D01*
X151820780Y-112927476D02*
X151820780Y-112794142D01*
X151820780Y-112727476D02*
X151811257Y-112737000D01*
X151820780Y-112746523D01*
X151830304Y-112737000D01*
X151820780Y-112727476D01*
X151820780Y-112746523D01*
X151992209Y-112917952D02*
X151973161Y-112927476D01*
X151935066Y-112927476D01*
X151916019Y-112917952D01*
X151906495Y-112898904D01*
X151906495Y-112822714D01*
X151916019Y-112803666D01*
X151935066Y-112794142D01*
X151973161Y-112794142D01*
X151992209Y-112803666D01*
X152001733Y-112822714D01*
X152001733Y-112841761D01*
X151906495Y-112860809D01*
X152087447Y-112927476D02*
X152087447Y-112794142D01*
X152087447Y-112832238D02*
X152096971Y-112813190D01*
X152106495Y-112803666D01*
X152125542Y-112794142D01*
X152144590Y-112794142D01*
X152211257Y-112908428D02*
X152220780Y-112917952D01*
X152211257Y-112927476D01*
X152201733Y-112917952D01*
X152211257Y-112908428D01*
X152211257Y-112927476D01*
M02*
