M48
; DRILL file {KiCad 5.1.4-e60b266~84~ubuntu19.04.1} date Thu 07 Nov 2019 01:35:54 PM EST
; FORMAT={-:-/ absolute / metric / decimal}
; #@! TF.CreationDate,2019-11-07T13:35:54-05:00
; #@! TF.GenerationSoftware,Kicad,Pcbnew,5.1.4-e60b266~84~ubuntu19.04.1
; #@! TF.FileFunction,Plated,1,2,PTH
FMAT,2
METRIC
T1C1.600
%
G90
G05
T1
X138.618Y-82.677
X138.618Y-85.217
X138.618Y-87.757
X138.618Y-90.297
X138.618Y-92.837
X138.618Y-95.377
X138.618Y-97.917
X138.618Y-100.457
X138.618Y-102.997
X138.618Y-105.537
X138.618Y-108.077
X138.618Y-110.617
X138.618Y-113.157
X138.618Y-115.697
X155.818Y-82.677
X155.818Y-85.217
X155.818Y-87.757
X155.818Y-90.297
X155.818Y-92.837
X155.818Y-95.377
X155.818Y-97.917
X155.818Y-100.457
X155.818Y-102.997
X155.818Y-105.537
X155.818Y-108.077
X155.818Y-110.617
X155.818Y-113.157
X155.818Y-115.697
T0
M30
