G04 #@! TF.GenerationSoftware,KiCad,Pcbnew,5.1.4-e60b266~84~ubuntu19.04.1*
G04 #@! TF.CreationDate,2019-11-08T15:26:41-05:00*
G04 #@! TF.ProjectId,pcb2molex8878_pin,70636232-6d6f-46c6-9578-383837385f70,rev?*
G04 #@! TF.SameCoordinates,Original*
G04 #@! TF.FileFunction,Drawing*
%FSLAX46Y46*%
G04 Gerber Fmt 4.6, Leading zero omitted, Abs format (unit mm)*
G04 Created by KiCad (PCBNEW 5.1.4-e60b266~84~ubuntu19.04.1) date 2019-11-08 15:26:41*
%MOMM*%
%LPD*%
G04 APERTURE LIST*
%ADD10C,0.010000*%
G04 APERTURE END LIST*
D10*
X144218400Y-81087000D02*
X144418400Y-81287000D01*
X144218400Y-81087000D02*
X144018400Y-81287000D01*
X144218400Y-81087000D02*
X144218400Y-82187000D01*
X152218400Y-118287000D02*
X142218400Y-118287000D01*
X152218400Y-117287000D02*
X152218400Y-118287000D01*
X142218400Y-117287000D02*
X152218400Y-117287000D01*
X142218400Y-118287000D02*
X142218400Y-117287000D01*
X152218400Y-80087000D02*
X142218400Y-80087000D01*
X152218400Y-81087000D02*
X152218400Y-80087000D01*
X142218400Y-81087000D02*
X152218400Y-81087000D01*
X142218400Y-80087000D02*
X142218400Y-81087000D01*
X154418400Y-117487000D02*
X140018400Y-117487000D01*
X154418400Y-80887000D02*
X154418400Y-117487000D01*
X140018400Y-80887000D02*
X154418400Y-80887000D01*
X140018400Y-117487000D02*
X140018400Y-80887000D01*
X140018400Y-101187000D02*
X140768400Y-101187000D01*
X140018400Y-101187000D02*
X140268400Y-101437000D01*
X140018400Y-101187000D02*
X140268400Y-100937000D01*
X139218400Y-80087000D02*
X155218400Y-118287000D01*
X139218400Y-118287000D02*
X155218400Y-80087000D01*
X144594590Y-82177476D02*
X144480304Y-82177476D01*
X144537447Y-82177476D02*
X144537447Y-81977476D01*
X144518400Y-82006047D01*
X144499352Y-82025095D01*
X144480304Y-82034619D01*
X144718400Y-81977476D02*
X144737447Y-81977476D01*
X144756495Y-81987000D01*
X144766019Y-81996523D01*
X144775542Y-82015571D01*
X144785066Y-82053666D01*
X144785066Y-82101285D01*
X144775542Y-82139380D01*
X144766019Y-82158428D01*
X144756495Y-82167952D01*
X144737447Y-82177476D01*
X144718400Y-82177476D01*
X144699352Y-82167952D01*
X144689828Y-82158428D01*
X144680304Y-82139380D01*
X144670780Y-82101285D01*
X144670780Y-82053666D01*
X144680304Y-82015571D01*
X144689828Y-81996523D01*
X144699352Y-81987000D01*
X144718400Y-81977476D01*
X144870780Y-82158428D02*
X144880304Y-82167952D01*
X144870780Y-82177476D01*
X144861257Y-82167952D01*
X144870780Y-82158428D01*
X144870780Y-82177476D01*
X145004114Y-81977476D02*
X145023161Y-81977476D01*
X145042209Y-81987000D01*
X145051733Y-81996523D01*
X145061257Y-82015571D01*
X145070780Y-82053666D01*
X145070780Y-82101285D01*
X145061257Y-82139380D01*
X145051733Y-82158428D01*
X145042209Y-82167952D01*
X145023161Y-82177476D01*
X145004114Y-82177476D01*
X144985066Y-82167952D01*
X144975542Y-82158428D01*
X144966019Y-82139380D01*
X144956495Y-82101285D01*
X144956495Y-82053666D01*
X144966019Y-82015571D01*
X144975542Y-81996523D01*
X144985066Y-81987000D01*
X145004114Y-81977476D01*
X145289828Y-82177476D02*
X145394590Y-82044142D01*
X145289828Y-82044142D02*
X145394590Y-82177476D01*
X145727923Y-82177476D02*
X145613638Y-82177476D01*
X145670780Y-82177476D02*
X145670780Y-81977476D01*
X145651733Y-82006047D01*
X145632685Y-82025095D01*
X145613638Y-82034619D01*
X145813638Y-82158428D02*
X145823161Y-82167952D01*
X145813638Y-82177476D01*
X145804114Y-82167952D01*
X145813638Y-82158428D01*
X145813638Y-82177476D01*
X145946971Y-81977476D02*
X145966019Y-81977476D01*
X145985066Y-81987000D01*
X145994590Y-81996523D01*
X146004114Y-82015571D01*
X146013638Y-82053666D01*
X146013638Y-82101285D01*
X146004114Y-82139380D01*
X145994590Y-82158428D01*
X145985066Y-82167952D01*
X145966019Y-82177476D01*
X145946971Y-82177476D01*
X145927923Y-82167952D01*
X145918400Y-82158428D01*
X145908876Y-82139380D01*
X145899352Y-82101285D01*
X145899352Y-82053666D01*
X145908876Y-82015571D01*
X145918400Y-81996523D01*
X145927923Y-81987000D01*
X145946971Y-81977476D01*
X146251733Y-82177476D02*
X146251733Y-82044142D01*
X146251733Y-82082238D02*
X146261257Y-82063190D01*
X146270780Y-82053666D01*
X146289828Y-82044142D01*
X146308876Y-82044142D01*
X146451733Y-82167952D02*
X146432685Y-82177476D01*
X146394590Y-82177476D01*
X146375542Y-82167952D01*
X146366019Y-82148904D01*
X146366019Y-82072714D01*
X146375542Y-82053666D01*
X146394590Y-82044142D01*
X146432685Y-82044142D01*
X146451733Y-82053666D01*
X146461257Y-82072714D01*
X146461257Y-82091761D01*
X146366019Y-82110809D01*
X146518400Y-82044142D02*
X146594590Y-82044142D01*
X146546971Y-81977476D02*
X146546971Y-82148904D01*
X146556495Y-82167952D01*
X146575542Y-82177476D01*
X146594590Y-82177476D01*
X146746971Y-82177476D02*
X146746971Y-82072714D01*
X146737447Y-82053666D01*
X146718400Y-82044142D01*
X146680304Y-82044142D01*
X146661257Y-82053666D01*
X146746971Y-82167952D02*
X146727923Y-82177476D01*
X146680304Y-82177476D01*
X146661257Y-82167952D01*
X146651733Y-82148904D01*
X146651733Y-82129857D01*
X146661257Y-82110809D01*
X146680304Y-82101285D01*
X146727923Y-82101285D01*
X146746971Y-82091761D01*
X146842209Y-82177476D02*
X146842209Y-82044142D01*
X146842209Y-81977476D02*
X146832685Y-81987000D01*
X146842209Y-81996523D01*
X146851733Y-81987000D01*
X146842209Y-81977476D01*
X146842209Y-81996523D01*
X146937447Y-82044142D02*
X146937447Y-82177476D01*
X146937447Y-82063190D02*
X146946971Y-82053666D01*
X146966019Y-82044142D01*
X146994590Y-82044142D01*
X147013638Y-82053666D01*
X147023161Y-82072714D01*
X147023161Y-82177476D01*
X147194590Y-82167952D02*
X147175542Y-82177476D01*
X147137447Y-82177476D01*
X147118400Y-82167952D01*
X147108876Y-82148904D01*
X147108876Y-82072714D01*
X147118400Y-82053666D01*
X147137447Y-82044142D01*
X147175542Y-82044142D01*
X147194590Y-82053666D01*
X147204114Y-82072714D01*
X147204114Y-82091761D01*
X147108876Y-82110809D01*
X147289828Y-82177476D02*
X147289828Y-82044142D01*
X147289828Y-82082238D02*
X147299352Y-82063190D01*
X147308876Y-82053666D01*
X147327923Y-82044142D01*
X147346971Y-82044142D01*
X147546971Y-82044142D02*
X147585066Y-82177476D01*
X147623161Y-82082238D01*
X147661257Y-82177476D01*
X147699352Y-82044142D01*
X147851733Y-82167952D02*
X147832685Y-82177476D01*
X147794590Y-82177476D01*
X147775542Y-82167952D01*
X147766019Y-82148904D01*
X147766019Y-82072714D01*
X147775542Y-82053666D01*
X147794590Y-82044142D01*
X147832685Y-82044142D01*
X147851733Y-82053666D01*
X147861257Y-82072714D01*
X147861257Y-82091761D01*
X147766019Y-82110809D01*
X148032685Y-82177476D02*
X148032685Y-81977476D01*
X148032685Y-82167952D02*
X148013638Y-82177476D01*
X147975542Y-82177476D01*
X147956495Y-82167952D01*
X147946971Y-82158428D01*
X147937447Y-82139380D01*
X147937447Y-82082238D01*
X147946971Y-82063190D01*
X147956495Y-82053666D01*
X147975542Y-82044142D01*
X148013638Y-82044142D01*
X148032685Y-82053666D01*
X148213638Y-82044142D02*
X148213638Y-82206047D01*
X148204114Y-82225095D01*
X148194590Y-82234619D01*
X148175542Y-82244142D01*
X148146971Y-82244142D01*
X148127923Y-82234619D01*
X148213638Y-82167952D02*
X148194590Y-82177476D01*
X148156495Y-82177476D01*
X148137447Y-82167952D01*
X148127923Y-82158428D01*
X148118400Y-82139380D01*
X148118400Y-82082238D01*
X148127923Y-82063190D01*
X148137447Y-82053666D01*
X148156495Y-82044142D01*
X148194590Y-82044142D01*
X148213638Y-82053666D01*
X148385066Y-82167952D02*
X148366019Y-82177476D01*
X148327923Y-82177476D01*
X148308876Y-82167952D01*
X148299352Y-82148904D01*
X148299352Y-82072714D01*
X148308876Y-82053666D01*
X148327923Y-82044142D01*
X148366019Y-82044142D01*
X148385066Y-82053666D01*
X148394590Y-82072714D01*
X148394590Y-82091761D01*
X148299352Y-82110809D01*
X148470780Y-82167952D02*
X148489828Y-82177476D01*
X148527923Y-82177476D01*
X148546971Y-82167952D01*
X148556495Y-82148904D01*
X148556495Y-82139380D01*
X148546971Y-82120333D01*
X148527923Y-82110809D01*
X148499352Y-82110809D01*
X148480304Y-82101285D01*
X148470780Y-82082238D01*
X148470780Y-82072714D01*
X148480304Y-82053666D01*
X148499352Y-82044142D01*
X148527923Y-82044142D01*
X148546971Y-82053666D01*
X148823161Y-82177476D02*
X148804114Y-82167952D01*
X148794590Y-82158428D01*
X148785066Y-82139380D01*
X148785066Y-82082238D01*
X148794590Y-82063190D01*
X148804114Y-82053666D01*
X148823161Y-82044142D01*
X148851733Y-82044142D01*
X148870780Y-82053666D01*
X148880304Y-82063190D01*
X148889828Y-82082238D01*
X148889828Y-82139380D01*
X148880304Y-82158428D01*
X148870780Y-82167952D01*
X148851733Y-82177476D01*
X148823161Y-82177476D01*
X148975542Y-82044142D02*
X148975542Y-82177476D01*
X148975542Y-82063190D02*
X148985066Y-82053666D01*
X149004114Y-82044142D01*
X149032685Y-82044142D01*
X149051733Y-82053666D01*
X149061257Y-82072714D01*
X149061257Y-82177476D01*
X149280304Y-82044142D02*
X149356495Y-82044142D01*
X149308876Y-81977476D02*
X149308876Y-82148904D01*
X149318400Y-82167952D01*
X149337447Y-82177476D01*
X149356495Y-82177476D01*
X149451733Y-82177476D02*
X149432685Y-82167952D01*
X149423161Y-82158428D01*
X149413638Y-82139380D01*
X149413638Y-82082238D01*
X149423161Y-82063190D01*
X149432685Y-82053666D01*
X149451733Y-82044142D01*
X149480304Y-82044142D01*
X149499352Y-82053666D01*
X149508876Y-82063190D01*
X149518400Y-82082238D01*
X149518400Y-82139380D01*
X149508876Y-82158428D01*
X149499352Y-82167952D01*
X149480304Y-82177476D01*
X149451733Y-82177476D01*
X149604114Y-82044142D02*
X149604114Y-82244142D01*
X149604114Y-82053666D02*
X149623161Y-82044142D01*
X149661257Y-82044142D01*
X149680304Y-82053666D01*
X149689828Y-82063190D01*
X149699352Y-82082238D01*
X149699352Y-82139380D01*
X149689828Y-82158428D01*
X149680304Y-82167952D01*
X149661257Y-82177476D01*
X149623161Y-82177476D01*
X149604114Y-82167952D01*
X149927923Y-82167952D02*
X149946971Y-82177476D01*
X149985066Y-82177476D01*
X150004114Y-82167952D01*
X150013638Y-82148904D01*
X150013638Y-82139380D01*
X150004114Y-82120333D01*
X149985066Y-82110809D01*
X149956495Y-82110809D01*
X149937447Y-82101285D01*
X149927923Y-82082238D01*
X149927923Y-82072714D01*
X149937447Y-82053666D01*
X149956495Y-82044142D01*
X149985066Y-82044142D01*
X150004114Y-82053666D01*
X150185066Y-82044142D02*
X150185066Y-82177476D01*
X150099352Y-82044142D02*
X150099352Y-82148904D01*
X150108876Y-82167952D01*
X150127923Y-82177476D01*
X150156495Y-82177476D01*
X150175542Y-82167952D01*
X150185066Y-82158428D01*
X150280304Y-82177476D02*
X150280304Y-82044142D01*
X150280304Y-82082238D02*
X150289828Y-82063190D01*
X150299352Y-82053666D01*
X150318400Y-82044142D01*
X150337447Y-82044142D01*
X150375542Y-82044142D02*
X150451733Y-82044142D01*
X150404114Y-82177476D02*
X150404114Y-82006047D01*
X150413638Y-81987000D01*
X150432685Y-81977476D01*
X150451733Y-81977476D01*
X150604114Y-82177476D02*
X150604114Y-82072714D01*
X150594590Y-82053666D01*
X150575542Y-82044142D01*
X150537447Y-82044142D01*
X150518400Y-82053666D01*
X150604114Y-82167952D02*
X150585066Y-82177476D01*
X150537447Y-82177476D01*
X150518400Y-82167952D01*
X150508876Y-82148904D01*
X150508876Y-82129857D01*
X150518400Y-82110809D01*
X150537447Y-82101285D01*
X150585066Y-82101285D01*
X150604114Y-82091761D01*
X150785066Y-82167952D02*
X150766019Y-82177476D01*
X150727923Y-82177476D01*
X150708876Y-82167952D01*
X150699352Y-82158428D01*
X150689828Y-82139380D01*
X150689828Y-82082238D01*
X150699352Y-82063190D01*
X150708876Y-82053666D01*
X150727923Y-82044142D01*
X150766019Y-82044142D01*
X150785066Y-82053666D01*
X150946971Y-82167952D02*
X150927923Y-82177476D01*
X150889828Y-82177476D01*
X150870780Y-82167952D01*
X150861257Y-82148904D01*
X150861257Y-82072714D01*
X150870780Y-82053666D01*
X150889828Y-82044142D01*
X150927923Y-82044142D01*
X150946971Y-82053666D01*
X150956495Y-82072714D01*
X150956495Y-82091761D01*
X150861257Y-82110809D01*
X141242209Y-101427476D02*
X141242209Y-101227476D01*
X141242209Y-101303666D02*
X141261257Y-101294142D01*
X141299352Y-101294142D01*
X141318400Y-101303666D01*
X141327923Y-101313190D01*
X141337447Y-101332238D01*
X141337447Y-101389380D01*
X141327923Y-101408428D01*
X141318400Y-101417952D01*
X141299352Y-101427476D01*
X141261257Y-101427476D01*
X141242209Y-101417952D01*
X141508876Y-101427476D02*
X141508876Y-101322714D01*
X141499352Y-101303666D01*
X141480304Y-101294142D01*
X141442209Y-101294142D01*
X141423161Y-101303666D01*
X141508876Y-101417952D02*
X141489828Y-101427476D01*
X141442209Y-101427476D01*
X141423161Y-101417952D01*
X141413638Y-101398904D01*
X141413638Y-101379857D01*
X141423161Y-101360809D01*
X141442209Y-101351285D01*
X141489828Y-101351285D01*
X141508876Y-101341761D01*
X141689828Y-101417952D02*
X141670780Y-101427476D01*
X141632685Y-101427476D01*
X141613638Y-101417952D01*
X141604114Y-101408428D01*
X141594590Y-101389380D01*
X141594590Y-101332238D01*
X141604114Y-101313190D01*
X141613638Y-101303666D01*
X141632685Y-101294142D01*
X141670780Y-101294142D01*
X141689828Y-101303666D01*
X141775542Y-101427476D02*
X141775542Y-101227476D01*
X141794590Y-101351285D02*
X141851733Y-101427476D01*
X141851733Y-101294142D02*
X141775542Y-101370333D01*
X141927923Y-101417952D02*
X141946971Y-101427476D01*
X141985066Y-101427476D01*
X142004114Y-101417952D01*
X142013638Y-101398904D01*
X142013638Y-101389380D01*
X142004114Y-101370333D01*
X141985066Y-101360809D01*
X141956495Y-101360809D01*
X141937447Y-101351285D01*
X141927923Y-101332238D01*
X141927923Y-101322714D01*
X141937447Y-101303666D01*
X141956495Y-101294142D01*
X141985066Y-101294142D01*
X142004114Y-101303666D01*
X142099352Y-101427476D02*
X142099352Y-101294142D01*
X142099352Y-101227476D02*
X142089828Y-101237000D01*
X142099352Y-101246523D01*
X142108876Y-101237000D01*
X142099352Y-101227476D01*
X142099352Y-101246523D01*
X142280304Y-101427476D02*
X142280304Y-101227476D01*
X142280304Y-101417952D02*
X142261257Y-101427476D01*
X142223161Y-101427476D01*
X142204114Y-101417952D01*
X142194590Y-101408428D01*
X142185066Y-101389380D01*
X142185066Y-101332238D01*
X142194590Y-101313190D01*
X142204114Y-101303666D01*
X142223161Y-101294142D01*
X142261257Y-101294142D01*
X142280304Y-101303666D01*
X142451733Y-101417952D02*
X142432685Y-101427476D01*
X142394590Y-101427476D01*
X142375542Y-101417952D01*
X142366019Y-101398904D01*
X142366019Y-101322714D01*
X142375542Y-101303666D01*
X142394590Y-101294142D01*
X142432685Y-101294142D01*
X142451733Y-101303666D01*
X142461257Y-101322714D01*
X142461257Y-101341761D01*
X142366019Y-101360809D01*
X142785066Y-101417952D02*
X142766019Y-101427476D01*
X142727923Y-101427476D01*
X142708876Y-101417952D01*
X142699352Y-101408428D01*
X142689828Y-101389380D01*
X142689828Y-101332238D01*
X142699352Y-101313190D01*
X142708876Y-101303666D01*
X142727923Y-101294142D01*
X142766019Y-101294142D01*
X142785066Y-101303666D01*
X142899352Y-101427476D02*
X142880304Y-101417952D01*
X142870780Y-101408428D01*
X142861257Y-101389380D01*
X142861257Y-101332238D01*
X142870780Y-101313190D01*
X142880304Y-101303666D01*
X142899352Y-101294142D01*
X142927923Y-101294142D01*
X142946971Y-101303666D01*
X142956495Y-101313190D01*
X142966019Y-101332238D01*
X142966019Y-101389380D01*
X142956495Y-101408428D01*
X142946971Y-101417952D01*
X142927923Y-101427476D01*
X142899352Y-101427476D01*
X143051733Y-101427476D02*
X143051733Y-101294142D01*
X143051733Y-101313190D02*
X143061257Y-101303666D01*
X143080304Y-101294142D01*
X143108876Y-101294142D01*
X143127923Y-101303666D01*
X143137447Y-101322714D01*
X143137447Y-101427476D01*
X143137447Y-101322714D02*
X143146971Y-101303666D01*
X143166019Y-101294142D01*
X143194590Y-101294142D01*
X143213638Y-101303666D01*
X143223161Y-101322714D01*
X143223161Y-101427476D01*
X143318400Y-101294142D02*
X143318400Y-101494142D01*
X143318400Y-101303666D02*
X143337447Y-101294142D01*
X143375542Y-101294142D01*
X143394590Y-101303666D01*
X143404114Y-101313190D01*
X143413638Y-101332238D01*
X143413638Y-101389380D01*
X143404114Y-101408428D01*
X143394590Y-101417952D01*
X143375542Y-101427476D01*
X143337447Y-101427476D01*
X143318400Y-101417952D01*
X143527923Y-101427476D02*
X143508876Y-101417952D01*
X143499352Y-101408428D01*
X143489828Y-101389380D01*
X143489828Y-101332238D01*
X143499352Y-101313190D01*
X143508876Y-101303666D01*
X143527923Y-101294142D01*
X143556495Y-101294142D01*
X143575542Y-101303666D01*
X143585066Y-101313190D01*
X143594590Y-101332238D01*
X143594590Y-101389380D01*
X143585066Y-101408428D01*
X143575542Y-101417952D01*
X143556495Y-101427476D01*
X143527923Y-101427476D01*
X143680304Y-101294142D02*
X143680304Y-101427476D01*
X143680304Y-101313190D02*
X143689828Y-101303666D01*
X143708876Y-101294142D01*
X143737447Y-101294142D01*
X143756495Y-101303666D01*
X143766019Y-101322714D01*
X143766019Y-101427476D01*
X143937447Y-101417952D02*
X143918400Y-101427476D01*
X143880304Y-101427476D01*
X143861257Y-101417952D01*
X143851733Y-101398904D01*
X143851733Y-101322714D01*
X143861257Y-101303666D01*
X143880304Y-101294142D01*
X143918400Y-101294142D01*
X143937447Y-101303666D01*
X143946971Y-101322714D01*
X143946971Y-101341761D01*
X143851733Y-101360809D01*
X144032685Y-101294142D02*
X144032685Y-101427476D01*
X144032685Y-101313190D02*
X144042209Y-101303666D01*
X144061257Y-101294142D01*
X144089828Y-101294142D01*
X144108876Y-101303666D01*
X144118400Y-101322714D01*
X144118400Y-101427476D01*
X144185066Y-101294142D02*
X144261257Y-101294142D01*
X144213638Y-101227476D02*
X144213638Y-101398904D01*
X144223161Y-101417952D01*
X144242209Y-101427476D01*
X144261257Y-101427476D01*
X144318400Y-101417952D02*
X144337447Y-101427476D01*
X144375542Y-101427476D01*
X144394590Y-101417952D01*
X144404114Y-101398904D01*
X144404114Y-101389380D01*
X144394590Y-101370333D01*
X144375542Y-101360809D01*
X144346971Y-101360809D01*
X144327923Y-101351285D01*
X144318400Y-101332238D01*
X144318400Y-101322714D01*
X144327923Y-101303666D01*
X144346971Y-101294142D01*
X144375542Y-101294142D01*
X144394590Y-101303666D01*
X140908876Y-100927476D02*
X141032685Y-100927476D01*
X140966019Y-101003666D01*
X140994590Y-101003666D01*
X141013638Y-101013190D01*
X141023161Y-101022714D01*
X141032685Y-101041761D01*
X141032685Y-101089380D01*
X141023161Y-101108428D01*
X141013638Y-101117952D01*
X140994590Y-101127476D01*
X140937447Y-101127476D01*
X140918400Y-101117952D01*
X140908876Y-101108428D01*
X141204114Y-100927476D02*
X141166019Y-100927476D01*
X141146971Y-100937000D01*
X141137447Y-100946523D01*
X141118400Y-100975095D01*
X141108876Y-101013190D01*
X141108876Y-101089380D01*
X141118400Y-101108428D01*
X141127923Y-101117952D01*
X141146971Y-101127476D01*
X141185066Y-101127476D01*
X141204114Y-101117952D01*
X141213638Y-101108428D01*
X141223161Y-101089380D01*
X141223161Y-101041761D01*
X141213638Y-101022714D01*
X141204114Y-101013190D01*
X141185066Y-101003666D01*
X141146971Y-101003666D01*
X141127923Y-101013190D01*
X141118400Y-101022714D01*
X141108876Y-101041761D01*
X141308876Y-101108428D02*
X141318400Y-101117952D01*
X141308876Y-101127476D01*
X141299352Y-101117952D01*
X141308876Y-101108428D01*
X141308876Y-101127476D01*
X141489828Y-100927476D02*
X141451733Y-100927476D01*
X141432685Y-100937000D01*
X141423161Y-100946523D01*
X141404114Y-100975095D01*
X141394590Y-101013190D01*
X141394590Y-101089380D01*
X141404114Y-101108428D01*
X141413638Y-101117952D01*
X141432685Y-101127476D01*
X141470780Y-101127476D01*
X141489828Y-101117952D01*
X141499352Y-101108428D01*
X141508876Y-101089380D01*
X141508876Y-101041761D01*
X141499352Y-101022714D01*
X141489828Y-101013190D01*
X141470780Y-101003666D01*
X141432685Y-101003666D01*
X141413638Y-101013190D01*
X141404114Y-101022714D01*
X141394590Y-101041761D01*
X141727923Y-101127476D02*
X141832685Y-100994142D01*
X141727923Y-100994142D02*
X141832685Y-101127476D01*
X142166019Y-101127476D02*
X142051733Y-101127476D01*
X142108876Y-101127476D02*
X142108876Y-100927476D01*
X142089828Y-100956047D01*
X142070780Y-100975095D01*
X142051733Y-100984619D01*
X142337447Y-100994142D02*
X142337447Y-101127476D01*
X142289828Y-100917952D02*
X142242209Y-101060809D01*
X142366019Y-101060809D01*
X142442209Y-101108428D02*
X142451733Y-101117952D01*
X142442209Y-101127476D01*
X142432685Y-101117952D01*
X142442209Y-101108428D01*
X142442209Y-101127476D01*
X142623161Y-100994142D02*
X142623161Y-101127476D01*
X142575542Y-100917952D02*
X142527923Y-101060809D01*
X142651733Y-101060809D01*
X142861257Y-101127476D02*
X142966019Y-100994142D01*
X142861257Y-100994142D02*
X142966019Y-101127476D01*
X143299352Y-101127476D02*
X143185066Y-101127476D01*
X143242209Y-101127476D02*
X143242209Y-100927476D01*
X143223161Y-100956047D01*
X143204114Y-100975095D01*
X143185066Y-100984619D01*
X143385066Y-101108428D02*
X143394590Y-101117952D01*
X143385066Y-101127476D01*
X143375542Y-101117952D01*
X143385066Y-101108428D01*
X143385066Y-101127476D01*
X143566019Y-100927476D02*
X143527923Y-100927476D01*
X143508876Y-100937000D01*
X143499352Y-100946523D01*
X143480304Y-100975095D01*
X143470780Y-101013190D01*
X143470780Y-101089380D01*
X143480304Y-101108428D01*
X143489828Y-101117952D01*
X143508876Y-101127476D01*
X143546971Y-101127476D01*
X143566019Y-101117952D01*
X143575542Y-101108428D01*
X143585066Y-101089380D01*
X143585066Y-101041761D01*
X143575542Y-101022714D01*
X143566019Y-101013190D01*
X143546971Y-101003666D01*
X143508876Y-101003666D01*
X143489828Y-101013190D01*
X143480304Y-101022714D01*
X143470780Y-101041761D01*
X143823161Y-100994142D02*
X143823161Y-101194142D01*
X143823161Y-101003666D02*
X143842209Y-100994142D01*
X143880304Y-100994142D01*
X143899352Y-101003666D01*
X143908876Y-101013190D01*
X143918400Y-101032238D01*
X143918400Y-101089380D01*
X143908876Y-101108428D01*
X143899352Y-101117952D01*
X143880304Y-101127476D01*
X143842209Y-101127476D01*
X143823161Y-101117952D01*
X144032685Y-101127476D02*
X144013638Y-101117952D01*
X144004114Y-101108428D01*
X143994590Y-101089380D01*
X143994590Y-101032238D01*
X144004114Y-101013190D01*
X144013638Y-101003666D01*
X144032685Y-100994142D01*
X144061257Y-100994142D01*
X144080304Y-101003666D01*
X144089828Y-101013190D01*
X144099352Y-101032238D01*
X144099352Y-101089380D01*
X144089828Y-101108428D01*
X144080304Y-101117952D01*
X144061257Y-101127476D01*
X144032685Y-101127476D01*
X144270780Y-101117952D02*
X144251733Y-101127476D01*
X144213638Y-101127476D01*
X144194590Y-101117952D01*
X144185066Y-101108428D01*
X144175542Y-101089380D01*
X144175542Y-101032238D01*
X144185066Y-101013190D01*
X144194590Y-101003666D01*
X144213638Y-100994142D01*
X144251733Y-100994142D01*
X144270780Y-101003666D01*
X144356495Y-101127476D02*
X144356495Y-100927476D01*
X144375542Y-101051285D02*
X144432685Y-101127476D01*
X144432685Y-100994142D02*
X144356495Y-101070333D01*
X144594590Y-101117952D02*
X144575542Y-101127476D01*
X144537447Y-101127476D01*
X144518400Y-101117952D01*
X144508876Y-101098904D01*
X144508876Y-101022714D01*
X144518400Y-101003666D01*
X144537447Y-100994142D01*
X144575542Y-100994142D01*
X144594590Y-101003666D01*
X144604114Y-101022714D01*
X144604114Y-101041761D01*
X144508876Y-101060809D01*
X144661257Y-100994142D02*
X144737447Y-100994142D01*
X144689828Y-100927476D02*
X144689828Y-101098904D01*
X144699352Y-101117952D01*
X144718400Y-101127476D01*
X144737447Y-101127476D01*
M02*
