G04 #@! TF.GenerationSoftware,KiCad,Pcbnew,5.1.4-e60b266~84~ubuntu19.04.1*
G04 #@! TF.CreationDate,2019-11-07T13:35:29-05:00*
G04 #@! TF.ProjectId,pcb2molex8878_max,70636232-6d6f-46c6-9578-383837385f6d,rev?*
G04 #@! TF.SameCoordinates,Original*
G04 #@! TF.FileFunction,Other,ECO2*
%FSLAX46Y46*%
G04 Gerber Fmt 4.6, Leading zero omitted, Abs format (unit mm)*
G04 Created by KiCad (PCBNEW 5.1.4-e60b266~84~ubuntu19.04.1) date 2019-11-07 13:35:29*
%MOMM*%
%LPD*%
G04 APERTURE LIST*
%ADD10C,0.010000*%
G04 APERTURE END LIST*
D10*
X149568400Y-80087000D02*
X142868400Y-80087000D01*
X149568400Y-79287000D02*
X149568400Y-80087000D01*
X151568400Y-79287000D02*
X149568400Y-79287000D01*
X151568400Y-80087000D02*
X151568400Y-79287000D01*
X153568400Y-80087000D02*
X151568400Y-80087000D01*
X153568400Y-118287000D02*
X148218400Y-118287000D01*
X146218400Y-118287000D02*
X146218400Y-119087000D01*
X140868400Y-118287000D02*
X146218400Y-118287000D01*
X148218400Y-118287000D02*
X148218400Y-119087000D01*
X146218400Y-119087000D02*
X148218400Y-119087000D01*
X138868400Y-119087000D02*
X140868400Y-119087000D01*
X155568400Y-119087000D02*
X153568400Y-119087000D01*
X155568400Y-79287000D02*
X153568400Y-79287000D01*
X138868400Y-79287000D02*
X142868400Y-79287000D01*
X138868400Y-79287000D02*
X138868400Y-119087000D01*
X155568400Y-119087000D02*
X155568400Y-79287000D01*
X140868400Y-118287000D02*
X140868400Y-119087000D01*
X153568400Y-119087000D02*
X153568400Y-118287000D01*
X153568400Y-80087000D02*
X153568400Y-79287000D01*
X142868400Y-79287000D02*
X142868400Y-80087000D01*
X141919352Y-112212714D02*
X141986019Y-112212714D01*
X142014590Y-112317476D02*
X141919352Y-112317476D01*
X141919352Y-112117476D01*
X142014590Y-112117476D01*
X142186019Y-112307952D02*
X142166971Y-112317476D01*
X142128876Y-112317476D01*
X142109828Y-112307952D01*
X142100304Y-112298428D01*
X142090780Y-112279380D01*
X142090780Y-112222238D01*
X142100304Y-112203190D01*
X142109828Y-112193666D01*
X142128876Y-112184142D01*
X142166971Y-112184142D01*
X142186019Y-112193666D01*
X142300304Y-112317476D02*
X142281257Y-112307952D01*
X142271733Y-112298428D01*
X142262209Y-112279380D01*
X142262209Y-112222238D01*
X142271733Y-112203190D01*
X142281257Y-112193666D01*
X142300304Y-112184142D01*
X142328876Y-112184142D01*
X142347923Y-112193666D01*
X142357447Y-112203190D01*
X142366971Y-112222238D01*
X142366971Y-112279380D01*
X142357447Y-112298428D01*
X142347923Y-112307952D01*
X142328876Y-112317476D01*
X142300304Y-112317476D01*
X142443161Y-112136523D02*
X142452685Y-112127000D01*
X142471733Y-112117476D01*
X142519352Y-112117476D01*
X142538400Y-112127000D01*
X142547923Y-112136523D01*
X142557447Y-112155571D01*
X142557447Y-112174619D01*
X142547923Y-112203190D01*
X142433638Y-112317476D01*
X142557447Y-112317476D01*
X142643161Y-112298428D02*
X142652685Y-112307952D01*
X142643161Y-112317476D01*
X142633638Y-112307952D01*
X142643161Y-112298428D01*
X142643161Y-112317476D01*
X142738400Y-112117476D02*
X142738400Y-112279380D01*
X142747923Y-112298428D01*
X142757447Y-112307952D01*
X142776495Y-112317476D01*
X142814590Y-112317476D01*
X142833638Y-112307952D01*
X142843161Y-112298428D01*
X142852685Y-112279380D01*
X142852685Y-112117476D01*
X142938400Y-112307952D02*
X142957447Y-112317476D01*
X142995542Y-112317476D01*
X143014590Y-112307952D01*
X143024114Y-112288904D01*
X143024114Y-112279380D01*
X143014590Y-112260333D01*
X142995542Y-112250809D01*
X142966971Y-112250809D01*
X142947923Y-112241285D01*
X142938400Y-112222238D01*
X142938400Y-112212714D01*
X142947923Y-112193666D01*
X142966971Y-112184142D01*
X142995542Y-112184142D01*
X143014590Y-112193666D01*
X143186019Y-112307952D02*
X143166971Y-112317476D01*
X143128876Y-112317476D01*
X143109828Y-112307952D01*
X143100304Y-112288904D01*
X143100304Y-112212714D01*
X143109828Y-112193666D01*
X143128876Y-112184142D01*
X143166971Y-112184142D01*
X143186019Y-112193666D01*
X143195542Y-112212714D01*
X143195542Y-112231761D01*
X143100304Y-112250809D01*
X143281257Y-112317476D02*
X143281257Y-112184142D01*
X143281257Y-112222238D02*
X143290780Y-112203190D01*
X143300304Y-112193666D01*
X143319352Y-112184142D01*
X143338400Y-112184142D01*
X143557447Y-112317476D02*
X143557447Y-112184142D01*
X143557447Y-112117476D02*
X143547923Y-112127000D01*
X143557447Y-112136523D01*
X143566971Y-112127000D01*
X143557447Y-112117476D01*
X143557447Y-112136523D01*
X143643161Y-112307952D02*
X143662209Y-112317476D01*
X143700304Y-112317476D01*
X143719352Y-112307952D01*
X143728876Y-112288904D01*
X143728876Y-112279380D01*
X143719352Y-112260333D01*
X143700304Y-112250809D01*
X143671733Y-112250809D01*
X143652685Y-112241285D01*
X143643161Y-112222238D01*
X143643161Y-112212714D01*
X143652685Y-112193666D01*
X143671733Y-112184142D01*
X143700304Y-112184142D01*
X143719352Y-112193666D01*
X143966971Y-112212714D02*
X144033638Y-112212714D01*
X144062209Y-112317476D02*
X143966971Y-112317476D01*
X143966971Y-112117476D01*
X144062209Y-112117476D01*
X144233638Y-112317476D02*
X144233638Y-112117476D01*
X144233638Y-112307952D02*
X144214590Y-112317476D01*
X144176495Y-112317476D01*
X144157447Y-112307952D01*
X144147923Y-112298428D01*
X144138400Y-112279380D01*
X144138400Y-112222238D01*
X144147923Y-112203190D01*
X144157447Y-112193666D01*
X144176495Y-112184142D01*
X144214590Y-112184142D01*
X144233638Y-112193666D01*
X144414590Y-112184142D02*
X144414590Y-112346047D01*
X144405066Y-112365095D01*
X144395542Y-112374619D01*
X144376495Y-112384142D01*
X144347923Y-112384142D01*
X144328876Y-112374619D01*
X144414590Y-112307952D02*
X144395542Y-112317476D01*
X144357447Y-112317476D01*
X144338400Y-112307952D01*
X144328876Y-112298428D01*
X144319352Y-112279380D01*
X144319352Y-112222238D01*
X144328876Y-112203190D01*
X144338400Y-112193666D01*
X144357447Y-112184142D01*
X144395542Y-112184142D01*
X144414590Y-112193666D01*
X144586019Y-112307952D02*
X144566971Y-112317476D01*
X144528876Y-112317476D01*
X144509828Y-112307952D01*
X144500304Y-112288904D01*
X144500304Y-112212714D01*
X144509828Y-112193666D01*
X144528876Y-112184142D01*
X144566971Y-112184142D01*
X144586019Y-112193666D01*
X144595542Y-112212714D01*
X144595542Y-112231761D01*
X144500304Y-112250809D01*
X144681257Y-112298428D02*
X144690780Y-112307952D01*
X144681257Y-112317476D01*
X144671733Y-112307952D01*
X144681257Y-112298428D01*
X144681257Y-112317476D01*
X144890780Y-112298428D02*
X144881257Y-112307952D01*
X144852685Y-112317476D01*
X144833638Y-112317476D01*
X144805066Y-112307952D01*
X144786019Y-112288904D01*
X144776495Y-112269857D01*
X144766971Y-112231761D01*
X144766971Y-112203190D01*
X144776495Y-112165095D01*
X144786019Y-112146047D01*
X144805066Y-112127000D01*
X144833638Y-112117476D01*
X144852685Y-112117476D01*
X144881257Y-112127000D01*
X144890780Y-112136523D01*
X145062209Y-112184142D02*
X145062209Y-112317476D01*
X144976495Y-112184142D02*
X144976495Y-112288904D01*
X144986019Y-112307952D01*
X145005066Y-112317476D01*
X145033638Y-112317476D01*
X145052685Y-112307952D01*
X145062209Y-112298428D01*
X145128876Y-112184142D02*
X145205066Y-112184142D01*
X145157447Y-112117476D02*
X145157447Y-112288904D01*
X145166971Y-112307952D01*
X145186019Y-112317476D01*
X145205066Y-112317476D01*
X145262209Y-112307952D02*
X145281257Y-112317476D01*
X145319352Y-112317476D01*
X145338400Y-112307952D01*
X145347923Y-112288904D01*
X145347923Y-112279380D01*
X145338400Y-112260333D01*
X145319352Y-112250809D01*
X145290780Y-112250809D01*
X145271733Y-112241285D01*
X145262209Y-112222238D01*
X145262209Y-112212714D01*
X145271733Y-112193666D01*
X145290780Y-112184142D01*
X145319352Y-112184142D01*
X145338400Y-112193666D01*
X145557447Y-112184142D02*
X145633638Y-112184142D01*
X145586019Y-112317476D02*
X145586019Y-112146047D01*
X145595542Y-112127000D01*
X145614590Y-112117476D01*
X145633638Y-112117476D01*
X145728876Y-112317476D02*
X145709828Y-112307952D01*
X145700304Y-112298428D01*
X145690780Y-112279380D01*
X145690780Y-112222238D01*
X145700304Y-112203190D01*
X145709828Y-112193666D01*
X145728876Y-112184142D01*
X145757447Y-112184142D01*
X145776495Y-112193666D01*
X145786019Y-112203190D01*
X145795542Y-112222238D01*
X145795542Y-112279380D01*
X145786019Y-112298428D01*
X145776495Y-112307952D01*
X145757447Y-112317476D01*
X145728876Y-112317476D01*
X145881257Y-112317476D02*
X145881257Y-112184142D01*
X145881257Y-112222238D02*
X145890780Y-112203190D01*
X145900304Y-112193666D01*
X145919352Y-112184142D01*
X145938400Y-112184142D01*
X146243161Y-112184142D02*
X146243161Y-112317476D01*
X146157447Y-112184142D02*
X146157447Y-112288904D01*
X146166971Y-112307952D01*
X146186019Y-112317476D01*
X146214590Y-112317476D01*
X146233638Y-112307952D01*
X146243161Y-112298428D01*
X146328876Y-112307952D02*
X146347923Y-112317476D01*
X146386019Y-112317476D01*
X146405066Y-112307952D01*
X146414590Y-112288904D01*
X146414590Y-112279380D01*
X146405066Y-112260333D01*
X146386019Y-112250809D01*
X146357447Y-112250809D01*
X146338400Y-112241285D01*
X146328876Y-112222238D01*
X146328876Y-112212714D01*
X146338400Y-112193666D01*
X146357447Y-112184142D01*
X146386019Y-112184142D01*
X146405066Y-112193666D01*
X146576495Y-112307952D02*
X146557447Y-112317476D01*
X146519352Y-112317476D01*
X146500304Y-112307952D01*
X146490780Y-112288904D01*
X146490780Y-112212714D01*
X146500304Y-112193666D01*
X146519352Y-112184142D01*
X146557447Y-112184142D01*
X146576495Y-112193666D01*
X146586019Y-112212714D01*
X146586019Y-112231761D01*
X146490780Y-112250809D01*
X146805066Y-112184142D02*
X146843161Y-112317476D01*
X146881257Y-112222238D01*
X146919352Y-112317476D01*
X146957447Y-112184142D01*
X147033638Y-112317476D02*
X147033638Y-112184142D01*
X147033638Y-112117476D02*
X147024114Y-112127000D01*
X147033638Y-112136523D01*
X147043161Y-112127000D01*
X147033638Y-112117476D01*
X147033638Y-112136523D01*
X147100304Y-112184142D02*
X147176495Y-112184142D01*
X147128876Y-112117476D02*
X147128876Y-112288904D01*
X147138400Y-112307952D01*
X147157447Y-112317476D01*
X147176495Y-112317476D01*
X147243161Y-112317476D02*
X147243161Y-112117476D01*
X147328876Y-112317476D02*
X147328876Y-112212714D01*
X147319352Y-112193666D01*
X147300304Y-112184142D01*
X147271733Y-112184142D01*
X147252685Y-112193666D01*
X147243161Y-112203190D01*
X147566971Y-112117476D02*
X147566971Y-112155571D01*
X147643161Y-112117476D02*
X147643161Y-112155571D01*
X147728876Y-112184142D02*
X147728876Y-112384142D01*
X147728876Y-112193666D02*
X147747923Y-112184142D01*
X147786019Y-112184142D01*
X147805066Y-112193666D01*
X147814590Y-112203190D01*
X147824114Y-112222238D01*
X147824114Y-112279380D01*
X147814590Y-112298428D01*
X147805066Y-112307952D01*
X147786019Y-112317476D01*
X147747923Y-112317476D01*
X147728876Y-112307952D01*
X147995542Y-112307952D02*
X147976495Y-112317476D01*
X147938400Y-112317476D01*
X147919352Y-112307952D01*
X147909828Y-112298428D01*
X147900304Y-112279380D01*
X147900304Y-112222238D01*
X147909828Y-112203190D01*
X147919352Y-112193666D01*
X147938400Y-112184142D01*
X147976495Y-112184142D01*
X147995542Y-112193666D01*
X148081257Y-112317476D02*
X148081257Y-112117476D01*
X148081257Y-112193666D02*
X148100304Y-112184142D01*
X148138400Y-112184142D01*
X148157447Y-112193666D01*
X148166971Y-112203190D01*
X148176495Y-112222238D01*
X148176495Y-112279380D01*
X148166971Y-112298428D01*
X148157447Y-112307952D01*
X148138400Y-112317476D01*
X148100304Y-112317476D01*
X148081257Y-112307952D01*
X148252685Y-112136523D02*
X148262209Y-112127000D01*
X148281257Y-112117476D01*
X148328876Y-112117476D01*
X148347923Y-112127000D01*
X148357447Y-112136523D01*
X148366971Y-112155571D01*
X148366971Y-112174619D01*
X148357447Y-112203190D01*
X148243161Y-112317476D01*
X148366971Y-112317476D01*
X148452685Y-112317476D02*
X148452685Y-112184142D01*
X148452685Y-112203190D02*
X148462209Y-112193666D01*
X148481257Y-112184142D01*
X148509828Y-112184142D01*
X148528876Y-112193666D01*
X148538400Y-112212714D01*
X148538400Y-112317476D01*
X148538400Y-112212714D02*
X148547923Y-112193666D01*
X148566971Y-112184142D01*
X148595542Y-112184142D01*
X148614590Y-112193666D01*
X148624114Y-112212714D01*
X148624114Y-112317476D01*
X148747923Y-112317476D02*
X148728876Y-112307952D01*
X148719352Y-112298428D01*
X148709828Y-112279380D01*
X148709828Y-112222238D01*
X148719352Y-112203190D01*
X148728876Y-112193666D01*
X148747923Y-112184142D01*
X148776495Y-112184142D01*
X148795542Y-112193666D01*
X148805066Y-112203190D01*
X148814590Y-112222238D01*
X148814590Y-112279380D01*
X148805066Y-112298428D01*
X148795542Y-112307952D01*
X148776495Y-112317476D01*
X148747923Y-112317476D01*
X148928876Y-112317476D02*
X148909828Y-112307952D01*
X148900304Y-112288904D01*
X148900304Y-112117476D01*
X149081257Y-112307952D02*
X149062209Y-112317476D01*
X149024114Y-112317476D01*
X149005066Y-112307952D01*
X148995542Y-112288904D01*
X148995542Y-112212714D01*
X149005066Y-112193666D01*
X149024114Y-112184142D01*
X149062209Y-112184142D01*
X149081257Y-112193666D01*
X149090780Y-112212714D01*
X149090780Y-112231761D01*
X148995542Y-112250809D01*
X149157447Y-112317476D02*
X149262209Y-112184142D01*
X149157447Y-112184142D02*
X149262209Y-112317476D01*
X149366971Y-112203190D02*
X149347923Y-112193666D01*
X149338400Y-112184142D01*
X149328876Y-112165095D01*
X149328876Y-112155571D01*
X149338400Y-112136523D01*
X149347923Y-112127000D01*
X149366971Y-112117476D01*
X149405066Y-112117476D01*
X149424114Y-112127000D01*
X149433638Y-112136523D01*
X149443161Y-112155571D01*
X149443161Y-112165095D01*
X149433638Y-112184142D01*
X149424114Y-112193666D01*
X149405066Y-112203190D01*
X149366971Y-112203190D01*
X149347923Y-112212714D01*
X149338400Y-112222238D01*
X149328876Y-112241285D01*
X149328876Y-112279380D01*
X149338400Y-112298428D01*
X149347923Y-112307952D01*
X149366971Y-112317476D01*
X149405066Y-112317476D01*
X149424114Y-112307952D01*
X149433638Y-112298428D01*
X149443161Y-112279380D01*
X149443161Y-112241285D01*
X149433638Y-112222238D01*
X149424114Y-112212714D01*
X149405066Y-112203190D01*
X149557447Y-112203190D02*
X149538400Y-112193666D01*
X149528876Y-112184142D01*
X149519352Y-112165095D01*
X149519352Y-112155571D01*
X149528876Y-112136523D01*
X149538400Y-112127000D01*
X149557447Y-112117476D01*
X149595542Y-112117476D01*
X149614590Y-112127000D01*
X149624114Y-112136523D01*
X149633638Y-112155571D01*
X149633638Y-112165095D01*
X149624114Y-112184142D01*
X149614590Y-112193666D01*
X149595542Y-112203190D01*
X149557447Y-112203190D01*
X149538400Y-112212714D01*
X149528876Y-112222238D01*
X149519352Y-112241285D01*
X149519352Y-112279380D01*
X149528876Y-112298428D01*
X149538400Y-112307952D01*
X149557447Y-112317476D01*
X149595542Y-112317476D01*
X149614590Y-112307952D01*
X149624114Y-112298428D01*
X149633638Y-112279380D01*
X149633638Y-112241285D01*
X149624114Y-112222238D01*
X149614590Y-112212714D01*
X149595542Y-112203190D01*
X149700304Y-112117476D02*
X149833638Y-112117476D01*
X149747923Y-112317476D01*
X149938400Y-112203190D02*
X149919352Y-112193666D01*
X149909828Y-112184142D01*
X149900304Y-112165095D01*
X149900304Y-112155571D01*
X149909828Y-112136523D01*
X149919352Y-112127000D01*
X149938400Y-112117476D01*
X149976495Y-112117476D01*
X149995542Y-112127000D01*
X150005066Y-112136523D01*
X150014590Y-112155571D01*
X150014590Y-112165095D01*
X150005066Y-112184142D01*
X149995542Y-112193666D01*
X149976495Y-112203190D01*
X149938400Y-112203190D01*
X149919352Y-112212714D01*
X149909828Y-112222238D01*
X149900304Y-112241285D01*
X149900304Y-112279380D01*
X149909828Y-112298428D01*
X149919352Y-112307952D01*
X149938400Y-112317476D01*
X149976495Y-112317476D01*
X149995542Y-112307952D01*
X150005066Y-112298428D01*
X150014590Y-112279380D01*
X150014590Y-112241285D01*
X150005066Y-112222238D01*
X149995542Y-112212714D01*
X149976495Y-112203190D01*
X150052685Y-112336523D02*
X150205066Y-112336523D01*
X150252685Y-112317476D02*
X150252685Y-112184142D01*
X150252685Y-112203190D02*
X150262209Y-112193666D01*
X150281257Y-112184142D01*
X150309828Y-112184142D01*
X150328876Y-112193666D01*
X150338400Y-112212714D01*
X150338400Y-112317476D01*
X150338400Y-112212714D02*
X150347923Y-112193666D01*
X150366971Y-112184142D01*
X150395542Y-112184142D01*
X150414590Y-112193666D01*
X150424114Y-112212714D01*
X150424114Y-112317476D01*
X150605066Y-112317476D02*
X150605066Y-112212714D01*
X150595542Y-112193666D01*
X150576495Y-112184142D01*
X150538400Y-112184142D01*
X150519352Y-112193666D01*
X150605066Y-112307952D02*
X150586019Y-112317476D01*
X150538400Y-112317476D01*
X150519352Y-112307952D01*
X150509828Y-112288904D01*
X150509828Y-112269857D01*
X150519352Y-112250809D01*
X150538400Y-112241285D01*
X150586019Y-112241285D01*
X150605066Y-112231761D01*
X150681257Y-112317476D02*
X150786019Y-112184142D01*
X150681257Y-112184142D02*
X150786019Y-112317476D01*
X150852685Y-112117476D02*
X150852685Y-112155571D01*
X150928876Y-112117476D02*
X150928876Y-112155571D01*
X151252685Y-112307952D02*
X151233638Y-112317476D01*
X151195542Y-112317476D01*
X151176495Y-112307952D01*
X151166971Y-112298428D01*
X151157447Y-112279380D01*
X151157447Y-112222238D01*
X151166971Y-112203190D01*
X151176495Y-112193666D01*
X151195542Y-112184142D01*
X151233638Y-112184142D01*
X151252685Y-112193666D01*
X151424114Y-112317476D02*
X151424114Y-112212714D01*
X151414590Y-112193666D01*
X151395542Y-112184142D01*
X151357447Y-112184142D01*
X151338400Y-112193666D01*
X151424114Y-112307952D02*
X151405066Y-112317476D01*
X151357447Y-112317476D01*
X151338400Y-112307952D01*
X151328876Y-112288904D01*
X151328876Y-112269857D01*
X151338400Y-112250809D01*
X151357447Y-112241285D01*
X151405066Y-112241285D01*
X151424114Y-112231761D01*
X151519352Y-112317476D02*
X151519352Y-112184142D01*
X151519352Y-112222238D02*
X151528876Y-112203190D01*
X151538400Y-112193666D01*
X151557447Y-112184142D01*
X151576495Y-112184142D01*
X151643161Y-112317476D02*
X151643161Y-112184142D01*
X151643161Y-112222238D02*
X151652685Y-112203190D01*
X151662209Y-112193666D01*
X151681257Y-112184142D01*
X151700304Y-112184142D01*
X151766971Y-112317476D02*
X151766971Y-112184142D01*
X151766971Y-112117476D02*
X151757447Y-112127000D01*
X151766971Y-112136523D01*
X151776495Y-112127000D01*
X151766971Y-112117476D01*
X151766971Y-112136523D01*
X151938400Y-112307952D02*
X151919352Y-112317476D01*
X151881257Y-112317476D01*
X151862209Y-112307952D01*
X151852685Y-112288904D01*
X151852685Y-112212714D01*
X151862209Y-112193666D01*
X151881257Y-112184142D01*
X151919352Y-112184142D01*
X151938400Y-112193666D01*
X151947923Y-112212714D01*
X151947923Y-112231761D01*
X151852685Y-112250809D01*
X152033638Y-112317476D02*
X152033638Y-112184142D01*
X152033638Y-112222238D02*
X152043161Y-112203190D01*
X152052685Y-112193666D01*
X152071733Y-112184142D01*
X152090780Y-112184142D01*
X152157447Y-112298428D02*
X152166971Y-112307952D01*
X152157447Y-112317476D01*
X152147923Y-112307952D01*
X152157447Y-112298428D01*
X152157447Y-112317476D01*
M02*
