G04 #@! TF.GenerationSoftware,KiCad,Pcbnew,5.1.4-e60b266~84~ubuntu19.04.1*
G04 #@! TF.CreationDate,2019-11-07T13:35:29-05:00*
G04 #@! TF.ProjectId,pcb2molex8878_max,70636232-6d6f-46c6-9578-383837385f6d,rev?*
G04 #@! TF.SameCoordinates,Original*
G04 #@! TF.FileFunction,Drawing*
%FSLAX46Y46*%
G04 Gerber Fmt 4.6, Leading zero omitted, Abs format (unit mm)*
G04 Created by KiCad (PCBNEW 5.1.4-e60b266~84~ubuntu19.04.1) date 2019-11-07 13:35:29*
%MOMM*%
%LPD*%
G04 APERTURE LIST*
%ADD10C,0.012700*%
%ADD11C,0.020000*%
%ADD12C,0.001000*%
%ADD13C,0.010000*%
G04 APERTURE END LIST*
D10*
X149123230Y-76897571D02*
X149145002Y-76875800D01*
X149188545Y-76854028D01*
X149297402Y-76854028D01*
X149340945Y-76875800D01*
X149362716Y-76897571D01*
X149384487Y-76941114D01*
X149384487Y-76984657D01*
X149362716Y-77049971D01*
X149101459Y-77311228D01*
X149384487Y-77311228D01*
X149580430Y-77267685D02*
X149602202Y-77289457D01*
X149580430Y-77311228D01*
X149558659Y-77289457D01*
X149580430Y-77267685D01*
X149580430Y-77311228D01*
X149885230Y-76854028D02*
X149928773Y-76854028D01*
X149972316Y-76875800D01*
X149994087Y-76897571D01*
X150015859Y-76941114D01*
X150037630Y-77028200D01*
X150037630Y-77137057D01*
X150015859Y-77224142D01*
X149994087Y-77267685D01*
X149972316Y-77289457D01*
X149928773Y-77311228D01*
X149885230Y-77311228D01*
X149841687Y-77289457D01*
X149819916Y-77267685D01*
X149798145Y-77224142D01*
X149776373Y-77137057D01*
X149776373Y-77028200D01*
X149798145Y-76941114D01*
X149819916Y-76897571D01*
X149841687Y-76875800D01*
X149885230Y-76854028D01*
X150320659Y-76854028D02*
X150364202Y-76854028D01*
X150407745Y-76875800D01*
X150429516Y-76897571D01*
X150451287Y-76941114D01*
X150473059Y-77028200D01*
X150473059Y-77137057D01*
X150451287Y-77224142D01*
X150429516Y-77267685D01*
X150407745Y-77289457D01*
X150364202Y-77311228D01*
X150320659Y-77311228D01*
X150277116Y-77289457D01*
X150255345Y-77267685D01*
X150233573Y-77224142D01*
X150211802Y-77137057D01*
X150211802Y-77028200D01*
X150233573Y-76941114D01*
X150255345Y-76897571D01*
X150277116Y-76875800D01*
X150320659Y-76854028D01*
X149568400Y-77587000D02*
X151568400Y-77587000D01*
X149568400Y-79287000D02*
X149568400Y-77000579D01*
X151568400Y-79287000D02*
X151568400Y-77000579D01*
X151568400Y-77587000D02*
X150441896Y-78173421D01*
X151568400Y-77587000D02*
X150441896Y-77000579D01*
X149568400Y-77587000D02*
X150694904Y-78173421D01*
X149568400Y-77587000D02*
X150694904Y-77000579D01*
X151123230Y-81912771D02*
X151145002Y-81891000D01*
X151188545Y-81869228D01*
X151297402Y-81869228D01*
X151340945Y-81891000D01*
X151362716Y-81912771D01*
X151384487Y-81956314D01*
X151384487Y-81999857D01*
X151362716Y-82065171D01*
X151101459Y-82326428D01*
X151384487Y-82326428D01*
X151580430Y-82282885D02*
X151602202Y-82304657D01*
X151580430Y-82326428D01*
X151558659Y-82304657D01*
X151580430Y-82282885D01*
X151580430Y-82326428D01*
X151885230Y-81869228D02*
X151928773Y-81869228D01*
X151972316Y-81891000D01*
X151994087Y-81912771D01*
X152015859Y-81956314D01*
X152037630Y-82043400D01*
X152037630Y-82152257D01*
X152015859Y-82239342D01*
X151994087Y-82282885D01*
X151972316Y-82304657D01*
X151928773Y-82326428D01*
X151885230Y-82326428D01*
X151841687Y-82304657D01*
X151819916Y-82282885D01*
X151798145Y-82239342D01*
X151776373Y-82152257D01*
X151776373Y-82043400D01*
X151798145Y-81956314D01*
X151819916Y-81912771D01*
X151841687Y-81891000D01*
X151885230Y-81869228D01*
X152320659Y-81869228D02*
X152364202Y-81869228D01*
X152407745Y-81891000D01*
X152429516Y-81912771D01*
X152451287Y-81956314D01*
X152473059Y-82043400D01*
X152473059Y-82152257D01*
X152451287Y-82239342D01*
X152429516Y-82282885D01*
X152407745Y-82304657D01*
X152364202Y-82326428D01*
X152320659Y-82326428D01*
X152277116Y-82304657D01*
X152255345Y-82282885D01*
X152233573Y-82239342D01*
X152211802Y-82152257D01*
X152211802Y-82043400D01*
X152233573Y-81956314D01*
X152255345Y-81912771D01*
X152277116Y-81891000D01*
X152320659Y-81869228D01*
X151568400Y-81637000D02*
X153568400Y-81637000D01*
X151568400Y-80087000D02*
X151568400Y-82223421D01*
X153568400Y-80087000D02*
X153568400Y-82223421D01*
X153568400Y-81637000D02*
X152441896Y-82223421D01*
X153568400Y-81637000D02*
X152441896Y-81050579D01*
X151568400Y-81637000D02*
X152694904Y-82223421D01*
X151568400Y-81637000D02*
X152694904Y-81050579D01*
X152428400Y-80087000D02*
G75*
G02X151568402Y-79284910I1J862089D01*
G01*
X149566315Y-79286855D02*
G75*
G02X148708400Y-80087000I-857915J59855D01*
G01*
X148218400Y-119087000D02*
G75*
G02X149076315Y-118286855I857915J-59855D01*
G01*
X145358400Y-118287000D02*
G75*
G02X146218398Y-119089090I-1J-862089D01*
G01*
D11*
X141418400Y-118487000D02*
X141668400Y-118487000D01*
X141418400Y-118487000D02*
X141418400Y-118737000D01*
X141418400Y-118487000D02*
X142318400Y-119387000D01*
D10*
X141294028Y-115793828D02*
X141294028Y-115489028D01*
X141294028Y-115532571D02*
X141315800Y-115510800D01*
X141359342Y-115489028D01*
X141424657Y-115489028D01*
X141468200Y-115510800D01*
X141489971Y-115554342D01*
X141489971Y-115793828D01*
X141489971Y-115554342D02*
X141511742Y-115510800D01*
X141555285Y-115489028D01*
X141620600Y-115489028D01*
X141664142Y-115510800D01*
X141685914Y-115554342D01*
X141685914Y-115793828D01*
X141903628Y-115793828D02*
X141903628Y-115489028D01*
X141903628Y-115336628D02*
X141881857Y-115358400D01*
X141903628Y-115380171D01*
X141925400Y-115358400D01*
X141903628Y-115336628D01*
X141903628Y-115380171D01*
X142186657Y-115793828D02*
X142143114Y-115772057D01*
X142121342Y-115728514D01*
X142121342Y-115336628D01*
X142426142Y-115793828D02*
X142382600Y-115772057D01*
X142360828Y-115728514D01*
X142360828Y-115336628D01*
X142948657Y-115793828D02*
X142948657Y-115489028D01*
X142948657Y-115576114D02*
X142970428Y-115532571D01*
X142992200Y-115510800D01*
X143035742Y-115489028D01*
X143079285Y-115489028D01*
X143427628Y-115793828D02*
X143427628Y-115554342D01*
X143405857Y-115510800D01*
X143362314Y-115489028D01*
X143275228Y-115489028D01*
X143231685Y-115510800D01*
X143427628Y-115772057D02*
X143384085Y-115793828D01*
X143275228Y-115793828D01*
X143231685Y-115772057D01*
X143209914Y-115728514D01*
X143209914Y-115684971D01*
X143231685Y-115641428D01*
X143275228Y-115619657D01*
X143384085Y-115619657D01*
X143427628Y-115597885D01*
X143841285Y-115793828D02*
X143841285Y-115336628D01*
X143841285Y-115772057D02*
X143797742Y-115793828D01*
X143710657Y-115793828D01*
X143667114Y-115772057D01*
X143645342Y-115750285D01*
X143623571Y-115706742D01*
X143623571Y-115576114D01*
X143645342Y-115532571D01*
X143667114Y-115510800D01*
X143710657Y-115489028D01*
X143797742Y-115489028D01*
X143841285Y-115510800D01*
X144059000Y-115793828D02*
X144059000Y-115489028D01*
X144059000Y-115336628D02*
X144037228Y-115358400D01*
X144059000Y-115380171D01*
X144080771Y-115358400D01*
X144059000Y-115336628D01*
X144059000Y-115380171D01*
X144472657Y-115489028D02*
X144472657Y-115793828D01*
X144276714Y-115489028D02*
X144276714Y-115728514D01*
X144298485Y-115772057D01*
X144342028Y-115793828D01*
X144407342Y-115793828D01*
X144450885Y-115772057D01*
X144472657Y-115750285D01*
X144668600Y-115772057D02*
X144712142Y-115793828D01*
X144799228Y-115793828D01*
X144842771Y-115772057D01*
X144864542Y-115728514D01*
X144864542Y-115706742D01*
X144842771Y-115663200D01*
X144799228Y-115641428D01*
X144733914Y-115641428D01*
X144690371Y-115619657D01*
X144668600Y-115576114D01*
X144668600Y-115554342D01*
X144690371Y-115510800D01*
X144733914Y-115489028D01*
X144799228Y-115489028D01*
X144842771Y-115510800D01*
X141385066Y-119977476D02*
X141385066Y-119872714D01*
X141375542Y-119853666D01*
X141356495Y-119844142D01*
X141318400Y-119844142D01*
X141299352Y-119853666D01*
X141385066Y-119967952D02*
X141366019Y-119977476D01*
X141318400Y-119977476D01*
X141299352Y-119967952D01*
X141289828Y-119948904D01*
X141289828Y-119929857D01*
X141299352Y-119910809D01*
X141318400Y-119901285D01*
X141366019Y-119901285D01*
X141385066Y-119891761D01*
X141451733Y-119844142D02*
X141527923Y-119844142D01*
X141480304Y-119977476D02*
X141480304Y-119806047D01*
X141489828Y-119787000D01*
X141508876Y-119777476D01*
X141527923Y-119777476D01*
X141566019Y-119844142D02*
X141642209Y-119844142D01*
X141594590Y-119777476D02*
X141594590Y-119948904D01*
X141604114Y-119967952D01*
X141623161Y-119977476D01*
X141642209Y-119977476D01*
X141785066Y-119967952D02*
X141766019Y-119977476D01*
X141727923Y-119977476D01*
X141708876Y-119967952D01*
X141699352Y-119948904D01*
X141699352Y-119872714D01*
X141708876Y-119853666D01*
X141727923Y-119844142D01*
X141766019Y-119844142D01*
X141785066Y-119853666D01*
X141794590Y-119872714D01*
X141794590Y-119891761D01*
X141699352Y-119910809D01*
X141880304Y-119977476D02*
X141880304Y-119844142D01*
X141880304Y-119882238D02*
X141889828Y-119863190D01*
X141899352Y-119853666D01*
X141918400Y-119844142D01*
X141937447Y-119844142D01*
X142242209Y-119977476D02*
X142242209Y-119777476D01*
X142242209Y-119967952D02*
X142223161Y-119977476D01*
X142185066Y-119977476D01*
X142166019Y-119967952D01*
X142156495Y-119958428D01*
X142146971Y-119939380D01*
X142146971Y-119882238D01*
X142156495Y-119863190D01*
X142166019Y-119853666D01*
X142185066Y-119844142D01*
X142223161Y-119844142D01*
X142242209Y-119853666D01*
X142337447Y-119977476D02*
X142337447Y-119844142D01*
X142337447Y-119882238D02*
X142346971Y-119863190D01*
X142356495Y-119853666D01*
X142375542Y-119844142D01*
X142394590Y-119844142D01*
X142461257Y-119977476D02*
X142461257Y-119844142D01*
X142461257Y-119777476D02*
X142451733Y-119787000D01*
X142461257Y-119796523D01*
X142470780Y-119787000D01*
X142461257Y-119777476D01*
X142461257Y-119796523D01*
X142585066Y-119977476D02*
X142566019Y-119967952D01*
X142556495Y-119948904D01*
X142556495Y-119777476D01*
X142689828Y-119977476D02*
X142670780Y-119967952D01*
X142661257Y-119948904D01*
X142661257Y-119777476D01*
X143080304Y-119977476D02*
X143070780Y-119977476D01*
X143051733Y-119967952D01*
X143023161Y-119939380D01*
X142975542Y-119882238D01*
X142956495Y-119853666D01*
X142946971Y-119825095D01*
X142946971Y-119806047D01*
X142956495Y-119787000D01*
X142975542Y-119777476D01*
X142985066Y-119777476D01*
X143004114Y-119787000D01*
X143013638Y-119806047D01*
X143013638Y-119815571D01*
X143004114Y-119834619D01*
X142994590Y-119844142D01*
X142937447Y-119882238D01*
X142927923Y-119891761D01*
X142918400Y-119910809D01*
X142918400Y-119939380D01*
X142927923Y-119958428D01*
X142937447Y-119967952D01*
X142956495Y-119977476D01*
X142985066Y-119977476D01*
X143004114Y-119967952D01*
X143013638Y-119958428D01*
X143042209Y-119920333D01*
X143051733Y-119891761D01*
X143051733Y-119872714D01*
X143318400Y-119977476D02*
X143318400Y-119844142D01*
X143318400Y-119863190D02*
X143327923Y-119853666D01*
X143346971Y-119844142D01*
X143375542Y-119844142D01*
X143394590Y-119853666D01*
X143404114Y-119872714D01*
X143404114Y-119977476D01*
X143404114Y-119872714D02*
X143413638Y-119853666D01*
X143432685Y-119844142D01*
X143461257Y-119844142D01*
X143480304Y-119853666D01*
X143489828Y-119872714D01*
X143489828Y-119977476D01*
X143585066Y-119977476D02*
X143585066Y-119844142D01*
X143585066Y-119777476D02*
X143575542Y-119787000D01*
X143585066Y-119796523D01*
X143594590Y-119787000D01*
X143585066Y-119777476D01*
X143585066Y-119796523D01*
X143708876Y-119977476D02*
X143689828Y-119967952D01*
X143680304Y-119948904D01*
X143680304Y-119777476D01*
X143813638Y-119977476D02*
X143794590Y-119967952D01*
X143785066Y-119948904D01*
X143785066Y-119777476D01*
X143899352Y-119967952D02*
X143899352Y-119977476D01*
X143889828Y-119996523D01*
X143880304Y-120006047D01*
X144223161Y-119977476D02*
X144223161Y-119872714D01*
X144213638Y-119853666D01*
X144194590Y-119844142D01*
X144156495Y-119844142D01*
X144137447Y-119853666D01*
X144223161Y-119967952D02*
X144204114Y-119977476D01*
X144156495Y-119977476D01*
X144137447Y-119967952D01*
X144127923Y-119948904D01*
X144127923Y-119929857D01*
X144137447Y-119910809D01*
X144156495Y-119901285D01*
X144204114Y-119901285D01*
X144223161Y-119891761D01*
X144346971Y-119977476D02*
X144327923Y-119967952D01*
X144318400Y-119948904D01*
X144318400Y-119777476D01*
X144451733Y-119977476D02*
X144432685Y-119967952D01*
X144423161Y-119948904D01*
X144423161Y-119777476D01*
X144680304Y-119977476D02*
X144680304Y-119844142D01*
X144680304Y-119777476D02*
X144670780Y-119787000D01*
X144680304Y-119796523D01*
X144689828Y-119787000D01*
X144680304Y-119777476D01*
X144680304Y-119796523D01*
X144775542Y-119844142D02*
X144775542Y-119977476D01*
X144775542Y-119863190D02*
X144785066Y-119853666D01*
X144804114Y-119844142D01*
X144832685Y-119844142D01*
X144851733Y-119853666D01*
X144861257Y-119872714D01*
X144861257Y-119977476D01*
X144946971Y-119967952D02*
X144966019Y-119977476D01*
X145004114Y-119977476D01*
X145023161Y-119967952D01*
X145032685Y-119948904D01*
X145032685Y-119939380D01*
X145023161Y-119920333D01*
X145004114Y-119910809D01*
X144975542Y-119910809D01*
X144956495Y-119901285D01*
X144946971Y-119882238D01*
X144946971Y-119872714D01*
X144956495Y-119853666D01*
X144975542Y-119844142D01*
X145004114Y-119844142D01*
X145023161Y-119853666D01*
X145118400Y-119977476D02*
X145118400Y-119844142D01*
X145118400Y-119777476D02*
X145108876Y-119787000D01*
X145118400Y-119796523D01*
X145127923Y-119787000D01*
X145118400Y-119777476D01*
X145118400Y-119796523D01*
X145299352Y-119977476D02*
X145299352Y-119777476D01*
X145299352Y-119967952D02*
X145280304Y-119977476D01*
X145242209Y-119977476D01*
X145223161Y-119967952D01*
X145213638Y-119958428D01*
X145204114Y-119939380D01*
X145204114Y-119882238D01*
X145213638Y-119863190D01*
X145223161Y-119853666D01*
X145242209Y-119844142D01*
X145280304Y-119844142D01*
X145299352Y-119853666D01*
X145470780Y-119967952D02*
X145451733Y-119977476D01*
X145413638Y-119977476D01*
X145394590Y-119967952D01*
X145385066Y-119948904D01*
X145385066Y-119872714D01*
X145394590Y-119853666D01*
X145413638Y-119844142D01*
X145451733Y-119844142D01*
X145470780Y-119853666D01*
X145480304Y-119872714D01*
X145480304Y-119891761D01*
X145385066Y-119910809D01*
X145804114Y-119967952D02*
X145785066Y-119977476D01*
X145746971Y-119977476D01*
X145727923Y-119967952D01*
X145718400Y-119958428D01*
X145708876Y-119939380D01*
X145708876Y-119882238D01*
X145718400Y-119863190D01*
X145727923Y-119853666D01*
X145746971Y-119844142D01*
X145785066Y-119844142D01*
X145804114Y-119853666D01*
X145918400Y-119977476D02*
X145899352Y-119967952D01*
X145889828Y-119958428D01*
X145880304Y-119939380D01*
X145880304Y-119882238D01*
X145889828Y-119863190D01*
X145899352Y-119853666D01*
X145918400Y-119844142D01*
X145946971Y-119844142D01*
X145966019Y-119853666D01*
X145975542Y-119863190D01*
X145985066Y-119882238D01*
X145985066Y-119939380D01*
X145975542Y-119958428D01*
X145966019Y-119967952D01*
X145946971Y-119977476D01*
X145918400Y-119977476D01*
X146070780Y-119977476D02*
X146070780Y-119844142D01*
X146070780Y-119882238D02*
X146080304Y-119863190D01*
X146089828Y-119853666D01*
X146108876Y-119844142D01*
X146127923Y-119844142D01*
X146194590Y-119844142D02*
X146194590Y-119977476D01*
X146194590Y-119863190D02*
X146204114Y-119853666D01*
X146223161Y-119844142D01*
X146251733Y-119844142D01*
X146270780Y-119853666D01*
X146280304Y-119872714D01*
X146280304Y-119977476D01*
X146451733Y-119967952D02*
X146432685Y-119977476D01*
X146394590Y-119977476D01*
X146375542Y-119967952D01*
X146366019Y-119948904D01*
X146366019Y-119872714D01*
X146375542Y-119853666D01*
X146394590Y-119844142D01*
X146432685Y-119844142D01*
X146451733Y-119853666D01*
X146461257Y-119872714D01*
X146461257Y-119891761D01*
X146366019Y-119910809D01*
X146546971Y-119977476D02*
X146546971Y-119844142D01*
X146546971Y-119882238D02*
X146556495Y-119863190D01*
X146566019Y-119853666D01*
X146585066Y-119844142D01*
X146604114Y-119844142D01*
X146661257Y-119967952D02*
X146680304Y-119977476D01*
X146718400Y-119977476D01*
X146737447Y-119967952D01*
X146746971Y-119948904D01*
X146746971Y-119939380D01*
X146737447Y-119920333D01*
X146718400Y-119910809D01*
X146689828Y-119910809D01*
X146670780Y-119901285D01*
X146661257Y-119882238D01*
X146661257Y-119872714D01*
X146670780Y-119853666D01*
X146689828Y-119844142D01*
X146718400Y-119844142D01*
X146737447Y-119853666D01*
X143619854Y-76356428D02*
X143619854Y-76661228D01*
X143510996Y-76182257D02*
X143402139Y-76508828D01*
X143685168Y-76508828D01*
X143859339Y-76617685D02*
X143881111Y-76639457D01*
X143859339Y-76661228D01*
X143837568Y-76639457D01*
X143859339Y-76617685D01*
X143859339Y-76661228D01*
X144164139Y-76204028D02*
X144207682Y-76204028D01*
X144251225Y-76225800D01*
X144272996Y-76247571D01*
X144294768Y-76291114D01*
X144316539Y-76378200D01*
X144316539Y-76487057D01*
X144294768Y-76574142D01*
X144272996Y-76617685D01*
X144251225Y-76639457D01*
X144207682Y-76661228D01*
X144164139Y-76661228D01*
X144120596Y-76639457D01*
X144098825Y-76617685D01*
X144077054Y-76574142D01*
X144055282Y-76487057D01*
X144055282Y-76378200D01*
X144077054Y-76291114D01*
X144098825Y-76247571D01*
X144120596Y-76225800D01*
X144164139Y-76204028D01*
X144599568Y-76204028D02*
X144643111Y-76204028D01*
X144686654Y-76225800D01*
X144708425Y-76247571D01*
X144730196Y-76291114D01*
X144751968Y-76378200D01*
X144751968Y-76487057D01*
X144730196Y-76574142D01*
X144708425Y-76617685D01*
X144686654Y-76639457D01*
X144643111Y-76661228D01*
X144599568Y-76661228D01*
X144556025Y-76639457D01*
X144534254Y-76617685D01*
X144512482Y-76574142D01*
X144490711Y-76487057D01*
X144490711Y-76378200D01*
X144512482Y-76291114D01*
X144534254Y-76247571D01*
X144556025Y-76225800D01*
X144599568Y-76204028D01*
X138868399Y-76937001D02*
X142868400Y-76937000D01*
X138868400Y-79287000D02*
X138868399Y-76350580D01*
X142868401Y-79286999D02*
X142868400Y-76350579D01*
X142868400Y-76937000D02*
X141741896Y-77523421D01*
X142868400Y-76937000D02*
X141741896Y-76350580D01*
X138868399Y-76937001D02*
X139994903Y-77523421D01*
X138868399Y-76937001D02*
X139994903Y-76350580D01*
X141332685Y-119494142D02*
X141332685Y-119694142D01*
X141332685Y-119503666D02*
X141351733Y-119494142D01*
X141389828Y-119494142D01*
X141408876Y-119503666D01*
X141418400Y-119513190D01*
X141427923Y-119532238D01*
X141427923Y-119589380D01*
X141418400Y-119608428D01*
X141408876Y-119617952D01*
X141389828Y-119627476D01*
X141351733Y-119627476D01*
X141332685Y-119617952D01*
X141599352Y-119627476D02*
X141599352Y-119522714D01*
X141589828Y-119503666D01*
X141570780Y-119494142D01*
X141532685Y-119494142D01*
X141513638Y-119503666D01*
X141599352Y-119617952D02*
X141580304Y-119627476D01*
X141532685Y-119627476D01*
X141513638Y-119617952D01*
X141504114Y-119598904D01*
X141504114Y-119579857D01*
X141513638Y-119560809D01*
X141532685Y-119551285D01*
X141580304Y-119551285D01*
X141599352Y-119541761D01*
X141694590Y-119627476D02*
X141694590Y-119494142D01*
X141694590Y-119532238D02*
X141704114Y-119513190D01*
X141713638Y-119503666D01*
X141732685Y-119494142D01*
X141751733Y-119494142D01*
X141789828Y-119494142D02*
X141866019Y-119494142D01*
X141818400Y-119427476D02*
X141818400Y-119598904D01*
X141827923Y-119617952D01*
X141846971Y-119627476D01*
X141866019Y-119627476D01*
X141932685Y-119627476D02*
X141932685Y-119494142D01*
X141932685Y-119427476D02*
X141923161Y-119437000D01*
X141932685Y-119446523D01*
X141942209Y-119437000D01*
X141932685Y-119427476D01*
X141932685Y-119446523D01*
X142113638Y-119627476D02*
X142113638Y-119522714D01*
X142104114Y-119503666D01*
X142085066Y-119494142D01*
X142046971Y-119494142D01*
X142027923Y-119503666D01*
X142113638Y-119617952D02*
X142094590Y-119627476D01*
X142046971Y-119627476D01*
X142027923Y-119617952D01*
X142018400Y-119598904D01*
X142018400Y-119579857D01*
X142027923Y-119560809D01*
X142046971Y-119551285D01*
X142094590Y-119551285D01*
X142113638Y-119541761D01*
X142237447Y-119627476D02*
X142218400Y-119617952D01*
X142208876Y-119598904D01*
X142208876Y-119427476D01*
X142466019Y-119627476D02*
X142466019Y-119494142D01*
X142466019Y-119513190D02*
X142475542Y-119503666D01*
X142494590Y-119494142D01*
X142523161Y-119494142D01*
X142542209Y-119503666D01*
X142551733Y-119522714D01*
X142551733Y-119627476D01*
X142551733Y-119522714D02*
X142561257Y-119503666D01*
X142580304Y-119494142D01*
X142608876Y-119494142D01*
X142627923Y-119503666D01*
X142637447Y-119522714D01*
X142637447Y-119627476D01*
X142732685Y-119627476D02*
X142732685Y-119494142D01*
X142732685Y-119427476D02*
X142723161Y-119437000D01*
X142732685Y-119446523D01*
X142742209Y-119437000D01*
X142732685Y-119427476D01*
X142732685Y-119446523D01*
X142856495Y-119627476D02*
X142837447Y-119617952D01*
X142827923Y-119598904D01*
X142827923Y-119427476D01*
X142961257Y-119627476D02*
X142942209Y-119617952D01*
X142932685Y-119598904D01*
X142932685Y-119427476D01*
X143189828Y-119627476D02*
X143189828Y-119494142D01*
X143189828Y-119532238D02*
X143199352Y-119513190D01*
X143208876Y-119503666D01*
X143227923Y-119494142D01*
X143246971Y-119494142D01*
X143399352Y-119627476D02*
X143399352Y-119522714D01*
X143389828Y-119503666D01*
X143370780Y-119494142D01*
X143332685Y-119494142D01*
X143313638Y-119503666D01*
X143399352Y-119617952D02*
X143380304Y-119627476D01*
X143332685Y-119627476D01*
X143313638Y-119617952D01*
X143304114Y-119598904D01*
X143304114Y-119579857D01*
X143313638Y-119560809D01*
X143332685Y-119551285D01*
X143380304Y-119551285D01*
X143399352Y-119541761D01*
X143580304Y-119627476D02*
X143580304Y-119427476D01*
X143580304Y-119617952D02*
X143561257Y-119627476D01*
X143523161Y-119627476D01*
X143504114Y-119617952D01*
X143494590Y-119608428D01*
X143485066Y-119589380D01*
X143485066Y-119532238D01*
X143494590Y-119513190D01*
X143504114Y-119503666D01*
X143523161Y-119494142D01*
X143561257Y-119494142D01*
X143580304Y-119503666D01*
X143675542Y-119627476D02*
X143675542Y-119494142D01*
X143675542Y-119427476D02*
X143666019Y-119437000D01*
X143675542Y-119446523D01*
X143685066Y-119437000D01*
X143675542Y-119427476D01*
X143675542Y-119446523D01*
X143856495Y-119494142D02*
X143856495Y-119627476D01*
X143770780Y-119494142D02*
X143770780Y-119598904D01*
X143780304Y-119617952D01*
X143799352Y-119627476D01*
X143827923Y-119627476D01*
X143846971Y-119617952D01*
X143856495Y-119608428D01*
X143942209Y-119617952D02*
X143961257Y-119627476D01*
X143999352Y-119627476D01*
X144018400Y-119617952D01*
X144027923Y-119598904D01*
X144027923Y-119589380D01*
X144018400Y-119570333D01*
X143999352Y-119560809D01*
X143970780Y-119560809D01*
X143951733Y-119551285D01*
X143942209Y-119532238D01*
X143942209Y-119522714D01*
X143951733Y-119503666D01*
X143970780Y-119494142D01*
X143999352Y-119494142D01*
X144018400Y-119503666D01*
X144237447Y-119494142D02*
X144313638Y-119494142D01*
X144266019Y-119627476D02*
X144266019Y-119456047D01*
X144275542Y-119437000D01*
X144294590Y-119427476D01*
X144313638Y-119427476D01*
X144380304Y-119627476D02*
X144380304Y-119494142D01*
X144380304Y-119427476D02*
X144370780Y-119437000D01*
X144380304Y-119446523D01*
X144389828Y-119437000D01*
X144380304Y-119427476D01*
X144380304Y-119446523D01*
X144504114Y-119627476D02*
X144485066Y-119617952D01*
X144475542Y-119598904D01*
X144475542Y-119427476D01*
X144608876Y-119627476D02*
X144589828Y-119617952D01*
X144580304Y-119598904D01*
X144580304Y-119427476D01*
X144761257Y-119617952D02*
X144742209Y-119627476D01*
X144704114Y-119627476D01*
X144685066Y-119617952D01*
X144675542Y-119598904D01*
X144675542Y-119522714D01*
X144685066Y-119503666D01*
X144704114Y-119494142D01*
X144742209Y-119494142D01*
X144761257Y-119503666D01*
X144770780Y-119522714D01*
X144770780Y-119541761D01*
X144675542Y-119560809D01*
X144827923Y-119494142D02*
X144904114Y-119494142D01*
X144856495Y-119427476D02*
X144856495Y-119598904D01*
X144866019Y-119617952D01*
X144885066Y-119627476D01*
X144904114Y-119627476D01*
X145104114Y-119494142D02*
X145142209Y-119627476D01*
X145180304Y-119532238D01*
X145218400Y-119627476D01*
X145256495Y-119494142D01*
X145332685Y-119627476D02*
X145332685Y-119494142D01*
X145332685Y-119427476D02*
X145323161Y-119437000D01*
X145332685Y-119446523D01*
X145342209Y-119437000D01*
X145332685Y-119427476D01*
X145332685Y-119446523D01*
X145456495Y-119627476D02*
X145437447Y-119617952D01*
X145427923Y-119598904D01*
X145427923Y-119427476D01*
X145561257Y-119627476D02*
X145542209Y-119617952D01*
X145532685Y-119598904D01*
X145532685Y-119427476D01*
X145789828Y-119627476D02*
X145789828Y-119427476D01*
X145789828Y-119503666D02*
X145808876Y-119494142D01*
X145846971Y-119494142D01*
X145866019Y-119503666D01*
X145875542Y-119513190D01*
X145885066Y-119532238D01*
X145885066Y-119589380D01*
X145875542Y-119608428D01*
X145866019Y-119617952D01*
X145846971Y-119627476D01*
X145808876Y-119627476D01*
X145789828Y-119617952D01*
X146046971Y-119617952D02*
X146027923Y-119627476D01*
X145989828Y-119627476D01*
X145970780Y-119617952D01*
X145961257Y-119598904D01*
X145961257Y-119522714D01*
X145970780Y-119503666D01*
X145989828Y-119494142D01*
X146027923Y-119494142D01*
X146046971Y-119503666D01*
X146056495Y-119522714D01*
X146056495Y-119541761D01*
X145961257Y-119560809D01*
X146323161Y-119627476D02*
X146304114Y-119617952D01*
X146294590Y-119598904D01*
X146294590Y-119427476D01*
X146475542Y-119617952D02*
X146456495Y-119627476D01*
X146418400Y-119627476D01*
X146399352Y-119617952D01*
X146389828Y-119598904D01*
X146389828Y-119522714D01*
X146399352Y-119503666D01*
X146418400Y-119494142D01*
X146456495Y-119494142D01*
X146475542Y-119503666D01*
X146485066Y-119522714D01*
X146485066Y-119541761D01*
X146389828Y-119560809D01*
X146542209Y-119494142D02*
X146618400Y-119494142D01*
X146570780Y-119627476D02*
X146570780Y-119456047D01*
X146580304Y-119437000D01*
X146599352Y-119427476D01*
X146618400Y-119427476D01*
X146656495Y-119494142D02*
X146732685Y-119494142D01*
X146685066Y-119427476D02*
X146685066Y-119598904D01*
X146694590Y-119617952D01*
X146713638Y-119627476D01*
X146732685Y-119627476D01*
D12*
G36*
X141728400Y-118286855D02*
G01*
X141597380Y-118297960D01*
X141521180Y-118313200D01*
X141475460Y-118325900D01*
X141417040Y-118346220D01*
X141373860Y-118364000D01*
X141307820Y-118397020D01*
X141287500Y-118409720D01*
X141272260Y-118419880D01*
X141239240Y-118440200D01*
X141208760Y-118463060D01*
X141183724Y-118481284D01*
X141157960Y-118440200D01*
X141132560Y-118407180D01*
X141102080Y-118376700D01*
X141071600Y-118351300D01*
X141028420Y-118325900D01*
X140995400Y-118310660D01*
X140964920Y-118300500D01*
X140929360Y-118292880D01*
X140909040Y-118290340D01*
X140868400Y-118286575D01*
X141728400Y-118286855D01*
G37*
X141728400Y-118286855D02*
X141597380Y-118297960D01*
X141521180Y-118313200D01*
X141475460Y-118325900D01*
X141417040Y-118346220D01*
X141373860Y-118364000D01*
X141307820Y-118397020D01*
X141287500Y-118409720D01*
X141272260Y-118419880D01*
X141239240Y-118440200D01*
X141208760Y-118463060D01*
X141183724Y-118481284D01*
X141157960Y-118440200D01*
X141132560Y-118407180D01*
X141102080Y-118376700D01*
X141071600Y-118351300D01*
X141028420Y-118325900D01*
X140995400Y-118310660D01*
X140964920Y-118300500D01*
X140929360Y-118292880D01*
X140909040Y-118290340D01*
X140868400Y-118286575D01*
X141728400Y-118286855D01*
D10*
X141502255Y-116004100D02*
X141545798Y-116004100D01*
X141589341Y-116025872D01*
X141611113Y-116047643D01*
X141632884Y-116091186D01*
X141654655Y-116178272D01*
X141654655Y-116287129D01*
X141632884Y-116374214D01*
X141611113Y-116417757D01*
X141589341Y-116439529D01*
X141545798Y-116461300D01*
X141502255Y-116461300D01*
X141458713Y-116439529D01*
X141436941Y-116417757D01*
X141415170Y-116374214D01*
X141393398Y-116287129D01*
X141393398Y-116178272D01*
X141415170Y-116091186D01*
X141436941Y-116047643D01*
X141458713Y-116025872D01*
X141502255Y-116004100D01*
X141850598Y-116417757D02*
X141872370Y-116439529D01*
X141850598Y-116461300D01*
X141828827Y-116439529D01*
X141850598Y-116417757D01*
X141850598Y-116461300D01*
X142133627Y-116200043D02*
X142090084Y-116178272D01*
X142068313Y-116156500D01*
X142046541Y-116112957D01*
X142046541Y-116091186D01*
X142068313Y-116047643D01*
X142090084Y-116025872D01*
X142133627Y-116004100D01*
X142220713Y-116004100D01*
X142264255Y-116025872D01*
X142286027Y-116047643D01*
X142307798Y-116091186D01*
X142307798Y-116112957D01*
X142286027Y-116156500D01*
X142264255Y-116178272D01*
X142220713Y-116200043D01*
X142133627Y-116200043D01*
X142090084Y-116221814D01*
X142068313Y-116243586D01*
X142046541Y-116287129D01*
X142046541Y-116374214D01*
X142068313Y-116417757D01*
X142090084Y-116439529D01*
X142133627Y-116461300D01*
X142220713Y-116461300D01*
X142264255Y-116439529D01*
X142286027Y-116417757D01*
X142307798Y-116374214D01*
X142307798Y-116287129D01*
X142286027Y-116243586D01*
X142264255Y-116221814D01*
X142220713Y-116200043D01*
X142699684Y-116004100D02*
X142612598Y-116004100D01*
X142569055Y-116025872D01*
X142547284Y-116047643D01*
X142503741Y-116112957D01*
X142481970Y-116200043D01*
X142481970Y-116374214D01*
X142503741Y-116417757D01*
X142525513Y-116439529D01*
X142569055Y-116461300D01*
X142656141Y-116461300D01*
X142699684Y-116439529D01*
X142721455Y-116417757D01*
X142743227Y-116374214D01*
X142743227Y-116265357D01*
X142721455Y-116221814D01*
X142699684Y-116200043D01*
X142656141Y-116178272D01*
X142569055Y-116178272D01*
X142525513Y-116200043D01*
X142503741Y-116221814D01*
X142481970Y-116265357D01*
X140868139Y-116737145D02*
X141728139Y-116737000D01*
X140868400Y-118287000D02*
X140868040Y-116150724D01*
X141728400Y-118286855D02*
X141728040Y-116150579D01*
X141728139Y-116737000D02*
X140601734Y-117323611D01*
X141728139Y-116737000D02*
X140601536Y-116150769D01*
X140868139Y-116737145D02*
X141994742Y-117323376D01*
X140868139Y-116737145D02*
X141994544Y-116150534D01*
X141183724Y-118481284D02*
G75*
G02X141728400Y-118286855I544676J-665716D01*
G01*
X140868400Y-118286575D02*
G75*
G02X141183359Y-118483381I0J-350425D01*
G01*
X140868400Y-118287000D02*
X141728400Y-118286855D01*
X142374257Y-123072057D02*
X142330714Y-123093828D01*
X142243628Y-123093828D01*
X142200085Y-123072057D01*
X142178314Y-123028514D01*
X142178314Y-122854342D01*
X142200085Y-122810800D01*
X142243628Y-122789028D01*
X142330714Y-122789028D01*
X142374257Y-122810800D01*
X142396028Y-122854342D01*
X142396028Y-122897885D01*
X142178314Y-122941428D01*
X142787914Y-123093828D02*
X142787914Y-122636628D01*
X142787914Y-123072057D02*
X142744371Y-123093828D01*
X142657285Y-123093828D01*
X142613742Y-123072057D01*
X142591971Y-123050285D01*
X142570200Y-123006742D01*
X142570200Y-122876114D01*
X142591971Y-122832571D01*
X142613742Y-122810800D01*
X142657285Y-122789028D01*
X142744371Y-122789028D01*
X142787914Y-122810800D01*
X143201571Y-122789028D02*
X143201571Y-123159142D01*
X143179800Y-123202685D01*
X143158028Y-123224457D01*
X143114485Y-123246228D01*
X143049171Y-123246228D01*
X143005628Y-123224457D01*
X143201571Y-123072057D02*
X143158028Y-123093828D01*
X143070942Y-123093828D01*
X143027400Y-123072057D01*
X143005628Y-123050285D01*
X142983857Y-123006742D01*
X142983857Y-122876114D01*
X143005628Y-122832571D01*
X143027400Y-122810800D01*
X143070942Y-122789028D01*
X143158028Y-122789028D01*
X143201571Y-122810800D01*
X143593457Y-123072057D02*
X143549914Y-123093828D01*
X143462828Y-123093828D01*
X143419285Y-123072057D01*
X143397514Y-123028514D01*
X143397514Y-122854342D01*
X143419285Y-122810800D01*
X143462828Y-122789028D01*
X143549914Y-122789028D01*
X143593457Y-122810800D01*
X143615228Y-122854342D01*
X143615228Y-122897885D01*
X143397514Y-122941428D01*
X144224828Y-123093828D02*
X144181285Y-123072057D01*
X144159514Y-123050285D01*
X144137742Y-123006742D01*
X144137742Y-122876114D01*
X144159514Y-122832571D01*
X144181285Y-122810800D01*
X144224828Y-122789028D01*
X144290142Y-122789028D01*
X144333685Y-122810800D01*
X144355457Y-122832571D01*
X144377228Y-122876114D01*
X144377228Y-123006742D01*
X144355457Y-123050285D01*
X144333685Y-123072057D01*
X144290142Y-123093828D01*
X144224828Y-123093828D01*
X144507857Y-122789028D02*
X144682028Y-122789028D01*
X144573171Y-123093828D02*
X144573171Y-122701942D01*
X144594942Y-122658400D01*
X144638485Y-122636628D01*
X144682028Y-122636628D01*
X145182771Y-123093828D02*
X145182771Y-122636628D01*
X145378714Y-123093828D02*
X145378714Y-122854342D01*
X145356942Y-122810800D01*
X145313400Y-122789028D01*
X145248085Y-122789028D01*
X145204542Y-122810800D01*
X145182771Y-122832571D01*
X145661742Y-123093828D02*
X145618200Y-123072057D01*
X145596428Y-123050285D01*
X145574657Y-123006742D01*
X145574657Y-122876114D01*
X145596428Y-122832571D01*
X145618200Y-122810800D01*
X145661742Y-122789028D01*
X145727057Y-122789028D01*
X145770600Y-122810800D01*
X145792371Y-122832571D01*
X145814142Y-122876114D01*
X145814142Y-123006742D01*
X145792371Y-123050285D01*
X145770600Y-123072057D01*
X145727057Y-123093828D01*
X145661742Y-123093828D01*
X146075400Y-123093828D02*
X146031857Y-123072057D01*
X146010085Y-123028514D01*
X146010085Y-122636628D01*
X146423742Y-123072057D02*
X146380200Y-123093828D01*
X146293114Y-123093828D01*
X146249571Y-123072057D01*
X146227800Y-123028514D01*
X146227800Y-122854342D01*
X146249571Y-122810800D01*
X146293114Y-122789028D01*
X146380200Y-122789028D01*
X146423742Y-122810800D01*
X146445514Y-122854342D01*
X146445514Y-122897885D01*
X146227800Y-122941428D01*
X146924485Y-122789028D02*
X147098657Y-122789028D01*
X146989800Y-122636628D02*
X146989800Y-123028514D01*
X147011571Y-123072057D01*
X147055114Y-123093828D01*
X147098657Y-123093828D01*
X147316371Y-123093828D02*
X147272828Y-123072057D01*
X147251057Y-123050285D01*
X147229285Y-123006742D01*
X147229285Y-122876114D01*
X147251057Y-122832571D01*
X147272828Y-122810800D01*
X147316371Y-122789028D01*
X147381685Y-122789028D01*
X147425228Y-122810800D01*
X147447000Y-122832571D01*
X147468771Y-122876114D01*
X147468771Y-123006742D01*
X147447000Y-123050285D01*
X147425228Y-123072057D01*
X147381685Y-123093828D01*
X147316371Y-123093828D01*
X148187228Y-123072057D02*
X148143685Y-123093828D01*
X148056600Y-123093828D01*
X148013057Y-123072057D01*
X147991285Y-123028514D01*
X147991285Y-122854342D01*
X148013057Y-122810800D01*
X148056600Y-122789028D01*
X148143685Y-122789028D01*
X148187228Y-122810800D01*
X148209000Y-122854342D01*
X148209000Y-122897885D01*
X147991285Y-122941428D01*
X148600885Y-123093828D02*
X148600885Y-122636628D01*
X148600885Y-123072057D02*
X148557342Y-123093828D01*
X148470257Y-123093828D01*
X148426714Y-123072057D01*
X148404942Y-123050285D01*
X148383171Y-123006742D01*
X148383171Y-122876114D01*
X148404942Y-122832571D01*
X148426714Y-122810800D01*
X148470257Y-122789028D01*
X148557342Y-122789028D01*
X148600885Y-122810800D01*
X149014542Y-122789028D02*
X149014542Y-123159142D01*
X148992771Y-123202685D01*
X148971000Y-123224457D01*
X148927457Y-123246228D01*
X148862142Y-123246228D01*
X148818600Y-123224457D01*
X149014542Y-123072057D02*
X148971000Y-123093828D01*
X148883914Y-123093828D01*
X148840371Y-123072057D01*
X148818600Y-123050285D01*
X148796828Y-123006742D01*
X148796828Y-122876114D01*
X148818600Y-122832571D01*
X148840371Y-122810800D01*
X148883914Y-122789028D01*
X148971000Y-122789028D01*
X149014542Y-122810800D01*
X149406428Y-123072057D02*
X149362885Y-123093828D01*
X149275800Y-123093828D01*
X149232257Y-123072057D01*
X149210485Y-123028514D01*
X149210485Y-122854342D01*
X149232257Y-122810800D01*
X149275800Y-122789028D01*
X149362885Y-122789028D01*
X149406428Y-122810800D01*
X149428200Y-122854342D01*
X149428200Y-122897885D01*
X149210485Y-122941428D01*
X150037800Y-123093828D02*
X149994257Y-123072057D01*
X149972485Y-123050285D01*
X149950714Y-123006742D01*
X149950714Y-122876114D01*
X149972485Y-122832571D01*
X149994257Y-122810800D01*
X150037800Y-122789028D01*
X150103114Y-122789028D01*
X150146657Y-122810800D01*
X150168428Y-122832571D01*
X150190200Y-122876114D01*
X150190200Y-123006742D01*
X150168428Y-123050285D01*
X150146657Y-123072057D01*
X150103114Y-123093828D01*
X150037800Y-123093828D01*
X150320828Y-122789028D02*
X150495000Y-122789028D01*
X150386142Y-123093828D02*
X150386142Y-122701942D01*
X150407914Y-122658400D01*
X150451457Y-122636628D01*
X150495000Y-122636628D01*
X150995742Y-123093828D02*
X150995742Y-122636628D01*
X151191685Y-123093828D02*
X151191685Y-122854342D01*
X151169914Y-122810800D01*
X151126371Y-122789028D01*
X151061057Y-122789028D01*
X151017514Y-122810800D01*
X150995742Y-122832571D01*
X151474714Y-123093828D02*
X151431171Y-123072057D01*
X151409400Y-123050285D01*
X151387628Y-123006742D01*
X151387628Y-122876114D01*
X151409400Y-122832571D01*
X151431171Y-122810800D01*
X151474714Y-122789028D01*
X151540028Y-122789028D01*
X151583571Y-122810800D01*
X151605342Y-122832571D01*
X151627114Y-122876114D01*
X151627114Y-123006742D01*
X151605342Y-123050285D01*
X151583571Y-123072057D01*
X151540028Y-123093828D01*
X151474714Y-123093828D01*
X151888371Y-123093828D02*
X151844828Y-123072057D01*
X151823057Y-123028514D01*
X151823057Y-122636628D01*
X152236714Y-123072057D02*
X152193171Y-123093828D01*
X152106085Y-123093828D01*
X152062542Y-123072057D01*
X152040771Y-123028514D01*
X152040771Y-122854342D01*
X152062542Y-122810800D01*
X152106085Y-122789028D01*
X152193171Y-122789028D01*
X152236714Y-122810800D01*
X152258485Y-122854342D01*
X152258485Y-122897885D01*
X152040771Y-122941428D01*
X146587028Y-122426428D02*
X146325771Y-122426428D01*
X146456400Y-122426428D02*
X146456400Y-121969228D01*
X146412857Y-122034542D01*
X146369314Y-122078085D01*
X146325771Y-122099857D01*
X147000685Y-121969228D02*
X146782971Y-121969228D01*
X146761200Y-122186942D01*
X146782971Y-122165171D01*
X146826514Y-122143400D01*
X146935371Y-122143400D01*
X146978914Y-122165171D01*
X147000685Y-122186942D01*
X147022457Y-122230485D01*
X147022457Y-122339342D01*
X147000685Y-122382885D01*
X146978914Y-122404657D01*
X146935371Y-122426428D01*
X146826514Y-122426428D01*
X146782971Y-122404657D01*
X146761200Y-122382885D01*
X147218400Y-122382885D02*
X147240171Y-122404657D01*
X147218400Y-122426428D01*
X147196628Y-122404657D01*
X147218400Y-122382885D01*
X147218400Y-122426428D01*
X147632057Y-121969228D02*
X147544971Y-121969228D01*
X147501428Y-121991000D01*
X147479657Y-122012771D01*
X147436114Y-122078085D01*
X147414342Y-122165171D01*
X147414342Y-122339342D01*
X147436114Y-122382885D01*
X147457885Y-122404657D01*
X147501428Y-122426428D01*
X147588514Y-122426428D01*
X147632057Y-122404657D01*
X147653828Y-122382885D01*
X147675600Y-122339342D01*
X147675600Y-122230485D01*
X147653828Y-122186942D01*
X147632057Y-122165171D01*
X147588514Y-122143400D01*
X147501428Y-122143400D01*
X147457885Y-122165171D01*
X147436114Y-122186942D01*
X147414342Y-122230485D01*
X147958628Y-121969228D02*
X148002171Y-121969228D01*
X148045714Y-121991000D01*
X148067485Y-122012771D01*
X148089257Y-122056314D01*
X148111028Y-122143400D01*
X148111028Y-122252257D01*
X148089257Y-122339342D01*
X148067485Y-122382885D01*
X148045714Y-122404657D01*
X148002171Y-122426428D01*
X147958628Y-122426428D01*
X147915085Y-122404657D01*
X147893314Y-122382885D01*
X147871542Y-122339342D01*
X147849771Y-122252257D01*
X147849771Y-122143400D01*
X147871542Y-122056314D01*
X147893314Y-122012771D01*
X147915085Y-121991000D01*
X147958628Y-121969228D01*
X139418400Y-121737000D02*
X155018400Y-121737000D01*
X139418400Y-115687000D02*
X139418400Y-122323421D01*
X155018400Y-115687000D02*
X155018400Y-122323421D01*
X155018400Y-121737000D02*
X153891896Y-122323421D01*
X155018400Y-121737000D02*
X153891896Y-121150579D01*
X139418400Y-121737000D02*
X140544904Y-122323421D01*
X139418400Y-121737000D02*
X140544904Y-121150579D01*
X164451371Y-98272600D02*
X164451371Y-98555628D01*
X164277200Y-98403228D01*
X164277200Y-98468542D01*
X164255428Y-98512085D01*
X164233657Y-98533857D01*
X164190114Y-98555628D01*
X164081257Y-98555628D01*
X164037714Y-98533857D01*
X164015942Y-98512085D01*
X163994171Y-98468542D01*
X163994171Y-98337914D01*
X164015942Y-98294371D01*
X164037714Y-98272600D01*
X163994171Y-98773342D02*
X163994171Y-98860428D01*
X164015942Y-98903971D01*
X164037714Y-98925742D01*
X164103028Y-98969285D01*
X164190114Y-98991057D01*
X164364285Y-98991057D01*
X164407828Y-98969285D01*
X164429600Y-98947514D01*
X164451371Y-98903971D01*
X164451371Y-98816885D01*
X164429600Y-98773342D01*
X164407828Y-98751571D01*
X164364285Y-98729800D01*
X164255428Y-98729800D01*
X164211885Y-98751571D01*
X164190114Y-98773342D01*
X164168342Y-98816885D01*
X164168342Y-98903971D01*
X164190114Y-98947514D01*
X164211885Y-98969285D01*
X164255428Y-98991057D01*
X164037714Y-99187000D02*
X164015942Y-99208771D01*
X163994171Y-99187000D01*
X164015942Y-99165228D01*
X164037714Y-99187000D01*
X163994171Y-99187000D01*
X164255428Y-99470028D02*
X164277200Y-99426485D01*
X164298971Y-99404714D01*
X164342514Y-99382942D01*
X164364285Y-99382942D01*
X164407828Y-99404714D01*
X164429600Y-99426485D01*
X164451371Y-99470028D01*
X164451371Y-99557114D01*
X164429600Y-99600657D01*
X164407828Y-99622428D01*
X164364285Y-99644200D01*
X164342514Y-99644200D01*
X164298971Y-99622428D01*
X164277200Y-99600657D01*
X164255428Y-99557114D01*
X164255428Y-99470028D01*
X164233657Y-99426485D01*
X164211885Y-99404714D01*
X164168342Y-99382942D01*
X164081257Y-99382942D01*
X164037714Y-99404714D01*
X164015942Y-99426485D01*
X163994171Y-99470028D01*
X163994171Y-99557114D01*
X164015942Y-99600657D01*
X164037714Y-99622428D01*
X164081257Y-99644200D01*
X164168342Y-99644200D01*
X164211885Y-99622428D01*
X164233657Y-99600657D01*
X164255428Y-99557114D01*
X164451371Y-99927228D02*
X164451371Y-99970771D01*
X164429600Y-100014314D01*
X164407828Y-100036085D01*
X164364285Y-100057857D01*
X164277200Y-100079628D01*
X164168342Y-100079628D01*
X164081257Y-100057857D01*
X164037714Y-100036085D01*
X164015942Y-100014314D01*
X163994171Y-99970771D01*
X163994171Y-99927228D01*
X164015942Y-99883685D01*
X164037714Y-99861914D01*
X164081257Y-99840142D01*
X164168342Y-99818371D01*
X164277200Y-99818371D01*
X164364285Y-99840142D01*
X164407828Y-99861914D01*
X164429600Y-99883685D01*
X164451371Y-99927228D01*
X163718400Y-79287000D02*
X163718400Y-119087000D01*
X155568400Y-79287000D02*
X164304821Y-79287000D01*
X155568400Y-119087000D02*
X164304821Y-119087000D01*
X163718400Y-119087000D02*
X163131979Y-117960496D01*
X163718400Y-119087000D02*
X164304821Y-117960496D01*
X163718400Y-79287000D02*
X163131979Y-80413504D01*
X163718400Y-79287000D02*
X164304821Y-80413504D01*
X159451371Y-98272600D02*
X159451371Y-98555628D01*
X159277200Y-98403228D01*
X159277200Y-98468542D01*
X159255428Y-98512085D01*
X159233657Y-98533857D01*
X159190114Y-98555628D01*
X159081257Y-98555628D01*
X159037714Y-98533857D01*
X159015942Y-98512085D01*
X158994171Y-98468542D01*
X158994171Y-98337914D01*
X159015942Y-98294371D01*
X159037714Y-98272600D01*
X159255428Y-98816885D02*
X159277200Y-98773342D01*
X159298971Y-98751571D01*
X159342514Y-98729800D01*
X159364285Y-98729800D01*
X159407828Y-98751571D01*
X159429600Y-98773342D01*
X159451371Y-98816885D01*
X159451371Y-98903971D01*
X159429600Y-98947514D01*
X159407828Y-98969285D01*
X159364285Y-98991057D01*
X159342514Y-98991057D01*
X159298971Y-98969285D01*
X159277200Y-98947514D01*
X159255428Y-98903971D01*
X159255428Y-98816885D01*
X159233657Y-98773342D01*
X159211885Y-98751571D01*
X159168342Y-98729800D01*
X159081257Y-98729800D01*
X159037714Y-98751571D01*
X159015942Y-98773342D01*
X158994171Y-98816885D01*
X158994171Y-98903971D01*
X159015942Y-98947514D01*
X159037714Y-98969285D01*
X159081257Y-98991057D01*
X159168342Y-98991057D01*
X159211885Y-98969285D01*
X159233657Y-98947514D01*
X159255428Y-98903971D01*
X159037714Y-99187000D02*
X159015942Y-99208771D01*
X158994171Y-99187000D01*
X159015942Y-99165228D01*
X159037714Y-99187000D01*
X158994171Y-99187000D01*
X159407828Y-99382942D02*
X159429600Y-99404714D01*
X159451371Y-99448257D01*
X159451371Y-99557114D01*
X159429600Y-99600657D01*
X159407828Y-99622428D01*
X159364285Y-99644200D01*
X159320742Y-99644200D01*
X159255428Y-99622428D01*
X158994171Y-99361171D01*
X158994171Y-99644200D01*
X159451371Y-99927228D02*
X159451371Y-99970771D01*
X159429600Y-100014314D01*
X159407828Y-100036085D01*
X159364285Y-100057857D01*
X159277200Y-100079628D01*
X159168342Y-100079628D01*
X159081257Y-100057857D01*
X159037714Y-100036085D01*
X159015942Y-100014314D01*
X158994171Y-99970771D01*
X158994171Y-99927228D01*
X159015942Y-99883685D01*
X159037714Y-99861914D01*
X159081257Y-99840142D01*
X159168342Y-99818371D01*
X159277200Y-99818371D01*
X159364285Y-99840142D01*
X159407828Y-99861914D01*
X159429600Y-99883685D01*
X159451371Y-99927228D01*
X158718400Y-80087000D02*
X158718400Y-118287000D01*
X153568400Y-80087000D02*
X159304821Y-80087000D01*
X153568400Y-118287000D02*
X159304821Y-118287000D01*
X158718400Y-118287000D02*
X158131979Y-117160496D01*
X158718400Y-118287000D02*
X159304821Y-117160496D01*
X158718400Y-80087000D02*
X158131979Y-81213504D01*
X158718400Y-80087000D02*
X159304821Y-81213504D01*
X146587028Y-72961228D02*
X146325771Y-72961228D01*
X146456400Y-72961228D02*
X146456400Y-72504028D01*
X146412857Y-72569342D01*
X146369314Y-72612885D01*
X146325771Y-72634657D01*
X146978914Y-72504028D02*
X146891828Y-72504028D01*
X146848285Y-72525800D01*
X146826514Y-72547571D01*
X146782971Y-72612885D01*
X146761200Y-72699971D01*
X146761200Y-72874142D01*
X146782971Y-72917685D01*
X146804742Y-72939457D01*
X146848285Y-72961228D01*
X146935371Y-72961228D01*
X146978914Y-72939457D01*
X147000685Y-72917685D01*
X147022457Y-72874142D01*
X147022457Y-72765285D01*
X147000685Y-72721742D01*
X146978914Y-72699971D01*
X146935371Y-72678200D01*
X146848285Y-72678200D01*
X146804742Y-72699971D01*
X146782971Y-72721742D01*
X146761200Y-72765285D01*
X147218400Y-72917685D02*
X147240171Y-72939457D01*
X147218400Y-72961228D01*
X147196628Y-72939457D01*
X147218400Y-72917685D01*
X147218400Y-72961228D01*
X147392571Y-72504028D02*
X147697371Y-72504028D01*
X147501428Y-72961228D01*
X147958628Y-72504028D02*
X148002171Y-72504028D01*
X148045714Y-72525800D01*
X148067485Y-72547571D01*
X148089257Y-72591114D01*
X148111028Y-72678200D01*
X148111028Y-72787057D01*
X148089257Y-72874142D01*
X148067485Y-72917685D01*
X148045714Y-72939457D01*
X148002171Y-72961228D01*
X147958628Y-72961228D01*
X147915085Y-72939457D01*
X147893314Y-72917685D01*
X147871542Y-72874142D01*
X147849771Y-72787057D01*
X147849771Y-72678200D01*
X147871542Y-72591114D01*
X147893314Y-72547571D01*
X147915085Y-72525800D01*
X147958628Y-72504028D01*
X138868400Y-73237000D02*
X155568400Y-73237000D01*
X138868400Y-79287000D02*
X138868400Y-72650579D01*
X155568400Y-79287000D02*
X155568400Y-72650579D01*
X155568400Y-73237000D02*
X154441896Y-73823421D01*
X155568400Y-73237000D02*
X154441896Y-72650579D01*
X138868400Y-73237000D02*
X139994904Y-73823421D01*
X138868400Y-73237000D02*
X139994904Y-72650579D01*
X143072597Y-81469228D02*
X143116140Y-81469228D01*
X143159683Y-81491000D01*
X143181455Y-81512771D01*
X143203226Y-81556314D01*
X143224997Y-81643400D01*
X143224997Y-81752257D01*
X143203226Y-81839342D01*
X143181455Y-81882885D01*
X143159683Y-81904657D01*
X143116140Y-81926428D01*
X143072597Y-81926428D01*
X143029055Y-81904657D01*
X143007283Y-81882885D01*
X142985512Y-81839342D01*
X142963740Y-81752257D01*
X142963740Y-81643400D01*
X142985512Y-81556314D01*
X143007283Y-81512771D01*
X143029055Y-81491000D01*
X143072597Y-81469228D01*
X143420940Y-81882885D02*
X143442712Y-81904657D01*
X143420940Y-81926428D01*
X143399169Y-81904657D01*
X143420940Y-81882885D01*
X143420940Y-81926428D01*
X143703969Y-81665171D02*
X143660426Y-81643400D01*
X143638655Y-81621628D01*
X143616883Y-81578085D01*
X143616883Y-81556314D01*
X143638655Y-81512771D01*
X143660426Y-81491000D01*
X143703969Y-81469228D01*
X143791055Y-81469228D01*
X143834597Y-81491000D01*
X143856369Y-81512771D01*
X143878140Y-81556314D01*
X143878140Y-81578085D01*
X143856369Y-81621628D01*
X143834597Y-81643400D01*
X143791055Y-81665171D01*
X143703969Y-81665171D01*
X143660426Y-81686942D01*
X143638655Y-81708714D01*
X143616883Y-81752257D01*
X143616883Y-81839342D01*
X143638655Y-81882885D01*
X143660426Y-81904657D01*
X143703969Y-81926428D01*
X143791055Y-81926428D01*
X143834597Y-81904657D01*
X143856369Y-81882885D01*
X143878140Y-81839342D01*
X143878140Y-81752257D01*
X143856369Y-81708714D01*
X143834597Y-81686942D01*
X143791055Y-81665171D01*
X144161169Y-81469228D02*
X144204712Y-81469228D01*
X144248255Y-81491000D01*
X144270026Y-81512771D01*
X144291797Y-81556314D01*
X144313569Y-81643400D01*
X144313569Y-81752257D01*
X144291797Y-81839342D01*
X144270026Y-81882885D01*
X144248255Y-81904657D01*
X144204712Y-81926428D01*
X144161169Y-81926428D01*
X144117626Y-81904657D01*
X144095855Y-81882885D01*
X144074083Y-81839342D01*
X144052312Y-81752257D01*
X144052312Y-81643400D01*
X144074083Y-81556314D01*
X144095855Y-81512771D01*
X144117626Y-81491000D01*
X144161169Y-81469228D01*
X142468400Y-81237000D02*
X143268400Y-81237000D01*
X142468400Y-79737000D02*
X142468400Y-81823421D01*
X143268400Y-79737000D02*
X143268400Y-81823421D01*
X143268400Y-81237000D02*
X142141896Y-81823421D01*
X143268400Y-81237000D02*
X142141896Y-80650579D01*
X142468400Y-81237000D02*
X143594904Y-81823421D01*
X142468400Y-81237000D02*
X143594904Y-80650579D01*
X153123230Y-76247571D02*
X153145002Y-76225800D01*
X153188545Y-76204028D01*
X153297402Y-76204028D01*
X153340945Y-76225800D01*
X153362716Y-76247571D01*
X153384487Y-76291114D01*
X153384487Y-76334657D01*
X153362716Y-76399971D01*
X153101459Y-76661228D01*
X153384487Y-76661228D01*
X153580430Y-76617685D02*
X153602202Y-76639457D01*
X153580430Y-76661228D01*
X153558659Y-76639457D01*
X153580430Y-76617685D01*
X153580430Y-76661228D01*
X153885230Y-76204028D02*
X153928773Y-76204028D01*
X153972316Y-76225800D01*
X153994087Y-76247571D01*
X154015859Y-76291114D01*
X154037630Y-76378200D01*
X154037630Y-76487057D01*
X154015859Y-76574142D01*
X153994087Y-76617685D01*
X153972316Y-76639457D01*
X153928773Y-76661228D01*
X153885230Y-76661228D01*
X153841687Y-76639457D01*
X153819916Y-76617685D01*
X153798145Y-76574142D01*
X153776373Y-76487057D01*
X153776373Y-76378200D01*
X153798145Y-76291114D01*
X153819916Y-76247571D01*
X153841687Y-76225800D01*
X153885230Y-76204028D01*
X154320659Y-76204028D02*
X154364202Y-76204028D01*
X154407745Y-76225800D01*
X154429516Y-76247571D01*
X154451287Y-76291114D01*
X154473059Y-76378200D01*
X154473059Y-76487057D01*
X154451287Y-76574142D01*
X154429516Y-76617685D01*
X154407745Y-76639457D01*
X154364202Y-76661228D01*
X154320659Y-76661228D01*
X154277116Y-76639457D01*
X154255345Y-76617685D01*
X154233573Y-76574142D01*
X154211802Y-76487057D01*
X154211802Y-76378200D01*
X154233573Y-76291114D01*
X154255345Y-76247571D01*
X154277116Y-76225800D01*
X154320659Y-76204028D01*
X153568400Y-76937000D02*
X155568400Y-76937000D01*
X153568400Y-79287000D02*
X153568400Y-76350579D01*
X155568400Y-79287000D02*
X155568400Y-76350579D01*
X155568400Y-76937000D02*
X154441896Y-77523421D01*
X155568400Y-76937000D02*
X154441896Y-76350579D01*
X153568400Y-76937000D02*
X154694904Y-77523421D01*
X153568400Y-76937000D02*
X154694904Y-76350579D01*
X153566315Y-79286855D02*
G75*
G02X152708400Y-80087000I-857915J59855D01*
G01*
X143728400Y-80087000D02*
G75*
G02X142868402Y-79284910I1J862089D01*
G01*
X140870485Y-119087000D02*
G75*
G02X141728400Y-118286855I857915J-59855D01*
G01*
X152708400Y-118287000D02*
G75*
G02X153568398Y-119089090I-1J-862089D01*
G01*
D13*
X138868400Y-80087000D02*
X155568400Y-118287000D01*
X138868400Y-118287000D02*
X155568400Y-80087000D01*
M02*
