G04 #@! TF.GenerationSoftware,KiCad,Pcbnew,5.1.4-e60b266~84~ubuntu19.04.1*
G04 #@! TF.CreationDate,2019-11-07T13:35:07-05:00*
G04 #@! TF.ProjectId,pcb2molex8878_chamfer,70636232-6d6f-46c6-9578-383837385f63,rev?*
G04 #@! TF.SameCoordinates,Original*
G04 #@! TF.FileFunction,Drawing*
%FSLAX46Y46*%
G04 Gerber Fmt 4.6, Leading zero omitted, Abs format (unit mm)*
G04 Created by KiCad (PCBNEW 5.1.4-e60b266~84~ubuntu19.04.1) date 2019-11-07 13:35:07*
%MOMM*%
%LPD*%
G04 APERTURE LIST*
%ADD10C,0.010000*%
G04 APERTURE END LIST*
D10*
X154418400Y-117487000D02*
X140018400Y-117487000D01*
X154418400Y-80887000D02*
X154418400Y-117487000D01*
X140018400Y-80887000D02*
X154418400Y-80887000D01*
X140018400Y-117487000D02*
X140018400Y-80887000D01*
X140018400Y-102187000D02*
X141268400Y-102187000D01*
X140018400Y-102187000D02*
X140518400Y-102687000D01*
X140018400Y-102187000D02*
X140518400Y-101687000D01*
X139218400Y-80087000D02*
X141018400Y-80087000D01*
X139218400Y-80087000D02*
X139218400Y-81887000D01*
X139218400Y-80087000D02*
X155218400Y-118287000D01*
X139218400Y-118287000D02*
X155218400Y-80087000D01*
X141446971Y-102127476D02*
X141446971Y-101927476D01*
X141446971Y-102003666D02*
X141466019Y-101994142D01*
X141504114Y-101994142D01*
X141523161Y-102003666D01*
X141532685Y-102013190D01*
X141542209Y-102032238D01*
X141542209Y-102089380D01*
X141532685Y-102108428D01*
X141523161Y-102117952D01*
X141504114Y-102127476D01*
X141466019Y-102127476D01*
X141446971Y-102117952D01*
X141713638Y-102127476D02*
X141713638Y-102022714D01*
X141704114Y-102003666D01*
X141685066Y-101994142D01*
X141646971Y-101994142D01*
X141627923Y-102003666D01*
X141713638Y-102117952D02*
X141694590Y-102127476D01*
X141646971Y-102127476D01*
X141627923Y-102117952D01*
X141618400Y-102098904D01*
X141618400Y-102079857D01*
X141627923Y-102060809D01*
X141646971Y-102051285D01*
X141694590Y-102051285D01*
X141713638Y-102041761D01*
X141894590Y-102117952D02*
X141875542Y-102127476D01*
X141837447Y-102127476D01*
X141818400Y-102117952D01*
X141808876Y-102108428D01*
X141799352Y-102089380D01*
X141799352Y-102032238D01*
X141808876Y-102013190D01*
X141818400Y-102003666D01*
X141837447Y-101994142D01*
X141875542Y-101994142D01*
X141894590Y-102003666D01*
X141980304Y-102127476D02*
X141980304Y-101927476D01*
X141999352Y-102051285D02*
X142056495Y-102127476D01*
X142056495Y-101994142D02*
X141980304Y-102070333D01*
X142132685Y-102117952D02*
X142151733Y-102127476D01*
X142189828Y-102127476D01*
X142208876Y-102117952D01*
X142218400Y-102098904D01*
X142218400Y-102089380D01*
X142208876Y-102070333D01*
X142189828Y-102060809D01*
X142161257Y-102060809D01*
X142142209Y-102051285D01*
X142132685Y-102032238D01*
X142132685Y-102022714D01*
X142142209Y-102003666D01*
X142161257Y-101994142D01*
X142189828Y-101994142D01*
X142208876Y-102003666D01*
X142304114Y-102127476D02*
X142304114Y-101994142D01*
X142304114Y-101927476D02*
X142294590Y-101937000D01*
X142304114Y-101946523D01*
X142313638Y-101937000D01*
X142304114Y-101927476D01*
X142304114Y-101946523D01*
X142485066Y-102127476D02*
X142485066Y-101927476D01*
X142485066Y-102117952D02*
X142466019Y-102127476D01*
X142427923Y-102127476D01*
X142408876Y-102117952D01*
X142399352Y-102108428D01*
X142389828Y-102089380D01*
X142389828Y-102032238D01*
X142399352Y-102013190D01*
X142408876Y-102003666D01*
X142427923Y-101994142D01*
X142466019Y-101994142D01*
X142485066Y-102003666D01*
X142656495Y-102117952D02*
X142637447Y-102127476D01*
X142599352Y-102127476D01*
X142580304Y-102117952D01*
X142570780Y-102098904D01*
X142570780Y-102022714D01*
X142580304Y-102003666D01*
X142599352Y-101994142D01*
X142637447Y-101994142D01*
X142656495Y-102003666D01*
X142666019Y-102022714D01*
X142666019Y-102041761D01*
X142570780Y-102060809D01*
X142904114Y-101994142D02*
X142904114Y-102194142D01*
X142904114Y-102003666D02*
X142923161Y-101994142D01*
X142961257Y-101994142D01*
X142980304Y-102003666D01*
X142989828Y-102013190D01*
X142999352Y-102032238D01*
X142999352Y-102089380D01*
X142989828Y-102108428D01*
X142980304Y-102117952D01*
X142961257Y-102127476D01*
X142923161Y-102127476D01*
X142904114Y-102117952D01*
X143113638Y-102127476D02*
X143094590Y-102117952D01*
X143085066Y-102108428D01*
X143075542Y-102089380D01*
X143075542Y-102032238D01*
X143085066Y-102013190D01*
X143094590Y-102003666D01*
X143113638Y-101994142D01*
X143142209Y-101994142D01*
X143161257Y-102003666D01*
X143170780Y-102013190D01*
X143180304Y-102032238D01*
X143180304Y-102089380D01*
X143170780Y-102108428D01*
X143161257Y-102117952D01*
X143142209Y-102127476D01*
X143113638Y-102127476D01*
X143351733Y-102117952D02*
X143332685Y-102127476D01*
X143294590Y-102127476D01*
X143275542Y-102117952D01*
X143266019Y-102108428D01*
X143256495Y-102089380D01*
X143256495Y-102032238D01*
X143266019Y-102013190D01*
X143275542Y-102003666D01*
X143294590Y-101994142D01*
X143332685Y-101994142D01*
X143351733Y-102003666D01*
X143437447Y-102127476D02*
X143437447Y-101927476D01*
X143456495Y-102051285D02*
X143513638Y-102127476D01*
X143513638Y-101994142D02*
X143437447Y-102070333D01*
X143675542Y-102117952D02*
X143656495Y-102127476D01*
X143618400Y-102127476D01*
X143599352Y-102117952D01*
X143589828Y-102098904D01*
X143589828Y-102022714D01*
X143599352Y-102003666D01*
X143618400Y-101994142D01*
X143656495Y-101994142D01*
X143675542Y-102003666D01*
X143685066Y-102022714D01*
X143685066Y-102041761D01*
X143589828Y-102060809D01*
X143742209Y-101994142D02*
X143818400Y-101994142D01*
X143770780Y-101927476D02*
X143770780Y-102098904D01*
X143780304Y-102117952D01*
X143799352Y-102127476D01*
X143818400Y-102127476D01*
X141275542Y-102277476D02*
X141399352Y-102277476D01*
X141332685Y-102353666D01*
X141361257Y-102353666D01*
X141380304Y-102363190D01*
X141389828Y-102372714D01*
X141399352Y-102391761D01*
X141399352Y-102439380D01*
X141389828Y-102458428D01*
X141380304Y-102467952D01*
X141361257Y-102477476D01*
X141304114Y-102477476D01*
X141285066Y-102467952D01*
X141275542Y-102458428D01*
X141570780Y-102277476D02*
X141532685Y-102277476D01*
X141513638Y-102287000D01*
X141504114Y-102296523D01*
X141485066Y-102325095D01*
X141475542Y-102363190D01*
X141475542Y-102439380D01*
X141485066Y-102458428D01*
X141494590Y-102467952D01*
X141513638Y-102477476D01*
X141551733Y-102477476D01*
X141570780Y-102467952D01*
X141580304Y-102458428D01*
X141589828Y-102439380D01*
X141589828Y-102391761D01*
X141580304Y-102372714D01*
X141570780Y-102363190D01*
X141551733Y-102353666D01*
X141513638Y-102353666D01*
X141494590Y-102363190D01*
X141485066Y-102372714D01*
X141475542Y-102391761D01*
X141675542Y-102458428D02*
X141685066Y-102467952D01*
X141675542Y-102477476D01*
X141666019Y-102467952D01*
X141675542Y-102458428D01*
X141675542Y-102477476D01*
X141856495Y-102277476D02*
X141818400Y-102277476D01*
X141799352Y-102287000D01*
X141789828Y-102296523D01*
X141770780Y-102325095D01*
X141761257Y-102363190D01*
X141761257Y-102439380D01*
X141770780Y-102458428D01*
X141780304Y-102467952D01*
X141799352Y-102477476D01*
X141837447Y-102477476D01*
X141856495Y-102467952D01*
X141866019Y-102458428D01*
X141875542Y-102439380D01*
X141875542Y-102391761D01*
X141866019Y-102372714D01*
X141856495Y-102363190D01*
X141837447Y-102353666D01*
X141799352Y-102353666D01*
X141780304Y-102363190D01*
X141770780Y-102372714D01*
X141761257Y-102391761D01*
X142094590Y-102477476D02*
X142199352Y-102344142D01*
X142094590Y-102344142D02*
X142199352Y-102477476D01*
X142532685Y-102477476D02*
X142418400Y-102477476D01*
X142475542Y-102477476D02*
X142475542Y-102277476D01*
X142456495Y-102306047D01*
X142437447Y-102325095D01*
X142418400Y-102334619D01*
X142704114Y-102344142D02*
X142704114Y-102477476D01*
X142656495Y-102267952D02*
X142608876Y-102410809D01*
X142732685Y-102410809D01*
X142808876Y-102458428D02*
X142818400Y-102467952D01*
X142808876Y-102477476D01*
X142799352Y-102467952D01*
X142808876Y-102458428D01*
X142808876Y-102477476D01*
X142989828Y-102344142D02*
X142989828Y-102477476D01*
X142942209Y-102267952D02*
X142894590Y-102410809D01*
X143018400Y-102410809D01*
X143227923Y-102477476D02*
X143332685Y-102344142D01*
X143227923Y-102344142D02*
X143332685Y-102477476D01*
X143666019Y-102477476D02*
X143551733Y-102477476D01*
X143608876Y-102477476D02*
X143608876Y-102277476D01*
X143589828Y-102306047D01*
X143570780Y-102325095D01*
X143551733Y-102334619D01*
X143751733Y-102458428D02*
X143761257Y-102467952D01*
X143751733Y-102477476D01*
X143742209Y-102467952D01*
X143751733Y-102458428D01*
X143751733Y-102477476D01*
X143932685Y-102277476D02*
X143894590Y-102277476D01*
X143875542Y-102287000D01*
X143866019Y-102296523D01*
X143846971Y-102325095D01*
X143837447Y-102363190D01*
X143837447Y-102439380D01*
X143846971Y-102458428D01*
X143856495Y-102467952D01*
X143875542Y-102477476D01*
X143913638Y-102477476D01*
X143932685Y-102467952D01*
X143942209Y-102458428D01*
X143951733Y-102439380D01*
X143951733Y-102391761D01*
X143942209Y-102372714D01*
X143932685Y-102363190D01*
X143913638Y-102353666D01*
X143875542Y-102353666D01*
X143856495Y-102363190D01*
X143846971Y-102372714D01*
X143837447Y-102391761D01*
M02*
