G04 #@! TF.GenerationSoftware,KiCad,Pcbnew,5.1.4-e60b266~84~ubuntu19.04.1*
G04 #@! TF.CreationDate,2019-10-28T00:31:35-04:00*
G04 #@! TF.ProjectId,pcb2molex8878_chamfer,70636232-6d6f-46c6-9578-383837385f63,rev?*
G04 #@! TF.SameCoordinates,Original*
G04 #@! TF.FileFunction,Copper,L2,Bot*
G04 #@! TF.FilePolarity,Positive*
%FSLAX46Y46*%
G04 Gerber Fmt 4.6, Leading zero omitted, Abs format (unit mm)*
G04 Created by KiCad (PCBNEW 5.1.4-e60b266~84~ubuntu19.04.1) date 2019-10-28 00:31:35*
%MOMM*%
%LPD*%
G04 APERTURE LIST*
%ADD10C,0.050800*%
%ADD11C,1.600000*%
G04 APERTURE END LIST*
D10*
G36*
X156474083Y-81877770D02*
G01*
X156489614Y-81880074D01*
X156504846Y-81883890D01*
X156519629Y-81889179D01*
X156533823Y-81895893D01*
X156547291Y-81903965D01*
X156559903Y-81913318D01*
X156571537Y-81923863D01*
X156582082Y-81935497D01*
X156591435Y-81948109D01*
X156599507Y-81961577D01*
X156606221Y-81975771D01*
X156611510Y-81990554D01*
X156615326Y-82005786D01*
X156617630Y-82021317D01*
X156618400Y-82037000D01*
X156618400Y-83317000D01*
X156617630Y-83332683D01*
X156615326Y-83348214D01*
X156611510Y-83363446D01*
X156606221Y-83378229D01*
X156599507Y-83392423D01*
X156591435Y-83405891D01*
X156582082Y-83418503D01*
X156571537Y-83430137D01*
X156559903Y-83440682D01*
X156547291Y-83450035D01*
X156533823Y-83458107D01*
X156519629Y-83464821D01*
X156504846Y-83470110D01*
X156489614Y-83473926D01*
X156474083Y-83476230D01*
X156458400Y-83477000D01*
X154978400Y-83477000D01*
X154962717Y-83476230D01*
X154947186Y-83473926D01*
X154931954Y-83470110D01*
X154917171Y-83464821D01*
X154902977Y-83458107D01*
X154889509Y-83450035D01*
X154876897Y-83440682D01*
X154865263Y-83430137D01*
X154854718Y-83418503D01*
X154845365Y-83405891D01*
X154837293Y-83392423D01*
X154830579Y-83378229D01*
X154825290Y-83363446D01*
X154821474Y-83348214D01*
X154819170Y-83332683D01*
X154818400Y-83317000D01*
X154818400Y-82037000D01*
X154819170Y-82021317D01*
X154821474Y-82005786D01*
X154825290Y-81990554D01*
X154830579Y-81975771D01*
X154837293Y-81961577D01*
X154845365Y-81948109D01*
X154854718Y-81935497D01*
X154865263Y-81923863D01*
X154876897Y-81913318D01*
X154889509Y-81903965D01*
X154902977Y-81895893D01*
X154917171Y-81889179D01*
X154931954Y-81883890D01*
X154947186Y-81880074D01*
X154962717Y-81877770D01*
X154978400Y-81877000D01*
X156458400Y-81877000D01*
X156474083Y-81877770D01*
X156474083Y-81877770D01*
G37*
D11*
X155718400Y-82677000D03*
D10*
G36*
X139474083Y-114897770D02*
G01*
X139489614Y-114900074D01*
X139504846Y-114903890D01*
X139519629Y-114909179D01*
X139533823Y-114915893D01*
X139547291Y-114923965D01*
X139559903Y-114933318D01*
X139571537Y-114943863D01*
X139582082Y-114955497D01*
X139591435Y-114968109D01*
X139599507Y-114981577D01*
X139606221Y-114995771D01*
X139611510Y-115010554D01*
X139615326Y-115025786D01*
X139617630Y-115041317D01*
X139618400Y-115057000D01*
X139618400Y-116337000D01*
X139617630Y-116352683D01*
X139615326Y-116368214D01*
X139611510Y-116383446D01*
X139606221Y-116398229D01*
X139599507Y-116412423D01*
X139591435Y-116425891D01*
X139582082Y-116438503D01*
X139571537Y-116450137D01*
X139559903Y-116460682D01*
X139547291Y-116470035D01*
X139533823Y-116478107D01*
X139519629Y-116484821D01*
X139504846Y-116490110D01*
X139489614Y-116493926D01*
X139474083Y-116496230D01*
X139458400Y-116497000D01*
X137978400Y-116497000D01*
X137962717Y-116496230D01*
X137947186Y-116493926D01*
X137931954Y-116490110D01*
X137917171Y-116484821D01*
X137902977Y-116478107D01*
X137889509Y-116470035D01*
X137876897Y-116460682D01*
X137865263Y-116450137D01*
X137854718Y-116438503D01*
X137845365Y-116425891D01*
X137837293Y-116412423D01*
X137830579Y-116398229D01*
X137825290Y-116383446D01*
X137821474Y-116368214D01*
X137819170Y-116352683D01*
X137818400Y-116337000D01*
X137818400Y-115057000D01*
X137819170Y-115041317D01*
X137821474Y-115025786D01*
X137825290Y-115010554D01*
X137830579Y-114995771D01*
X137837293Y-114981577D01*
X137845365Y-114968109D01*
X137854718Y-114955497D01*
X137865263Y-114943863D01*
X137876897Y-114933318D01*
X137889509Y-114923965D01*
X137902977Y-114915893D01*
X137917171Y-114909179D01*
X137931954Y-114903890D01*
X137947186Y-114900074D01*
X137962717Y-114897770D01*
X137978400Y-114897000D01*
X139458400Y-114897000D01*
X139474083Y-114897770D01*
X139474083Y-114897770D01*
G37*
D11*
X138718400Y-115697000D03*
D10*
G36*
X156474083Y-84417770D02*
G01*
X156489614Y-84420074D01*
X156504846Y-84423890D01*
X156519629Y-84429179D01*
X156533823Y-84435893D01*
X156547291Y-84443965D01*
X156559903Y-84453318D01*
X156571537Y-84463863D01*
X156582082Y-84475497D01*
X156591435Y-84488109D01*
X156599507Y-84501577D01*
X156606221Y-84515771D01*
X156611510Y-84530554D01*
X156615326Y-84545786D01*
X156617630Y-84561317D01*
X156618400Y-84577000D01*
X156618400Y-85857000D01*
X156617630Y-85872683D01*
X156615326Y-85888214D01*
X156611510Y-85903446D01*
X156606221Y-85918229D01*
X156599507Y-85932423D01*
X156591435Y-85945891D01*
X156582082Y-85958503D01*
X156571537Y-85970137D01*
X156559903Y-85980682D01*
X156547291Y-85990035D01*
X156533823Y-85998107D01*
X156519629Y-86004821D01*
X156504846Y-86010110D01*
X156489614Y-86013926D01*
X156474083Y-86016230D01*
X156458400Y-86017000D01*
X154978400Y-86017000D01*
X154962717Y-86016230D01*
X154947186Y-86013926D01*
X154931954Y-86010110D01*
X154917171Y-86004821D01*
X154902977Y-85998107D01*
X154889509Y-85990035D01*
X154876897Y-85980682D01*
X154865263Y-85970137D01*
X154854718Y-85958503D01*
X154845365Y-85945891D01*
X154837293Y-85932423D01*
X154830579Y-85918229D01*
X154825290Y-85903446D01*
X154821474Y-85888214D01*
X154819170Y-85872683D01*
X154818400Y-85857000D01*
X154818400Y-84577000D01*
X154819170Y-84561317D01*
X154821474Y-84545786D01*
X154825290Y-84530554D01*
X154830579Y-84515771D01*
X154837293Y-84501577D01*
X154845365Y-84488109D01*
X154854718Y-84475497D01*
X154865263Y-84463863D01*
X154876897Y-84453318D01*
X154889509Y-84443965D01*
X154902977Y-84435893D01*
X154917171Y-84429179D01*
X154931954Y-84423890D01*
X154947186Y-84420074D01*
X154962717Y-84417770D01*
X154978400Y-84417000D01*
X156458400Y-84417000D01*
X156474083Y-84417770D01*
X156474083Y-84417770D01*
G37*
D11*
X155718400Y-85217000D03*
D10*
G36*
X139474083Y-112357770D02*
G01*
X139489614Y-112360074D01*
X139504846Y-112363890D01*
X139519629Y-112369179D01*
X139533823Y-112375893D01*
X139547291Y-112383965D01*
X139559903Y-112393318D01*
X139571537Y-112403863D01*
X139582082Y-112415497D01*
X139591435Y-112428109D01*
X139599507Y-112441577D01*
X139606221Y-112455771D01*
X139611510Y-112470554D01*
X139615326Y-112485786D01*
X139617630Y-112501317D01*
X139618400Y-112517000D01*
X139618400Y-113797000D01*
X139617630Y-113812683D01*
X139615326Y-113828214D01*
X139611510Y-113843446D01*
X139606221Y-113858229D01*
X139599507Y-113872423D01*
X139591435Y-113885891D01*
X139582082Y-113898503D01*
X139571537Y-113910137D01*
X139559903Y-113920682D01*
X139547291Y-113930035D01*
X139533823Y-113938107D01*
X139519629Y-113944821D01*
X139504846Y-113950110D01*
X139489614Y-113953926D01*
X139474083Y-113956230D01*
X139458400Y-113957000D01*
X137978400Y-113957000D01*
X137962717Y-113956230D01*
X137947186Y-113953926D01*
X137931954Y-113950110D01*
X137917171Y-113944821D01*
X137902977Y-113938107D01*
X137889509Y-113930035D01*
X137876897Y-113920682D01*
X137865263Y-113910137D01*
X137854718Y-113898503D01*
X137845365Y-113885891D01*
X137837293Y-113872423D01*
X137830579Y-113858229D01*
X137825290Y-113843446D01*
X137821474Y-113828214D01*
X137819170Y-113812683D01*
X137818400Y-113797000D01*
X137818400Y-112517000D01*
X137819170Y-112501317D01*
X137821474Y-112485786D01*
X137825290Y-112470554D01*
X137830579Y-112455771D01*
X137837293Y-112441577D01*
X137845365Y-112428109D01*
X137854718Y-112415497D01*
X137865263Y-112403863D01*
X137876897Y-112393318D01*
X137889509Y-112383965D01*
X137902977Y-112375893D01*
X137917171Y-112369179D01*
X137931954Y-112363890D01*
X137947186Y-112360074D01*
X137962717Y-112357770D01*
X137978400Y-112357000D01*
X139458400Y-112357000D01*
X139474083Y-112357770D01*
X139474083Y-112357770D01*
G37*
D11*
X138718400Y-113157000D03*
D10*
G36*
X156474083Y-86957770D02*
G01*
X156489614Y-86960074D01*
X156504846Y-86963890D01*
X156519629Y-86969179D01*
X156533823Y-86975893D01*
X156547291Y-86983965D01*
X156559903Y-86993318D01*
X156571537Y-87003863D01*
X156582082Y-87015497D01*
X156591435Y-87028109D01*
X156599507Y-87041577D01*
X156606221Y-87055771D01*
X156611510Y-87070554D01*
X156615326Y-87085786D01*
X156617630Y-87101317D01*
X156618400Y-87117000D01*
X156618400Y-88397000D01*
X156617630Y-88412683D01*
X156615326Y-88428214D01*
X156611510Y-88443446D01*
X156606221Y-88458229D01*
X156599507Y-88472423D01*
X156591435Y-88485891D01*
X156582082Y-88498503D01*
X156571537Y-88510137D01*
X156559903Y-88520682D01*
X156547291Y-88530035D01*
X156533823Y-88538107D01*
X156519629Y-88544821D01*
X156504846Y-88550110D01*
X156489614Y-88553926D01*
X156474083Y-88556230D01*
X156458400Y-88557000D01*
X154978400Y-88557000D01*
X154962717Y-88556230D01*
X154947186Y-88553926D01*
X154931954Y-88550110D01*
X154917171Y-88544821D01*
X154902977Y-88538107D01*
X154889509Y-88530035D01*
X154876897Y-88520682D01*
X154865263Y-88510137D01*
X154854718Y-88498503D01*
X154845365Y-88485891D01*
X154837293Y-88472423D01*
X154830579Y-88458229D01*
X154825290Y-88443446D01*
X154821474Y-88428214D01*
X154819170Y-88412683D01*
X154818400Y-88397000D01*
X154818400Y-87117000D01*
X154819170Y-87101317D01*
X154821474Y-87085786D01*
X154825290Y-87070554D01*
X154830579Y-87055771D01*
X154837293Y-87041577D01*
X154845365Y-87028109D01*
X154854718Y-87015497D01*
X154865263Y-87003863D01*
X154876897Y-86993318D01*
X154889509Y-86983965D01*
X154902977Y-86975893D01*
X154917171Y-86969179D01*
X154931954Y-86963890D01*
X154947186Y-86960074D01*
X154962717Y-86957770D01*
X154978400Y-86957000D01*
X156458400Y-86957000D01*
X156474083Y-86957770D01*
X156474083Y-86957770D01*
G37*
D11*
X155718400Y-87757000D03*
D10*
G36*
X139474083Y-109817770D02*
G01*
X139489614Y-109820074D01*
X139504846Y-109823890D01*
X139519629Y-109829179D01*
X139533823Y-109835893D01*
X139547291Y-109843965D01*
X139559903Y-109853318D01*
X139571537Y-109863863D01*
X139582082Y-109875497D01*
X139591435Y-109888109D01*
X139599507Y-109901577D01*
X139606221Y-109915771D01*
X139611510Y-109930554D01*
X139615326Y-109945786D01*
X139617630Y-109961317D01*
X139618400Y-109977000D01*
X139618400Y-111257000D01*
X139617630Y-111272683D01*
X139615326Y-111288214D01*
X139611510Y-111303446D01*
X139606221Y-111318229D01*
X139599507Y-111332423D01*
X139591435Y-111345891D01*
X139582082Y-111358503D01*
X139571537Y-111370137D01*
X139559903Y-111380682D01*
X139547291Y-111390035D01*
X139533823Y-111398107D01*
X139519629Y-111404821D01*
X139504846Y-111410110D01*
X139489614Y-111413926D01*
X139474083Y-111416230D01*
X139458400Y-111417000D01*
X137978400Y-111417000D01*
X137962717Y-111416230D01*
X137947186Y-111413926D01*
X137931954Y-111410110D01*
X137917171Y-111404821D01*
X137902977Y-111398107D01*
X137889509Y-111390035D01*
X137876897Y-111380682D01*
X137865263Y-111370137D01*
X137854718Y-111358503D01*
X137845365Y-111345891D01*
X137837293Y-111332423D01*
X137830579Y-111318229D01*
X137825290Y-111303446D01*
X137821474Y-111288214D01*
X137819170Y-111272683D01*
X137818400Y-111257000D01*
X137818400Y-109977000D01*
X137819170Y-109961317D01*
X137821474Y-109945786D01*
X137825290Y-109930554D01*
X137830579Y-109915771D01*
X137837293Y-109901577D01*
X137845365Y-109888109D01*
X137854718Y-109875497D01*
X137865263Y-109863863D01*
X137876897Y-109853318D01*
X137889509Y-109843965D01*
X137902977Y-109835893D01*
X137917171Y-109829179D01*
X137931954Y-109823890D01*
X137947186Y-109820074D01*
X137962717Y-109817770D01*
X137978400Y-109817000D01*
X139458400Y-109817000D01*
X139474083Y-109817770D01*
X139474083Y-109817770D01*
G37*
D11*
X138718400Y-110617000D03*
D10*
G36*
X156474083Y-89497770D02*
G01*
X156489614Y-89500074D01*
X156504846Y-89503890D01*
X156519629Y-89509179D01*
X156533823Y-89515893D01*
X156547291Y-89523965D01*
X156559903Y-89533318D01*
X156571537Y-89543863D01*
X156582082Y-89555497D01*
X156591435Y-89568109D01*
X156599507Y-89581577D01*
X156606221Y-89595771D01*
X156611510Y-89610554D01*
X156615326Y-89625786D01*
X156617630Y-89641317D01*
X156618400Y-89657000D01*
X156618400Y-90937000D01*
X156617630Y-90952683D01*
X156615326Y-90968214D01*
X156611510Y-90983446D01*
X156606221Y-90998229D01*
X156599507Y-91012423D01*
X156591435Y-91025891D01*
X156582082Y-91038503D01*
X156571537Y-91050137D01*
X156559903Y-91060682D01*
X156547291Y-91070035D01*
X156533823Y-91078107D01*
X156519629Y-91084821D01*
X156504846Y-91090110D01*
X156489614Y-91093926D01*
X156474083Y-91096230D01*
X156458400Y-91097000D01*
X154978400Y-91097000D01*
X154962717Y-91096230D01*
X154947186Y-91093926D01*
X154931954Y-91090110D01*
X154917171Y-91084821D01*
X154902977Y-91078107D01*
X154889509Y-91070035D01*
X154876897Y-91060682D01*
X154865263Y-91050137D01*
X154854718Y-91038503D01*
X154845365Y-91025891D01*
X154837293Y-91012423D01*
X154830579Y-90998229D01*
X154825290Y-90983446D01*
X154821474Y-90968214D01*
X154819170Y-90952683D01*
X154818400Y-90937000D01*
X154818400Y-89657000D01*
X154819170Y-89641317D01*
X154821474Y-89625786D01*
X154825290Y-89610554D01*
X154830579Y-89595771D01*
X154837293Y-89581577D01*
X154845365Y-89568109D01*
X154854718Y-89555497D01*
X154865263Y-89543863D01*
X154876897Y-89533318D01*
X154889509Y-89523965D01*
X154902977Y-89515893D01*
X154917171Y-89509179D01*
X154931954Y-89503890D01*
X154947186Y-89500074D01*
X154962717Y-89497770D01*
X154978400Y-89497000D01*
X156458400Y-89497000D01*
X156474083Y-89497770D01*
X156474083Y-89497770D01*
G37*
D11*
X155718400Y-90297000D03*
D10*
G36*
X139474083Y-107277770D02*
G01*
X139489614Y-107280074D01*
X139504846Y-107283890D01*
X139519629Y-107289179D01*
X139533823Y-107295893D01*
X139547291Y-107303965D01*
X139559903Y-107313318D01*
X139571537Y-107323863D01*
X139582082Y-107335497D01*
X139591435Y-107348109D01*
X139599507Y-107361577D01*
X139606221Y-107375771D01*
X139611510Y-107390554D01*
X139615326Y-107405786D01*
X139617630Y-107421317D01*
X139618400Y-107437000D01*
X139618400Y-108717000D01*
X139617630Y-108732683D01*
X139615326Y-108748214D01*
X139611510Y-108763446D01*
X139606221Y-108778229D01*
X139599507Y-108792423D01*
X139591435Y-108805891D01*
X139582082Y-108818503D01*
X139571537Y-108830137D01*
X139559903Y-108840682D01*
X139547291Y-108850035D01*
X139533823Y-108858107D01*
X139519629Y-108864821D01*
X139504846Y-108870110D01*
X139489614Y-108873926D01*
X139474083Y-108876230D01*
X139458400Y-108877000D01*
X137978400Y-108877000D01*
X137962717Y-108876230D01*
X137947186Y-108873926D01*
X137931954Y-108870110D01*
X137917171Y-108864821D01*
X137902977Y-108858107D01*
X137889509Y-108850035D01*
X137876897Y-108840682D01*
X137865263Y-108830137D01*
X137854718Y-108818503D01*
X137845365Y-108805891D01*
X137837293Y-108792423D01*
X137830579Y-108778229D01*
X137825290Y-108763446D01*
X137821474Y-108748214D01*
X137819170Y-108732683D01*
X137818400Y-108717000D01*
X137818400Y-107437000D01*
X137819170Y-107421317D01*
X137821474Y-107405786D01*
X137825290Y-107390554D01*
X137830579Y-107375771D01*
X137837293Y-107361577D01*
X137845365Y-107348109D01*
X137854718Y-107335497D01*
X137865263Y-107323863D01*
X137876897Y-107313318D01*
X137889509Y-107303965D01*
X137902977Y-107295893D01*
X137917171Y-107289179D01*
X137931954Y-107283890D01*
X137947186Y-107280074D01*
X137962717Y-107277770D01*
X137978400Y-107277000D01*
X139458400Y-107277000D01*
X139474083Y-107277770D01*
X139474083Y-107277770D01*
G37*
D11*
X138718400Y-108077000D03*
D10*
G36*
X156474083Y-92037770D02*
G01*
X156489614Y-92040074D01*
X156504846Y-92043890D01*
X156519629Y-92049179D01*
X156533823Y-92055893D01*
X156547291Y-92063965D01*
X156559903Y-92073318D01*
X156571537Y-92083863D01*
X156582082Y-92095497D01*
X156591435Y-92108109D01*
X156599507Y-92121577D01*
X156606221Y-92135771D01*
X156611510Y-92150554D01*
X156615326Y-92165786D01*
X156617630Y-92181317D01*
X156618400Y-92197000D01*
X156618400Y-93477000D01*
X156617630Y-93492683D01*
X156615326Y-93508214D01*
X156611510Y-93523446D01*
X156606221Y-93538229D01*
X156599507Y-93552423D01*
X156591435Y-93565891D01*
X156582082Y-93578503D01*
X156571537Y-93590137D01*
X156559903Y-93600682D01*
X156547291Y-93610035D01*
X156533823Y-93618107D01*
X156519629Y-93624821D01*
X156504846Y-93630110D01*
X156489614Y-93633926D01*
X156474083Y-93636230D01*
X156458400Y-93637000D01*
X154978400Y-93637000D01*
X154962717Y-93636230D01*
X154947186Y-93633926D01*
X154931954Y-93630110D01*
X154917171Y-93624821D01*
X154902977Y-93618107D01*
X154889509Y-93610035D01*
X154876897Y-93600682D01*
X154865263Y-93590137D01*
X154854718Y-93578503D01*
X154845365Y-93565891D01*
X154837293Y-93552423D01*
X154830579Y-93538229D01*
X154825290Y-93523446D01*
X154821474Y-93508214D01*
X154819170Y-93492683D01*
X154818400Y-93477000D01*
X154818400Y-92197000D01*
X154819170Y-92181317D01*
X154821474Y-92165786D01*
X154825290Y-92150554D01*
X154830579Y-92135771D01*
X154837293Y-92121577D01*
X154845365Y-92108109D01*
X154854718Y-92095497D01*
X154865263Y-92083863D01*
X154876897Y-92073318D01*
X154889509Y-92063965D01*
X154902977Y-92055893D01*
X154917171Y-92049179D01*
X154931954Y-92043890D01*
X154947186Y-92040074D01*
X154962717Y-92037770D01*
X154978400Y-92037000D01*
X156458400Y-92037000D01*
X156474083Y-92037770D01*
X156474083Y-92037770D01*
G37*
D11*
X155718400Y-92837000D03*
D10*
G36*
X139474083Y-104737770D02*
G01*
X139489614Y-104740074D01*
X139504846Y-104743890D01*
X139519629Y-104749179D01*
X139533823Y-104755893D01*
X139547291Y-104763965D01*
X139559903Y-104773318D01*
X139571537Y-104783863D01*
X139582082Y-104795497D01*
X139591435Y-104808109D01*
X139599507Y-104821577D01*
X139606221Y-104835771D01*
X139611510Y-104850554D01*
X139615326Y-104865786D01*
X139617630Y-104881317D01*
X139618400Y-104897000D01*
X139618400Y-106177000D01*
X139617630Y-106192683D01*
X139615326Y-106208214D01*
X139611510Y-106223446D01*
X139606221Y-106238229D01*
X139599507Y-106252423D01*
X139591435Y-106265891D01*
X139582082Y-106278503D01*
X139571537Y-106290137D01*
X139559903Y-106300682D01*
X139547291Y-106310035D01*
X139533823Y-106318107D01*
X139519629Y-106324821D01*
X139504846Y-106330110D01*
X139489614Y-106333926D01*
X139474083Y-106336230D01*
X139458400Y-106337000D01*
X137978400Y-106337000D01*
X137962717Y-106336230D01*
X137947186Y-106333926D01*
X137931954Y-106330110D01*
X137917171Y-106324821D01*
X137902977Y-106318107D01*
X137889509Y-106310035D01*
X137876897Y-106300682D01*
X137865263Y-106290137D01*
X137854718Y-106278503D01*
X137845365Y-106265891D01*
X137837293Y-106252423D01*
X137830579Y-106238229D01*
X137825290Y-106223446D01*
X137821474Y-106208214D01*
X137819170Y-106192683D01*
X137818400Y-106177000D01*
X137818400Y-104897000D01*
X137819170Y-104881317D01*
X137821474Y-104865786D01*
X137825290Y-104850554D01*
X137830579Y-104835771D01*
X137837293Y-104821577D01*
X137845365Y-104808109D01*
X137854718Y-104795497D01*
X137865263Y-104783863D01*
X137876897Y-104773318D01*
X137889509Y-104763965D01*
X137902977Y-104755893D01*
X137917171Y-104749179D01*
X137931954Y-104743890D01*
X137947186Y-104740074D01*
X137962717Y-104737770D01*
X137978400Y-104737000D01*
X139458400Y-104737000D01*
X139474083Y-104737770D01*
X139474083Y-104737770D01*
G37*
D11*
X138718400Y-105537000D03*
D10*
G36*
X156474083Y-94577770D02*
G01*
X156489614Y-94580074D01*
X156504846Y-94583890D01*
X156519629Y-94589179D01*
X156533823Y-94595893D01*
X156547291Y-94603965D01*
X156559903Y-94613318D01*
X156571537Y-94623863D01*
X156582082Y-94635497D01*
X156591435Y-94648109D01*
X156599507Y-94661577D01*
X156606221Y-94675771D01*
X156611510Y-94690554D01*
X156615326Y-94705786D01*
X156617630Y-94721317D01*
X156618400Y-94737000D01*
X156618400Y-96017000D01*
X156617630Y-96032683D01*
X156615326Y-96048214D01*
X156611510Y-96063446D01*
X156606221Y-96078229D01*
X156599507Y-96092423D01*
X156591435Y-96105891D01*
X156582082Y-96118503D01*
X156571537Y-96130137D01*
X156559903Y-96140682D01*
X156547291Y-96150035D01*
X156533823Y-96158107D01*
X156519629Y-96164821D01*
X156504846Y-96170110D01*
X156489614Y-96173926D01*
X156474083Y-96176230D01*
X156458400Y-96177000D01*
X154978400Y-96177000D01*
X154962717Y-96176230D01*
X154947186Y-96173926D01*
X154931954Y-96170110D01*
X154917171Y-96164821D01*
X154902977Y-96158107D01*
X154889509Y-96150035D01*
X154876897Y-96140682D01*
X154865263Y-96130137D01*
X154854718Y-96118503D01*
X154845365Y-96105891D01*
X154837293Y-96092423D01*
X154830579Y-96078229D01*
X154825290Y-96063446D01*
X154821474Y-96048214D01*
X154819170Y-96032683D01*
X154818400Y-96017000D01*
X154818400Y-94737000D01*
X154819170Y-94721317D01*
X154821474Y-94705786D01*
X154825290Y-94690554D01*
X154830579Y-94675771D01*
X154837293Y-94661577D01*
X154845365Y-94648109D01*
X154854718Y-94635497D01*
X154865263Y-94623863D01*
X154876897Y-94613318D01*
X154889509Y-94603965D01*
X154902977Y-94595893D01*
X154917171Y-94589179D01*
X154931954Y-94583890D01*
X154947186Y-94580074D01*
X154962717Y-94577770D01*
X154978400Y-94577000D01*
X156458400Y-94577000D01*
X156474083Y-94577770D01*
X156474083Y-94577770D01*
G37*
D11*
X155718400Y-95377000D03*
D10*
G36*
X139474083Y-102197770D02*
G01*
X139489614Y-102200074D01*
X139504846Y-102203890D01*
X139519629Y-102209179D01*
X139533823Y-102215893D01*
X139547291Y-102223965D01*
X139559903Y-102233318D01*
X139571537Y-102243863D01*
X139582082Y-102255497D01*
X139591435Y-102268109D01*
X139599507Y-102281577D01*
X139606221Y-102295771D01*
X139611510Y-102310554D01*
X139615326Y-102325786D01*
X139617630Y-102341317D01*
X139618400Y-102357000D01*
X139618400Y-103637000D01*
X139617630Y-103652683D01*
X139615326Y-103668214D01*
X139611510Y-103683446D01*
X139606221Y-103698229D01*
X139599507Y-103712423D01*
X139591435Y-103725891D01*
X139582082Y-103738503D01*
X139571537Y-103750137D01*
X139559903Y-103760682D01*
X139547291Y-103770035D01*
X139533823Y-103778107D01*
X139519629Y-103784821D01*
X139504846Y-103790110D01*
X139489614Y-103793926D01*
X139474083Y-103796230D01*
X139458400Y-103797000D01*
X137978400Y-103797000D01*
X137962717Y-103796230D01*
X137947186Y-103793926D01*
X137931954Y-103790110D01*
X137917171Y-103784821D01*
X137902977Y-103778107D01*
X137889509Y-103770035D01*
X137876897Y-103760682D01*
X137865263Y-103750137D01*
X137854718Y-103738503D01*
X137845365Y-103725891D01*
X137837293Y-103712423D01*
X137830579Y-103698229D01*
X137825290Y-103683446D01*
X137821474Y-103668214D01*
X137819170Y-103652683D01*
X137818400Y-103637000D01*
X137818400Y-102357000D01*
X137819170Y-102341317D01*
X137821474Y-102325786D01*
X137825290Y-102310554D01*
X137830579Y-102295771D01*
X137837293Y-102281577D01*
X137845365Y-102268109D01*
X137854718Y-102255497D01*
X137865263Y-102243863D01*
X137876897Y-102233318D01*
X137889509Y-102223965D01*
X137902977Y-102215893D01*
X137917171Y-102209179D01*
X137931954Y-102203890D01*
X137947186Y-102200074D01*
X137962717Y-102197770D01*
X137978400Y-102197000D01*
X139458400Y-102197000D01*
X139474083Y-102197770D01*
X139474083Y-102197770D01*
G37*
D11*
X138718400Y-102997000D03*
D10*
G36*
X156474083Y-97117770D02*
G01*
X156489614Y-97120074D01*
X156504846Y-97123890D01*
X156519629Y-97129179D01*
X156533823Y-97135893D01*
X156547291Y-97143965D01*
X156559903Y-97153318D01*
X156571537Y-97163863D01*
X156582082Y-97175497D01*
X156591435Y-97188109D01*
X156599507Y-97201577D01*
X156606221Y-97215771D01*
X156611510Y-97230554D01*
X156615326Y-97245786D01*
X156617630Y-97261317D01*
X156618400Y-97277000D01*
X156618400Y-98557000D01*
X156617630Y-98572683D01*
X156615326Y-98588214D01*
X156611510Y-98603446D01*
X156606221Y-98618229D01*
X156599507Y-98632423D01*
X156591435Y-98645891D01*
X156582082Y-98658503D01*
X156571537Y-98670137D01*
X156559903Y-98680682D01*
X156547291Y-98690035D01*
X156533823Y-98698107D01*
X156519629Y-98704821D01*
X156504846Y-98710110D01*
X156489614Y-98713926D01*
X156474083Y-98716230D01*
X156458400Y-98717000D01*
X154978400Y-98717000D01*
X154962717Y-98716230D01*
X154947186Y-98713926D01*
X154931954Y-98710110D01*
X154917171Y-98704821D01*
X154902977Y-98698107D01*
X154889509Y-98690035D01*
X154876897Y-98680682D01*
X154865263Y-98670137D01*
X154854718Y-98658503D01*
X154845365Y-98645891D01*
X154837293Y-98632423D01*
X154830579Y-98618229D01*
X154825290Y-98603446D01*
X154821474Y-98588214D01*
X154819170Y-98572683D01*
X154818400Y-98557000D01*
X154818400Y-97277000D01*
X154819170Y-97261317D01*
X154821474Y-97245786D01*
X154825290Y-97230554D01*
X154830579Y-97215771D01*
X154837293Y-97201577D01*
X154845365Y-97188109D01*
X154854718Y-97175497D01*
X154865263Y-97163863D01*
X154876897Y-97153318D01*
X154889509Y-97143965D01*
X154902977Y-97135893D01*
X154917171Y-97129179D01*
X154931954Y-97123890D01*
X154947186Y-97120074D01*
X154962717Y-97117770D01*
X154978400Y-97117000D01*
X156458400Y-97117000D01*
X156474083Y-97117770D01*
X156474083Y-97117770D01*
G37*
D11*
X155718400Y-97917000D03*
D10*
G36*
X139474083Y-99657770D02*
G01*
X139489614Y-99660074D01*
X139504846Y-99663890D01*
X139519629Y-99669179D01*
X139533823Y-99675893D01*
X139547291Y-99683965D01*
X139559903Y-99693318D01*
X139571537Y-99703863D01*
X139582082Y-99715497D01*
X139591435Y-99728109D01*
X139599507Y-99741577D01*
X139606221Y-99755771D01*
X139611510Y-99770554D01*
X139615326Y-99785786D01*
X139617630Y-99801317D01*
X139618400Y-99817000D01*
X139618400Y-101097000D01*
X139617630Y-101112683D01*
X139615326Y-101128214D01*
X139611510Y-101143446D01*
X139606221Y-101158229D01*
X139599507Y-101172423D01*
X139591435Y-101185891D01*
X139582082Y-101198503D01*
X139571537Y-101210137D01*
X139559903Y-101220682D01*
X139547291Y-101230035D01*
X139533823Y-101238107D01*
X139519629Y-101244821D01*
X139504846Y-101250110D01*
X139489614Y-101253926D01*
X139474083Y-101256230D01*
X139458400Y-101257000D01*
X137978400Y-101257000D01*
X137962717Y-101256230D01*
X137947186Y-101253926D01*
X137931954Y-101250110D01*
X137917171Y-101244821D01*
X137902977Y-101238107D01*
X137889509Y-101230035D01*
X137876897Y-101220682D01*
X137865263Y-101210137D01*
X137854718Y-101198503D01*
X137845365Y-101185891D01*
X137837293Y-101172423D01*
X137830579Y-101158229D01*
X137825290Y-101143446D01*
X137821474Y-101128214D01*
X137819170Y-101112683D01*
X137818400Y-101097000D01*
X137818400Y-99817000D01*
X137819170Y-99801317D01*
X137821474Y-99785786D01*
X137825290Y-99770554D01*
X137830579Y-99755771D01*
X137837293Y-99741577D01*
X137845365Y-99728109D01*
X137854718Y-99715497D01*
X137865263Y-99703863D01*
X137876897Y-99693318D01*
X137889509Y-99683965D01*
X137902977Y-99675893D01*
X137917171Y-99669179D01*
X137931954Y-99663890D01*
X137947186Y-99660074D01*
X137962717Y-99657770D01*
X137978400Y-99657000D01*
X139458400Y-99657000D01*
X139474083Y-99657770D01*
X139474083Y-99657770D01*
G37*
D11*
X138718400Y-100457000D03*
D10*
G36*
X156474083Y-99657770D02*
G01*
X156489614Y-99660074D01*
X156504846Y-99663890D01*
X156519629Y-99669179D01*
X156533823Y-99675893D01*
X156547291Y-99683965D01*
X156559903Y-99693318D01*
X156571537Y-99703863D01*
X156582082Y-99715497D01*
X156591435Y-99728109D01*
X156599507Y-99741577D01*
X156606221Y-99755771D01*
X156611510Y-99770554D01*
X156615326Y-99785786D01*
X156617630Y-99801317D01*
X156618400Y-99817000D01*
X156618400Y-101097000D01*
X156617630Y-101112683D01*
X156615326Y-101128214D01*
X156611510Y-101143446D01*
X156606221Y-101158229D01*
X156599507Y-101172423D01*
X156591435Y-101185891D01*
X156582082Y-101198503D01*
X156571537Y-101210137D01*
X156559903Y-101220682D01*
X156547291Y-101230035D01*
X156533823Y-101238107D01*
X156519629Y-101244821D01*
X156504846Y-101250110D01*
X156489614Y-101253926D01*
X156474083Y-101256230D01*
X156458400Y-101257000D01*
X154978400Y-101257000D01*
X154962717Y-101256230D01*
X154947186Y-101253926D01*
X154931954Y-101250110D01*
X154917171Y-101244821D01*
X154902977Y-101238107D01*
X154889509Y-101230035D01*
X154876897Y-101220682D01*
X154865263Y-101210137D01*
X154854718Y-101198503D01*
X154845365Y-101185891D01*
X154837293Y-101172423D01*
X154830579Y-101158229D01*
X154825290Y-101143446D01*
X154821474Y-101128214D01*
X154819170Y-101112683D01*
X154818400Y-101097000D01*
X154818400Y-99817000D01*
X154819170Y-99801317D01*
X154821474Y-99785786D01*
X154825290Y-99770554D01*
X154830579Y-99755771D01*
X154837293Y-99741577D01*
X154845365Y-99728109D01*
X154854718Y-99715497D01*
X154865263Y-99703863D01*
X154876897Y-99693318D01*
X154889509Y-99683965D01*
X154902977Y-99675893D01*
X154917171Y-99669179D01*
X154931954Y-99663890D01*
X154947186Y-99660074D01*
X154962717Y-99657770D01*
X154978400Y-99657000D01*
X156458400Y-99657000D01*
X156474083Y-99657770D01*
X156474083Y-99657770D01*
G37*
D11*
X155718400Y-100457000D03*
D10*
G36*
X139474083Y-97117770D02*
G01*
X139489614Y-97120074D01*
X139504846Y-97123890D01*
X139519629Y-97129179D01*
X139533823Y-97135893D01*
X139547291Y-97143965D01*
X139559903Y-97153318D01*
X139571537Y-97163863D01*
X139582082Y-97175497D01*
X139591435Y-97188109D01*
X139599507Y-97201577D01*
X139606221Y-97215771D01*
X139611510Y-97230554D01*
X139615326Y-97245786D01*
X139617630Y-97261317D01*
X139618400Y-97277000D01*
X139618400Y-98557000D01*
X139617630Y-98572683D01*
X139615326Y-98588214D01*
X139611510Y-98603446D01*
X139606221Y-98618229D01*
X139599507Y-98632423D01*
X139591435Y-98645891D01*
X139582082Y-98658503D01*
X139571537Y-98670137D01*
X139559903Y-98680682D01*
X139547291Y-98690035D01*
X139533823Y-98698107D01*
X139519629Y-98704821D01*
X139504846Y-98710110D01*
X139489614Y-98713926D01*
X139474083Y-98716230D01*
X139458400Y-98717000D01*
X137978400Y-98717000D01*
X137962717Y-98716230D01*
X137947186Y-98713926D01*
X137931954Y-98710110D01*
X137917171Y-98704821D01*
X137902977Y-98698107D01*
X137889509Y-98690035D01*
X137876897Y-98680682D01*
X137865263Y-98670137D01*
X137854718Y-98658503D01*
X137845365Y-98645891D01*
X137837293Y-98632423D01*
X137830579Y-98618229D01*
X137825290Y-98603446D01*
X137821474Y-98588214D01*
X137819170Y-98572683D01*
X137818400Y-98557000D01*
X137818400Y-97277000D01*
X137819170Y-97261317D01*
X137821474Y-97245786D01*
X137825290Y-97230554D01*
X137830579Y-97215771D01*
X137837293Y-97201577D01*
X137845365Y-97188109D01*
X137854718Y-97175497D01*
X137865263Y-97163863D01*
X137876897Y-97153318D01*
X137889509Y-97143965D01*
X137902977Y-97135893D01*
X137917171Y-97129179D01*
X137931954Y-97123890D01*
X137947186Y-97120074D01*
X137962717Y-97117770D01*
X137978400Y-97117000D01*
X139458400Y-97117000D01*
X139474083Y-97117770D01*
X139474083Y-97117770D01*
G37*
D11*
X138718400Y-97917000D03*
D10*
G36*
X156474083Y-102197770D02*
G01*
X156489614Y-102200074D01*
X156504846Y-102203890D01*
X156519629Y-102209179D01*
X156533823Y-102215893D01*
X156547291Y-102223965D01*
X156559903Y-102233318D01*
X156571537Y-102243863D01*
X156582082Y-102255497D01*
X156591435Y-102268109D01*
X156599507Y-102281577D01*
X156606221Y-102295771D01*
X156611510Y-102310554D01*
X156615326Y-102325786D01*
X156617630Y-102341317D01*
X156618400Y-102357000D01*
X156618400Y-103637000D01*
X156617630Y-103652683D01*
X156615326Y-103668214D01*
X156611510Y-103683446D01*
X156606221Y-103698229D01*
X156599507Y-103712423D01*
X156591435Y-103725891D01*
X156582082Y-103738503D01*
X156571537Y-103750137D01*
X156559903Y-103760682D01*
X156547291Y-103770035D01*
X156533823Y-103778107D01*
X156519629Y-103784821D01*
X156504846Y-103790110D01*
X156489614Y-103793926D01*
X156474083Y-103796230D01*
X156458400Y-103797000D01*
X154978400Y-103797000D01*
X154962717Y-103796230D01*
X154947186Y-103793926D01*
X154931954Y-103790110D01*
X154917171Y-103784821D01*
X154902977Y-103778107D01*
X154889509Y-103770035D01*
X154876897Y-103760682D01*
X154865263Y-103750137D01*
X154854718Y-103738503D01*
X154845365Y-103725891D01*
X154837293Y-103712423D01*
X154830579Y-103698229D01*
X154825290Y-103683446D01*
X154821474Y-103668214D01*
X154819170Y-103652683D01*
X154818400Y-103637000D01*
X154818400Y-102357000D01*
X154819170Y-102341317D01*
X154821474Y-102325786D01*
X154825290Y-102310554D01*
X154830579Y-102295771D01*
X154837293Y-102281577D01*
X154845365Y-102268109D01*
X154854718Y-102255497D01*
X154865263Y-102243863D01*
X154876897Y-102233318D01*
X154889509Y-102223965D01*
X154902977Y-102215893D01*
X154917171Y-102209179D01*
X154931954Y-102203890D01*
X154947186Y-102200074D01*
X154962717Y-102197770D01*
X154978400Y-102197000D01*
X156458400Y-102197000D01*
X156474083Y-102197770D01*
X156474083Y-102197770D01*
G37*
D11*
X155718400Y-102997000D03*
D10*
G36*
X139474083Y-94577770D02*
G01*
X139489614Y-94580074D01*
X139504846Y-94583890D01*
X139519629Y-94589179D01*
X139533823Y-94595893D01*
X139547291Y-94603965D01*
X139559903Y-94613318D01*
X139571537Y-94623863D01*
X139582082Y-94635497D01*
X139591435Y-94648109D01*
X139599507Y-94661577D01*
X139606221Y-94675771D01*
X139611510Y-94690554D01*
X139615326Y-94705786D01*
X139617630Y-94721317D01*
X139618400Y-94737000D01*
X139618400Y-96017000D01*
X139617630Y-96032683D01*
X139615326Y-96048214D01*
X139611510Y-96063446D01*
X139606221Y-96078229D01*
X139599507Y-96092423D01*
X139591435Y-96105891D01*
X139582082Y-96118503D01*
X139571537Y-96130137D01*
X139559903Y-96140682D01*
X139547291Y-96150035D01*
X139533823Y-96158107D01*
X139519629Y-96164821D01*
X139504846Y-96170110D01*
X139489614Y-96173926D01*
X139474083Y-96176230D01*
X139458400Y-96177000D01*
X137978400Y-96177000D01*
X137962717Y-96176230D01*
X137947186Y-96173926D01*
X137931954Y-96170110D01*
X137917171Y-96164821D01*
X137902977Y-96158107D01*
X137889509Y-96150035D01*
X137876897Y-96140682D01*
X137865263Y-96130137D01*
X137854718Y-96118503D01*
X137845365Y-96105891D01*
X137837293Y-96092423D01*
X137830579Y-96078229D01*
X137825290Y-96063446D01*
X137821474Y-96048214D01*
X137819170Y-96032683D01*
X137818400Y-96017000D01*
X137818400Y-94737000D01*
X137819170Y-94721317D01*
X137821474Y-94705786D01*
X137825290Y-94690554D01*
X137830579Y-94675771D01*
X137837293Y-94661577D01*
X137845365Y-94648109D01*
X137854718Y-94635497D01*
X137865263Y-94623863D01*
X137876897Y-94613318D01*
X137889509Y-94603965D01*
X137902977Y-94595893D01*
X137917171Y-94589179D01*
X137931954Y-94583890D01*
X137947186Y-94580074D01*
X137962717Y-94577770D01*
X137978400Y-94577000D01*
X139458400Y-94577000D01*
X139474083Y-94577770D01*
X139474083Y-94577770D01*
G37*
D11*
X138718400Y-95377000D03*
D10*
G36*
X156474083Y-104737770D02*
G01*
X156489614Y-104740074D01*
X156504846Y-104743890D01*
X156519629Y-104749179D01*
X156533823Y-104755893D01*
X156547291Y-104763965D01*
X156559903Y-104773318D01*
X156571537Y-104783863D01*
X156582082Y-104795497D01*
X156591435Y-104808109D01*
X156599507Y-104821577D01*
X156606221Y-104835771D01*
X156611510Y-104850554D01*
X156615326Y-104865786D01*
X156617630Y-104881317D01*
X156618400Y-104897000D01*
X156618400Y-106177000D01*
X156617630Y-106192683D01*
X156615326Y-106208214D01*
X156611510Y-106223446D01*
X156606221Y-106238229D01*
X156599507Y-106252423D01*
X156591435Y-106265891D01*
X156582082Y-106278503D01*
X156571537Y-106290137D01*
X156559903Y-106300682D01*
X156547291Y-106310035D01*
X156533823Y-106318107D01*
X156519629Y-106324821D01*
X156504846Y-106330110D01*
X156489614Y-106333926D01*
X156474083Y-106336230D01*
X156458400Y-106337000D01*
X154978400Y-106337000D01*
X154962717Y-106336230D01*
X154947186Y-106333926D01*
X154931954Y-106330110D01*
X154917171Y-106324821D01*
X154902977Y-106318107D01*
X154889509Y-106310035D01*
X154876897Y-106300682D01*
X154865263Y-106290137D01*
X154854718Y-106278503D01*
X154845365Y-106265891D01*
X154837293Y-106252423D01*
X154830579Y-106238229D01*
X154825290Y-106223446D01*
X154821474Y-106208214D01*
X154819170Y-106192683D01*
X154818400Y-106177000D01*
X154818400Y-104897000D01*
X154819170Y-104881317D01*
X154821474Y-104865786D01*
X154825290Y-104850554D01*
X154830579Y-104835771D01*
X154837293Y-104821577D01*
X154845365Y-104808109D01*
X154854718Y-104795497D01*
X154865263Y-104783863D01*
X154876897Y-104773318D01*
X154889509Y-104763965D01*
X154902977Y-104755893D01*
X154917171Y-104749179D01*
X154931954Y-104743890D01*
X154947186Y-104740074D01*
X154962717Y-104737770D01*
X154978400Y-104737000D01*
X156458400Y-104737000D01*
X156474083Y-104737770D01*
X156474083Y-104737770D01*
G37*
D11*
X155718400Y-105537000D03*
D10*
G36*
X139474083Y-92037770D02*
G01*
X139489614Y-92040074D01*
X139504846Y-92043890D01*
X139519629Y-92049179D01*
X139533823Y-92055893D01*
X139547291Y-92063965D01*
X139559903Y-92073318D01*
X139571537Y-92083863D01*
X139582082Y-92095497D01*
X139591435Y-92108109D01*
X139599507Y-92121577D01*
X139606221Y-92135771D01*
X139611510Y-92150554D01*
X139615326Y-92165786D01*
X139617630Y-92181317D01*
X139618400Y-92197000D01*
X139618400Y-93477000D01*
X139617630Y-93492683D01*
X139615326Y-93508214D01*
X139611510Y-93523446D01*
X139606221Y-93538229D01*
X139599507Y-93552423D01*
X139591435Y-93565891D01*
X139582082Y-93578503D01*
X139571537Y-93590137D01*
X139559903Y-93600682D01*
X139547291Y-93610035D01*
X139533823Y-93618107D01*
X139519629Y-93624821D01*
X139504846Y-93630110D01*
X139489614Y-93633926D01*
X139474083Y-93636230D01*
X139458400Y-93637000D01*
X137978400Y-93637000D01*
X137962717Y-93636230D01*
X137947186Y-93633926D01*
X137931954Y-93630110D01*
X137917171Y-93624821D01*
X137902977Y-93618107D01*
X137889509Y-93610035D01*
X137876897Y-93600682D01*
X137865263Y-93590137D01*
X137854718Y-93578503D01*
X137845365Y-93565891D01*
X137837293Y-93552423D01*
X137830579Y-93538229D01*
X137825290Y-93523446D01*
X137821474Y-93508214D01*
X137819170Y-93492683D01*
X137818400Y-93477000D01*
X137818400Y-92197000D01*
X137819170Y-92181317D01*
X137821474Y-92165786D01*
X137825290Y-92150554D01*
X137830579Y-92135771D01*
X137837293Y-92121577D01*
X137845365Y-92108109D01*
X137854718Y-92095497D01*
X137865263Y-92083863D01*
X137876897Y-92073318D01*
X137889509Y-92063965D01*
X137902977Y-92055893D01*
X137917171Y-92049179D01*
X137931954Y-92043890D01*
X137947186Y-92040074D01*
X137962717Y-92037770D01*
X137978400Y-92037000D01*
X139458400Y-92037000D01*
X139474083Y-92037770D01*
X139474083Y-92037770D01*
G37*
D11*
X138718400Y-92837000D03*
D10*
G36*
X156474083Y-107277770D02*
G01*
X156489614Y-107280074D01*
X156504846Y-107283890D01*
X156519629Y-107289179D01*
X156533823Y-107295893D01*
X156547291Y-107303965D01*
X156559903Y-107313318D01*
X156571537Y-107323863D01*
X156582082Y-107335497D01*
X156591435Y-107348109D01*
X156599507Y-107361577D01*
X156606221Y-107375771D01*
X156611510Y-107390554D01*
X156615326Y-107405786D01*
X156617630Y-107421317D01*
X156618400Y-107437000D01*
X156618400Y-108717000D01*
X156617630Y-108732683D01*
X156615326Y-108748214D01*
X156611510Y-108763446D01*
X156606221Y-108778229D01*
X156599507Y-108792423D01*
X156591435Y-108805891D01*
X156582082Y-108818503D01*
X156571537Y-108830137D01*
X156559903Y-108840682D01*
X156547291Y-108850035D01*
X156533823Y-108858107D01*
X156519629Y-108864821D01*
X156504846Y-108870110D01*
X156489614Y-108873926D01*
X156474083Y-108876230D01*
X156458400Y-108877000D01*
X154978400Y-108877000D01*
X154962717Y-108876230D01*
X154947186Y-108873926D01*
X154931954Y-108870110D01*
X154917171Y-108864821D01*
X154902977Y-108858107D01*
X154889509Y-108850035D01*
X154876897Y-108840682D01*
X154865263Y-108830137D01*
X154854718Y-108818503D01*
X154845365Y-108805891D01*
X154837293Y-108792423D01*
X154830579Y-108778229D01*
X154825290Y-108763446D01*
X154821474Y-108748214D01*
X154819170Y-108732683D01*
X154818400Y-108717000D01*
X154818400Y-107437000D01*
X154819170Y-107421317D01*
X154821474Y-107405786D01*
X154825290Y-107390554D01*
X154830579Y-107375771D01*
X154837293Y-107361577D01*
X154845365Y-107348109D01*
X154854718Y-107335497D01*
X154865263Y-107323863D01*
X154876897Y-107313318D01*
X154889509Y-107303965D01*
X154902977Y-107295893D01*
X154917171Y-107289179D01*
X154931954Y-107283890D01*
X154947186Y-107280074D01*
X154962717Y-107277770D01*
X154978400Y-107277000D01*
X156458400Y-107277000D01*
X156474083Y-107277770D01*
X156474083Y-107277770D01*
G37*
D11*
X155718400Y-108077000D03*
D10*
G36*
X139474083Y-89497770D02*
G01*
X139489614Y-89500074D01*
X139504846Y-89503890D01*
X139519629Y-89509179D01*
X139533823Y-89515893D01*
X139547291Y-89523965D01*
X139559903Y-89533318D01*
X139571537Y-89543863D01*
X139582082Y-89555497D01*
X139591435Y-89568109D01*
X139599507Y-89581577D01*
X139606221Y-89595771D01*
X139611510Y-89610554D01*
X139615326Y-89625786D01*
X139617630Y-89641317D01*
X139618400Y-89657000D01*
X139618400Y-90937000D01*
X139617630Y-90952683D01*
X139615326Y-90968214D01*
X139611510Y-90983446D01*
X139606221Y-90998229D01*
X139599507Y-91012423D01*
X139591435Y-91025891D01*
X139582082Y-91038503D01*
X139571537Y-91050137D01*
X139559903Y-91060682D01*
X139547291Y-91070035D01*
X139533823Y-91078107D01*
X139519629Y-91084821D01*
X139504846Y-91090110D01*
X139489614Y-91093926D01*
X139474083Y-91096230D01*
X139458400Y-91097000D01*
X137978400Y-91097000D01*
X137962717Y-91096230D01*
X137947186Y-91093926D01*
X137931954Y-91090110D01*
X137917171Y-91084821D01*
X137902977Y-91078107D01*
X137889509Y-91070035D01*
X137876897Y-91060682D01*
X137865263Y-91050137D01*
X137854718Y-91038503D01*
X137845365Y-91025891D01*
X137837293Y-91012423D01*
X137830579Y-90998229D01*
X137825290Y-90983446D01*
X137821474Y-90968214D01*
X137819170Y-90952683D01*
X137818400Y-90937000D01*
X137818400Y-89657000D01*
X137819170Y-89641317D01*
X137821474Y-89625786D01*
X137825290Y-89610554D01*
X137830579Y-89595771D01*
X137837293Y-89581577D01*
X137845365Y-89568109D01*
X137854718Y-89555497D01*
X137865263Y-89543863D01*
X137876897Y-89533318D01*
X137889509Y-89523965D01*
X137902977Y-89515893D01*
X137917171Y-89509179D01*
X137931954Y-89503890D01*
X137947186Y-89500074D01*
X137962717Y-89497770D01*
X137978400Y-89497000D01*
X139458400Y-89497000D01*
X139474083Y-89497770D01*
X139474083Y-89497770D01*
G37*
D11*
X138718400Y-90297000D03*
D10*
G36*
X156474083Y-109817770D02*
G01*
X156489614Y-109820074D01*
X156504846Y-109823890D01*
X156519629Y-109829179D01*
X156533823Y-109835893D01*
X156547291Y-109843965D01*
X156559903Y-109853318D01*
X156571537Y-109863863D01*
X156582082Y-109875497D01*
X156591435Y-109888109D01*
X156599507Y-109901577D01*
X156606221Y-109915771D01*
X156611510Y-109930554D01*
X156615326Y-109945786D01*
X156617630Y-109961317D01*
X156618400Y-109977000D01*
X156618400Y-111257000D01*
X156617630Y-111272683D01*
X156615326Y-111288214D01*
X156611510Y-111303446D01*
X156606221Y-111318229D01*
X156599507Y-111332423D01*
X156591435Y-111345891D01*
X156582082Y-111358503D01*
X156571537Y-111370137D01*
X156559903Y-111380682D01*
X156547291Y-111390035D01*
X156533823Y-111398107D01*
X156519629Y-111404821D01*
X156504846Y-111410110D01*
X156489614Y-111413926D01*
X156474083Y-111416230D01*
X156458400Y-111417000D01*
X154978400Y-111417000D01*
X154962717Y-111416230D01*
X154947186Y-111413926D01*
X154931954Y-111410110D01*
X154917171Y-111404821D01*
X154902977Y-111398107D01*
X154889509Y-111390035D01*
X154876897Y-111380682D01*
X154865263Y-111370137D01*
X154854718Y-111358503D01*
X154845365Y-111345891D01*
X154837293Y-111332423D01*
X154830579Y-111318229D01*
X154825290Y-111303446D01*
X154821474Y-111288214D01*
X154819170Y-111272683D01*
X154818400Y-111257000D01*
X154818400Y-109977000D01*
X154819170Y-109961317D01*
X154821474Y-109945786D01*
X154825290Y-109930554D01*
X154830579Y-109915771D01*
X154837293Y-109901577D01*
X154845365Y-109888109D01*
X154854718Y-109875497D01*
X154865263Y-109863863D01*
X154876897Y-109853318D01*
X154889509Y-109843965D01*
X154902977Y-109835893D01*
X154917171Y-109829179D01*
X154931954Y-109823890D01*
X154947186Y-109820074D01*
X154962717Y-109817770D01*
X154978400Y-109817000D01*
X156458400Y-109817000D01*
X156474083Y-109817770D01*
X156474083Y-109817770D01*
G37*
D11*
X155718400Y-110617000D03*
D10*
G36*
X139474083Y-86957770D02*
G01*
X139489614Y-86960074D01*
X139504846Y-86963890D01*
X139519629Y-86969179D01*
X139533823Y-86975893D01*
X139547291Y-86983965D01*
X139559903Y-86993318D01*
X139571537Y-87003863D01*
X139582082Y-87015497D01*
X139591435Y-87028109D01*
X139599507Y-87041577D01*
X139606221Y-87055771D01*
X139611510Y-87070554D01*
X139615326Y-87085786D01*
X139617630Y-87101317D01*
X139618400Y-87117000D01*
X139618400Y-88397000D01*
X139617630Y-88412683D01*
X139615326Y-88428214D01*
X139611510Y-88443446D01*
X139606221Y-88458229D01*
X139599507Y-88472423D01*
X139591435Y-88485891D01*
X139582082Y-88498503D01*
X139571537Y-88510137D01*
X139559903Y-88520682D01*
X139547291Y-88530035D01*
X139533823Y-88538107D01*
X139519629Y-88544821D01*
X139504846Y-88550110D01*
X139489614Y-88553926D01*
X139474083Y-88556230D01*
X139458400Y-88557000D01*
X137978400Y-88557000D01*
X137962717Y-88556230D01*
X137947186Y-88553926D01*
X137931954Y-88550110D01*
X137917171Y-88544821D01*
X137902977Y-88538107D01*
X137889509Y-88530035D01*
X137876897Y-88520682D01*
X137865263Y-88510137D01*
X137854718Y-88498503D01*
X137845365Y-88485891D01*
X137837293Y-88472423D01*
X137830579Y-88458229D01*
X137825290Y-88443446D01*
X137821474Y-88428214D01*
X137819170Y-88412683D01*
X137818400Y-88397000D01*
X137818400Y-87117000D01*
X137819170Y-87101317D01*
X137821474Y-87085786D01*
X137825290Y-87070554D01*
X137830579Y-87055771D01*
X137837293Y-87041577D01*
X137845365Y-87028109D01*
X137854718Y-87015497D01*
X137865263Y-87003863D01*
X137876897Y-86993318D01*
X137889509Y-86983965D01*
X137902977Y-86975893D01*
X137917171Y-86969179D01*
X137931954Y-86963890D01*
X137947186Y-86960074D01*
X137962717Y-86957770D01*
X137978400Y-86957000D01*
X139458400Y-86957000D01*
X139474083Y-86957770D01*
X139474083Y-86957770D01*
G37*
D11*
X138718400Y-87757000D03*
D10*
G36*
X156474083Y-112357770D02*
G01*
X156489614Y-112360074D01*
X156504846Y-112363890D01*
X156519629Y-112369179D01*
X156533823Y-112375893D01*
X156547291Y-112383965D01*
X156559903Y-112393318D01*
X156571537Y-112403863D01*
X156582082Y-112415497D01*
X156591435Y-112428109D01*
X156599507Y-112441577D01*
X156606221Y-112455771D01*
X156611510Y-112470554D01*
X156615326Y-112485786D01*
X156617630Y-112501317D01*
X156618400Y-112517000D01*
X156618400Y-113797000D01*
X156617630Y-113812683D01*
X156615326Y-113828214D01*
X156611510Y-113843446D01*
X156606221Y-113858229D01*
X156599507Y-113872423D01*
X156591435Y-113885891D01*
X156582082Y-113898503D01*
X156571537Y-113910137D01*
X156559903Y-113920682D01*
X156547291Y-113930035D01*
X156533823Y-113938107D01*
X156519629Y-113944821D01*
X156504846Y-113950110D01*
X156489614Y-113953926D01*
X156474083Y-113956230D01*
X156458400Y-113957000D01*
X154978400Y-113957000D01*
X154962717Y-113956230D01*
X154947186Y-113953926D01*
X154931954Y-113950110D01*
X154917171Y-113944821D01*
X154902977Y-113938107D01*
X154889509Y-113930035D01*
X154876897Y-113920682D01*
X154865263Y-113910137D01*
X154854718Y-113898503D01*
X154845365Y-113885891D01*
X154837293Y-113872423D01*
X154830579Y-113858229D01*
X154825290Y-113843446D01*
X154821474Y-113828214D01*
X154819170Y-113812683D01*
X154818400Y-113797000D01*
X154818400Y-112517000D01*
X154819170Y-112501317D01*
X154821474Y-112485786D01*
X154825290Y-112470554D01*
X154830579Y-112455771D01*
X154837293Y-112441577D01*
X154845365Y-112428109D01*
X154854718Y-112415497D01*
X154865263Y-112403863D01*
X154876897Y-112393318D01*
X154889509Y-112383965D01*
X154902977Y-112375893D01*
X154917171Y-112369179D01*
X154931954Y-112363890D01*
X154947186Y-112360074D01*
X154962717Y-112357770D01*
X154978400Y-112357000D01*
X156458400Y-112357000D01*
X156474083Y-112357770D01*
X156474083Y-112357770D01*
G37*
D11*
X155718400Y-113157000D03*
D10*
G36*
X139474083Y-84417770D02*
G01*
X139489614Y-84420074D01*
X139504846Y-84423890D01*
X139519629Y-84429179D01*
X139533823Y-84435893D01*
X139547291Y-84443965D01*
X139559903Y-84453318D01*
X139571537Y-84463863D01*
X139582082Y-84475497D01*
X139591435Y-84488109D01*
X139599507Y-84501577D01*
X139606221Y-84515771D01*
X139611510Y-84530554D01*
X139615326Y-84545786D01*
X139617630Y-84561317D01*
X139618400Y-84577000D01*
X139618400Y-85857000D01*
X139617630Y-85872683D01*
X139615326Y-85888214D01*
X139611510Y-85903446D01*
X139606221Y-85918229D01*
X139599507Y-85932423D01*
X139591435Y-85945891D01*
X139582082Y-85958503D01*
X139571537Y-85970137D01*
X139559903Y-85980682D01*
X139547291Y-85990035D01*
X139533823Y-85998107D01*
X139519629Y-86004821D01*
X139504846Y-86010110D01*
X139489614Y-86013926D01*
X139474083Y-86016230D01*
X139458400Y-86017000D01*
X137978400Y-86017000D01*
X137962717Y-86016230D01*
X137947186Y-86013926D01*
X137931954Y-86010110D01*
X137917171Y-86004821D01*
X137902977Y-85998107D01*
X137889509Y-85990035D01*
X137876897Y-85980682D01*
X137865263Y-85970137D01*
X137854718Y-85958503D01*
X137845365Y-85945891D01*
X137837293Y-85932423D01*
X137830579Y-85918229D01*
X137825290Y-85903446D01*
X137821474Y-85888214D01*
X137819170Y-85872683D01*
X137818400Y-85857000D01*
X137818400Y-84577000D01*
X137819170Y-84561317D01*
X137821474Y-84545786D01*
X137825290Y-84530554D01*
X137830579Y-84515771D01*
X137837293Y-84501577D01*
X137845365Y-84488109D01*
X137854718Y-84475497D01*
X137865263Y-84463863D01*
X137876897Y-84453318D01*
X137889509Y-84443965D01*
X137902977Y-84435893D01*
X137917171Y-84429179D01*
X137931954Y-84423890D01*
X137947186Y-84420074D01*
X137962717Y-84417770D01*
X137978400Y-84417000D01*
X139458400Y-84417000D01*
X139474083Y-84417770D01*
X139474083Y-84417770D01*
G37*
D11*
X138718400Y-85217000D03*
D10*
G36*
X156474083Y-114897770D02*
G01*
X156489614Y-114900074D01*
X156504846Y-114903890D01*
X156519629Y-114909179D01*
X156533823Y-114915893D01*
X156547291Y-114923965D01*
X156559903Y-114933318D01*
X156571537Y-114943863D01*
X156582082Y-114955497D01*
X156591435Y-114968109D01*
X156599507Y-114981577D01*
X156606221Y-114995771D01*
X156611510Y-115010554D01*
X156615326Y-115025786D01*
X156617630Y-115041317D01*
X156618400Y-115057000D01*
X156618400Y-116337000D01*
X156617630Y-116352683D01*
X156615326Y-116368214D01*
X156611510Y-116383446D01*
X156606221Y-116398229D01*
X156599507Y-116412423D01*
X156591435Y-116425891D01*
X156582082Y-116438503D01*
X156571537Y-116450137D01*
X156559903Y-116460682D01*
X156547291Y-116470035D01*
X156533823Y-116478107D01*
X156519629Y-116484821D01*
X156504846Y-116490110D01*
X156489614Y-116493926D01*
X156474083Y-116496230D01*
X156458400Y-116497000D01*
X154978400Y-116497000D01*
X154962717Y-116496230D01*
X154947186Y-116493926D01*
X154931954Y-116490110D01*
X154917171Y-116484821D01*
X154902977Y-116478107D01*
X154889509Y-116470035D01*
X154876897Y-116460682D01*
X154865263Y-116450137D01*
X154854718Y-116438503D01*
X154845365Y-116425891D01*
X154837293Y-116412423D01*
X154830579Y-116398229D01*
X154825290Y-116383446D01*
X154821474Y-116368214D01*
X154819170Y-116352683D01*
X154818400Y-116337000D01*
X154818400Y-115057000D01*
X154819170Y-115041317D01*
X154821474Y-115025786D01*
X154825290Y-115010554D01*
X154830579Y-114995771D01*
X154837293Y-114981577D01*
X154845365Y-114968109D01*
X154854718Y-114955497D01*
X154865263Y-114943863D01*
X154876897Y-114933318D01*
X154889509Y-114923965D01*
X154902977Y-114915893D01*
X154917171Y-114909179D01*
X154931954Y-114903890D01*
X154947186Y-114900074D01*
X154962717Y-114897770D01*
X154978400Y-114897000D01*
X156458400Y-114897000D01*
X156474083Y-114897770D01*
X156474083Y-114897770D01*
G37*
D11*
X155718400Y-115697000D03*
D10*
G36*
X139474083Y-81877770D02*
G01*
X139489614Y-81880074D01*
X139504846Y-81883890D01*
X139519629Y-81889179D01*
X139533823Y-81895893D01*
X139547291Y-81903965D01*
X139559903Y-81913318D01*
X139571537Y-81923863D01*
X139582082Y-81935497D01*
X139591435Y-81948109D01*
X139599507Y-81961577D01*
X139606221Y-81975771D01*
X139611510Y-81990554D01*
X139615326Y-82005786D01*
X139617630Y-82021317D01*
X139618400Y-82037000D01*
X139618400Y-83317000D01*
X139617630Y-83332683D01*
X139615326Y-83348214D01*
X139611510Y-83363446D01*
X139606221Y-83378229D01*
X139599507Y-83392423D01*
X139591435Y-83405891D01*
X139582082Y-83418503D01*
X139571537Y-83430137D01*
X139559903Y-83440682D01*
X139547291Y-83450035D01*
X139533823Y-83458107D01*
X139519629Y-83464821D01*
X139504846Y-83470110D01*
X139489614Y-83473926D01*
X139474083Y-83476230D01*
X139458400Y-83477000D01*
X137978400Y-83477000D01*
X137962717Y-83476230D01*
X137947186Y-83473926D01*
X137931954Y-83470110D01*
X137917171Y-83464821D01*
X137902977Y-83458107D01*
X137889509Y-83450035D01*
X137876897Y-83440682D01*
X137865263Y-83430137D01*
X137854718Y-83418503D01*
X137845365Y-83405891D01*
X137837293Y-83392423D01*
X137830579Y-83378229D01*
X137825290Y-83363446D01*
X137821474Y-83348214D01*
X137819170Y-83332683D01*
X137818400Y-83317000D01*
X137818400Y-82037000D01*
X137819170Y-82021317D01*
X137821474Y-82005786D01*
X137825290Y-81990554D01*
X137830579Y-81975771D01*
X137837293Y-81961577D01*
X137845365Y-81948109D01*
X137854718Y-81935497D01*
X137865263Y-81923863D01*
X137876897Y-81913318D01*
X137889509Y-81903965D01*
X137902977Y-81895893D01*
X137917171Y-81889179D01*
X137931954Y-81883890D01*
X137947186Y-81880074D01*
X137962717Y-81877770D01*
X137978400Y-81877000D01*
X139458400Y-81877000D01*
X139474083Y-81877770D01*
X139474083Y-81877770D01*
G37*
D11*
X138718400Y-82677000D03*
M02*
