G04 #@! TF.GenerationSoftware,KiCad,Pcbnew,5.1.4-e60b266~84~ubuntu19.04.1*
G04 #@! TF.CreationDate,2019-11-08T15:23:49-05:00*
G04 #@! TF.ProjectId,pcb2molex8878_chamfer,70636232-6d6f-46c6-9578-383837385f63,rev?*
G04 #@! TF.SameCoordinates,Original*
G04 #@! TF.FileFunction,Drawing*
%FSLAX46Y46*%
G04 Gerber Fmt 4.6, Leading zero omitted, Abs format (unit mm)*
G04 Created by KiCad (PCBNEW 5.1.4-e60b266~84~ubuntu19.04.1) date 2019-11-08 15:23:49*
%MOMM*%
%LPD*%
G04 APERTURE LIST*
%ADD10C,0.010000*%
G04 APERTURE END LIST*
D10*
X144218400Y-81087000D02*
X144418400Y-81287000D01*
X144018400Y-81287000D02*
X144218400Y-81087000D01*
X144218400Y-81087000D02*
X144018400Y-81287000D01*
X144218400Y-81087000D02*
X144218400Y-81987000D01*
X152218400Y-118287000D02*
X142218400Y-118287000D01*
X152218400Y-117287000D02*
X152218400Y-118287000D01*
X142218400Y-117287000D02*
X152218400Y-117287000D01*
X142218400Y-118287000D02*
X142218400Y-117287000D01*
X152218400Y-80087000D02*
X142218400Y-80087000D01*
X152218400Y-81087000D02*
X152218400Y-80087000D01*
X142218400Y-81087000D02*
X152218400Y-81087000D01*
X142218400Y-80087000D02*
X142218400Y-81087000D01*
X154418400Y-117487000D02*
X140018400Y-117487000D01*
X154418400Y-80887000D02*
X154418400Y-117487000D01*
X140018400Y-80887000D02*
X154418400Y-80887000D01*
X140018400Y-117487000D02*
X140018400Y-80887000D01*
X140018400Y-102187000D02*
X141268400Y-102187000D01*
X140018400Y-102187000D02*
X140518400Y-102687000D01*
X140018400Y-102187000D02*
X140518400Y-101687000D01*
X139218400Y-80087000D02*
X141018400Y-80087000D01*
X139218400Y-80087000D02*
X139218400Y-81887000D01*
X139218400Y-80087000D02*
X155218400Y-118287000D01*
X139218400Y-118287000D02*
X155218400Y-80087000D01*
X144694590Y-81977476D02*
X144580304Y-81977476D01*
X144637447Y-81977476D02*
X144637447Y-81777476D01*
X144618400Y-81806047D01*
X144599352Y-81825095D01*
X144580304Y-81834619D01*
X144818400Y-81777476D02*
X144837447Y-81777476D01*
X144856495Y-81787000D01*
X144866019Y-81796523D01*
X144875542Y-81815571D01*
X144885066Y-81853666D01*
X144885066Y-81901285D01*
X144875542Y-81939380D01*
X144866019Y-81958428D01*
X144856495Y-81967952D01*
X144837447Y-81977476D01*
X144818400Y-81977476D01*
X144799352Y-81967952D01*
X144789828Y-81958428D01*
X144780304Y-81939380D01*
X144770780Y-81901285D01*
X144770780Y-81853666D01*
X144780304Y-81815571D01*
X144789828Y-81796523D01*
X144799352Y-81787000D01*
X144818400Y-81777476D01*
X144970780Y-81958428D02*
X144980304Y-81967952D01*
X144970780Y-81977476D01*
X144961257Y-81967952D01*
X144970780Y-81958428D01*
X144970780Y-81977476D01*
X145104114Y-81777476D02*
X145123161Y-81777476D01*
X145142209Y-81787000D01*
X145151733Y-81796523D01*
X145161257Y-81815571D01*
X145170780Y-81853666D01*
X145170780Y-81901285D01*
X145161257Y-81939380D01*
X145151733Y-81958428D01*
X145142209Y-81967952D01*
X145123161Y-81977476D01*
X145104114Y-81977476D01*
X145085066Y-81967952D01*
X145075542Y-81958428D01*
X145066019Y-81939380D01*
X145056495Y-81901285D01*
X145056495Y-81853666D01*
X145066019Y-81815571D01*
X145075542Y-81796523D01*
X145085066Y-81787000D01*
X145104114Y-81777476D01*
X145389828Y-81977476D02*
X145494590Y-81844142D01*
X145389828Y-81844142D02*
X145494590Y-81977476D01*
X145827923Y-81977476D02*
X145713638Y-81977476D01*
X145770780Y-81977476D02*
X145770780Y-81777476D01*
X145751733Y-81806047D01*
X145732685Y-81825095D01*
X145713638Y-81834619D01*
X145913638Y-81958428D02*
X145923161Y-81967952D01*
X145913638Y-81977476D01*
X145904114Y-81967952D01*
X145913638Y-81958428D01*
X145913638Y-81977476D01*
X146046971Y-81777476D02*
X146066019Y-81777476D01*
X146085066Y-81787000D01*
X146094590Y-81796523D01*
X146104114Y-81815571D01*
X146113638Y-81853666D01*
X146113638Y-81901285D01*
X146104114Y-81939380D01*
X146094590Y-81958428D01*
X146085066Y-81967952D01*
X146066019Y-81977476D01*
X146046971Y-81977476D01*
X146027923Y-81967952D01*
X146018400Y-81958428D01*
X146008876Y-81939380D01*
X145999352Y-81901285D01*
X145999352Y-81853666D01*
X146008876Y-81815571D01*
X146018400Y-81796523D01*
X146027923Y-81787000D01*
X146046971Y-81777476D01*
X146351733Y-81977476D02*
X146351733Y-81844142D01*
X146351733Y-81882238D02*
X146361257Y-81863190D01*
X146370780Y-81853666D01*
X146389828Y-81844142D01*
X146408876Y-81844142D01*
X146551733Y-81967952D02*
X146532685Y-81977476D01*
X146494590Y-81977476D01*
X146475542Y-81967952D01*
X146466019Y-81948904D01*
X146466019Y-81872714D01*
X146475542Y-81853666D01*
X146494590Y-81844142D01*
X146532685Y-81844142D01*
X146551733Y-81853666D01*
X146561257Y-81872714D01*
X146561257Y-81891761D01*
X146466019Y-81910809D01*
X146618400Y-81844142D02*
X146694590Y-81844142D01*
X146646971Y-81777476D02*
X146646971Y-81948904D01*
X146656495Y-81967952D01*
X146675542Y-81977476D01*
X146694590Y-81977476D01*
X146846971Y-81977476D02*
X146846971Y-81872714D01*
X146837447Y-81853666D01*
X146818400Y-81844142D01*
X146780304Y-81844142D01*
X146761257Y-81853666D01*
X146846971Y-81967952D02*
X146827923Y-81977476D01*
X146780304Y-81977476D01*
X146761257Y-81967952D01*
X146751733Y-81948904D01*
X146751733Y-81929857D01*
X146761257Y-81910809D01*
X146780304Y-81901285D01*
X146827923Y-81901285D01*
X146846971Y-81891761D01*
X146942209Y-81977476D02*
X146942209Y-81844142D01*
X146942209Y-81777476D02*
X146932685Y-81787000D01*
X146942209Y-81796523D01*
X146951733Y-81787000D01*
X146942209Y-81777476D01*
X146942209Y-81796523D01*
X147037447Y-81844142D02*
X147037447Y-81977476D01*
X147037447Y-81863190D02*
X147046971Y-81853666D01*
X147066019Y-81844142D01*
X147094590Y-81844142D01*
X147113638Y-81853666D01*
X147123161Y-81872714D01*
X147123161Y-81977476D01*
X147294590Y-81967952D02*
X147275542Y-81977476D01*
X147237447Y-81977476D01*
X147218400Y-81967952D01*
X147208876Y-81948904D01*
X147208876Y-81872714D01*
X147218400Y-81853666D01*
X147237447Y-81844142D01*
X147275542Y-81844142D01*
X147294590Y-81853666D01*
X147304114Y-81872714D01*
X147304114Y-81891761D01*
X147208876Y-81910809D01*
X147389828Y-81977476D02*
X147389828Y-81844142D01*
X147389828Y-81882238D02*
X147399352Y-81863190D01*
X147408876Y-81853666D01*
X147427923Y-81844142D01*
X147446971Y-81844142D01*
X147646971Y-81844142D02*
X147685066Y-81977476D01*
X147723161Y-81882238D01*
X147761257Y-81977476D01*
X147799352Y-81844142D01*
X147951733Y-81967952D02*
X147932685Y-81977476D01*
X147894590Y-81977476D01*
X147875542Y-81967952D01*
X147866019Y-81948904D01*
X147866019Y-81872714D01*
X147875542Y-81853666D01*
X147894590Y-81844142D01*
X147932685Y-81844142D01*
X147951733Y-81853666D01*
X147961257Y-81872714D01*
X147961257Y-81891761D01*
X147866019Y-81910809D01*
X148132685Y-81977476D02*
X148132685Y-81777476D01*
X148132685Y-81967952D02*
X148113638Y-81977476D01*
X148075542Y-81977476D01*
X148056495Y-81967952D01*
X148046971Y-81958428D01*
X148037447Y-81939380D01*
X148037447Y-81882238D01*
X148046971Y-81863190D01*
X148056495Y-81853666D01*
X148075542Y-81844142D01*
X148113638Y-81844142D01*
X148132685Y-81853666D01*
X148313638Y-81844142D02*
X148313638Y-82006047D01*
X148304114Y-82025095D01*
X148294590Y-82034619D01*
X148275542Y-82044142D01*
X148246971Y-82044142D01*
X148227923Y-82034619D01*
X148313638Y-81967952D02*
X148294590Y-81977476D01*
X148256495Y-81977476D01*
X148237447Y-81967952D01*
X148227923Y-81958428D01*
X148218400Y-81939380D01*
X148218400Y-81882238D01*
X148227923Y-81863190D01*
X148237447Y-81853666D01*
X148256495Y-81844142D01*
X148294590Y-81844142D01*
X148313638Y-81853666D01*
X148485066Y-81967952D02*
X148466019Y-81977476D01*
X148427923Y-81977476D01*
X148408876Y-81967952D01*
X148399352Y-81948904D01*
X148399352Y-81872714D01*
X148408876Y-81853666D01*
X148427923Y-81844142D01*
X148466019Y-81844142D01*
X148485066Y-81853666D01*
X148494590Y-81872714D01*
X148494590Y-81891761D01*
X148399352Y-81910809D01*
X148570780Y-81967952D02*
X148589828Y-81977476D01*
X148627923Y-81977476D01*
X148646971Y-81967952D01*
X148656495Y-81948904D01*
X148656495Y-81939380D01*
X148646971Y-81920333D01*
X148627923Y-81910809D01*
X148599352Y-81910809D01*
X148580304Y-81901285D01*
X148570780Y-81882238D01*
X148570780Y-81872714D01*
X148580304Y-81853666D01*
X148599352Y-81844142D01*
X148627923Y-81844142D01*
X148646971Y-81853666D01*
X148923161Y-81977476D02*
X148904114Y-81967952D01*
X148894590Y-81958428D01*
X148885066Y-81939380D01*
X148885066Y-81882238D01*
X148894590Y-81863190D01*
X148904114Y-81853666D01*
X148923161Y-81844142D01*
X148951733Y-81844142D01*
X148970780Y-81853666D01*
X148980304Y-81863190D01*
X148989828Y-81882238D01*
X148989828Y-81939380D01*
X148980304Y-81958428D01*
X148970780Y-81967952D01*
X148951733Y-81977476D01*
X148923161Y-81977476D01*
X149075542Y-81844142D02*
X149075542Y-81977476D01*
X149075542Y-81863190D02*
X149085066Y-81853666D01*
X149104114Y-81844142D01*
X149132685Y-81844142D01*
X149151733Y-81853666D01*
X149161257Y-81872714D01*
X149161257Y-81977476D01*
X149380304Y-81844142D02*
X149456495Y-81844142D01*
X149408876Y-81777476D02*
X149408876Y-81948904D01*
X149418400Y-81967952D01*
X149437447Y-81977476D01*
X149456495Y-81977476D01*
X149551733Y-81977476D02*
X149532685Y-81967952D01*
X149523161Y-81958428D01*
X149513638Y-81939380D01*
X149513638Y-81882238D01*
X149523161Y-81863190D01*
X149532685Y-81853666D01*
X149551733Y-81844142D01*
X149580304Y-81844142D01*
X149599352Y-81853666D01*
X149608876Y-81863190D01*
X149618400Y-81882238D01*
X149618400Y-81939380D01*
X149608876Y-81958428D01*
X149599352Y-81967952D01*
X149580304Y-81977476D01*
X149551733Y-81977476D01*
X149704114Y-81844142D02*
X149704114Y-82044142D01*
X149704114Y-81853666D02*
X149723161Y-81844142D01*
X149761257Y-81844142D01*
X149780304Y-81853666D01*
X149789828Y-81863190D01*
X149799352Y-81882238D01*
X149799352Y-81939380D01*
X149789828Y-81958428D01*
X149780304Y-81967952D01*
X149761257Y-81977476D01*
X149723161Y-81977476D01*
X149704114Y-81967952D01*
X150027923Y-81967952D02*
X150046971Y-81977476D01*
X150085066Y-81977476D01*
X150104114Y-81967952D01*
X150113638Y-81948904D01*
X150113638Y-81939380D01*
X150104114Y-81920333D01*
X150085066Y-81910809D01*
X150056495Y-81910809D01*
X150037447Y-81901285D01*
X150027923Y-81882238D01*
X150027923Y-81872714D01*
X150037447Y-81853666D01*
X150056495Y-81844142D01*
X150085066Y-81844142D01*
X150104114Y-81853666D01*
X150285066Y-81844142D02*
X150285066Y-81977476D01*
X150199352Y-81844142D02*
X150199352Y-81948904D01*
X150208876Y-81967952D01*
X150227923Y-81977476D01*
X150256495Y-81977476D01*
X150275542Y-81967952D01*
X150285066Y-81958428D01*
X150380304Y-81977476D02*
X150380304Y-81844142D01*
X150380304Y-81882238D02*
X150389828Y-81863190D01*
X150399352Y-81853666D01*
X150418400Y-81844142D01*
X150437447Y-81844142D01*
X150475542Y-81844142D02*
X150551733Y-81844142D01*
X150504114Y-81977476D02*
X150504114Y-81806047D01*
X150513638Y-81787000D01*
X150532685Y-81777476D01*
X150551733Y-81777476D01*
X150704114Y-81977476D02*
X150704114Y-81872714D01*
X150694590Y-81853666D01*
X150675542Y-81844142D01*
X150637447Y-81844142D01*
X150618400Y-81853666D01*
X150704114Y-81967952D02*
X150685066Y-81977476D01*
X150637447Y-81977476D01*
X150618400Y-81967952D01*
X150608876Y-81948904D01*
X150608876Y-81929857D01*
X150618400Y-81910809D01*
X150637447Y-81901285D01*
X150685066Y-81901285D01*
X150704114Y-81891761D01*
X150885066Y-81967952D02*
X150866019Y-81977476D01*
X150827923Y-81977476D01*
X150808876Y-81967952D01*
X150799352Y-81958428D01*
X150789828Y-81939380D01*
X150789828Y-81882238D01*
X150799352Y-81863190D01*
X150808876Y-81853666D01*
X150827923Y-81844142D01*
X150866019Y-81844142D01*
X150885066Y-81853666D01*
X151046971Y-81967952D02*
X151027923Y-81977476D01*
X150989828Y-81977476D01*
X150970780Y-81967952D01*
X150961257Y-81948904D01*
X150961257Y-81872714D01*
X150970780Y-81853666D01*
X150989828Y-81844142D01*
X151027923Y-81844142D01*
X151046971Y-81853666D01*
X151056495Y-81872714D01*
X151056495Y-81891761D01*
X150961257Y-81910809D01*
X141446971Y-102127476D02*
X141446971Y-101927476D01*
X141446971Y-102003666D02*
X141466019Y-101994142D01*
X141504114Y-101994142D01*
X141523161Y-102003666D01*
X141532685Y-102013190D01*
X141542209Y-102032238D01*
X141542209Y-102089380D01*
X141532685Y-102108428D01*
X141523161Y-102117952D01*
X141504114Y-102127476D01*
X141466019Y-102127476D01*
X141446971Y-102117952D01*
X141713638Y-102127476D02*
X141713638Y-102022714D01*
X141704114Y-102003666D01*
X141685066Y-101994142D01*
X141646971Y-101994142D01*
X141627923Y-102003666D01*
X141713638Y-102117952D02*
X141694590Y-102127476D01*
X141646971Y-102127476D01*
X141627923Y-102117952D01*
X141618400Y-102098904D01*
X141618400Y-102079857D01*
X141627923Y-102060809D01*
X141646971Y-102051285D01*
X141694590Y-102051285D01*
X141713638Y-102041761D01*
X141894590Y-102117952D02*
X141875542Y-102127476D01*
X141837447Y-102127476D01*
X141818400Y-102117952D01*
X141808876Y-102108428D01*
X141799352Y-102089380D01*
X141799352Y-102032238D01*
X141808876Y-102013190D01*
X141818400Y-102003666D01*
X141837447Y-101994142D01*
X141875542Y-101994142D01*
X141894590Y-102003666D01*
X141980304Y-102127476D02*
X141980304Y-101927476D01*
X141999352Y-102051285D02*
X142056495Y-102127476D01*
X142056495Y-101994142D02*
X141980304Y-102070333D01*
X142132685Y-102117952D02*
X142151733Y-102127476D01*
X142189828Y-102127476D01*
X142208876Y-102117952D01*
X142218400Y-102098904D01*
X142218400Y-102089380D01*
X142208876Y-102070333D01*
X142189828Y-102060809D01*
X142161257Y-102060809D01*
X142142209Y-102051285D01*
X142132685Y-102032238D01*
X142132685Y-102022714D01*
X142142209Y-102003666D01*
X142161257Y-101994142D01*
X142189828Y-101994142D01*
X142208876Y-102003666D01*
X142304114Y-102127476D02*
X142304114Y-101994142D01*
X142304114Y-101927476D02*
X142294590Y-101937000D01*
X142304114Y-101946523D01*
X142313638Y-101937000D01*
X142304114Y-101927476D01*
X142304114Y-101946523D01*
X142485066Y-102127476D02*
X142485066Y-101927476D01*
X142485066Y-102117952D02*
X142466019Y-102127476D01*
X142427923Y-102127476D01*
X142408876Y-102117952D01*
X142399352Y-102108428D01*
X142389828Y-102089380D01*
X142389828Y-102032238D01*
X142399352Y-102013190D01*
X142408876Y-102003666D01*
X142427923Y-101994142D01*
X142466019Y-101994142D01*
X142485066Y-102003666D01*
X142656495Y-102117952D02*
X142637447Y-102127476D01*
X142599352Y-102127476D01*
X142580304Y-102117952D01*
X142570780Y-102098904D01*
X142570780Y-102022714D01*
X142580304Y-102003666D01*
X142599352Y-101994142D01*
X142637447Y-101994142D01*
X142656495Y-102003666D01*
X142666019Y-102022714D01*
X142666019Y-102041761D01*
X142570780Y-102060809D01*
X142904114Y-101994142D02*
X142904114Y-102194142D01*
X142904114Y-102003666D02*
X142923161Y-101994142D01*
X142961257Y-101994142D01*
X142980304Y-102003666D01*
X142989828Y-102013190D01*
X142999352Y-102032238D01*
X142999352Y-102089380D01*
X142989828Y-102108428D01*
X142980304Y-102117952D01*
X142961257Y-102127476D01*
X142923161Y-102127476D01*
X142904114Y-102117952D01*
X143113638Y-102127476D02*
X143094590Y-102117952D01*
X143085066Y-102108428D01*
X143075542Y-102089380D01*
X143075542Y-102032238D01*
X143085066Y-102013190D01*
X143094590Y-102003666D01*
X143113638Y-101994142D01*
X143142209Y-101994142D01*
X143161257Y-102003666D01*
X143170780Y-102013190D01*
X143180304Y-102032238D01*
X143180304Y-102089380D01*
X143170780Y-102108428D01*
X143161257Y-102117952D01*
X143142209Y-102127476D01*
X143113638Y-102127476D01*
X143351733Y-102117952D02*
X143332685Y-102127476D01*
X143294590Y-102127476D01*
X143275542Y-102117952D01*
X143266019Y-102108428D01*
X143256495Y-102089380D01*
X143256495Y-102032238D01*
X143266019Y-102013190D01*
X143275542Y-102003666D01*
X143294590Y-101994142D01*
X143332685Y-101994142D01*
X143351733Y-102003666D01*
X143437447Y-102127476D02*
X143437447Y-101927476D01*
X143456495Y-102051285D02*
X143513638Y-102127476D01*
X143513638Y-101994142D02*
X143437447Y-102070333D01*
X143675542Y-102117952D02*
X143656495Y-102127476D01*
X143618400Y-102127476D01*
X143599352Y-102117952D01*
X143589828Y-102098904D01*
X143589828Y-102022714D01*
X143599352Y-102003666D01*
X143618400Y-101994142D01*
X143656495Y-101994142D01*
X143675542Y-102003666D01*
X143685066Y-102022714D01*
X143685066Y-102041761D01*
X143589828Y-102060809D01*
X143742209Y-101994142D02*
X143818400Y-101994142D01*
X143770780Y-101927476D02*
X143770780Y-102098904D01*
X143780304Y-102117952D01*
X143799352Y-102127476D01*
X143818400Y-102127476D01*
X141275542Y-102277476D02*
X141399352Y-102277476D01*
X141332685Y-102353666D01*
X141361257Y-102353666D01*
X141380304Y-102363190D01*
X141389828Y-102372714D01*
X141399352Y-102391761D01*
X141399352Y-102439380D01*
X141389828Y-102458428D01*
X141380304Y-102467952D01*
X141361257Y-102477476D01*
X141304114Y-102477476D01*
X141285066Y-102467952D01*
X141275542Y-102458428D01*
X141570780Y-102277476D02*
X141532685Y-102277476D01*
X141513638Y-102287000D01*
X141504114Y-102296523D01*
X141485066Y-102325095D01*
X141475542Y-102363190D01*
X141475542Y-102439380D01*
X141485066Y-102458428D01*
X141494590Y-102467952D01*
X141513638Y-102477476D01*
X141551733Y-102477476D01*
X141570780Y-102467952D01*
X141580304Y-102458428D01*
X141589828Y-102439380D01*
X141589828Y-102391761D01*
X141580304Y-102372714D01*
X141570780Y-102363190D01*
X141551733Y-102353666D01*
X141513638Y-102353666D01*
X141494590Y-102363190D01*
X141485066Y-102372714D01*
X141475542Y-102391761D01*
X141675542Y-102458428D02*
X141685066Y-102467952D01*
X141675542Y-102477476D01*
X141666019Y-102467952D01*
X141675542Y-102458428D01*
X141675542Y-102477476D01*
X141856495Y-102277476D02*
X141818400Y-102277476D01*
X141799352Y-102287000D01*
X141789828Y-102296523D01*
X141770780Y-102325095D01*
X141761257Y-102363190D01*
X141761257Y-102439380D01*
X141770780Y-102458428D01*
X141780304Y-102467952D01*
X141799352Y-102477476D01*
X141837447Y-102477476D01*
X141856495Y-102467952D01*
X141866019Y-102458428D01*
X141875542Y-102439380D01*
X141875542Y-102391761D01*
X141866019Y-102372714D01*
X141856495Y-102363190D01*
X141837447Y-102353666D01*
X141799352Y-102353666D01*
X141780304Y-102363190D01*
X141770780Y-102372714D01*
X141761257Y-102391761D01*
X142094590Y-102477476D02*
X142199352Y-102344142D01*
X142094590Y-102344142D02*
X142199352Y-102477476D01*
X142532685Y-102477476D02*
X142418400Y-102477476D01*
X142475542Y-102477476D02*
X142475542Y-102277476D01*
X142456495Y-102306047D01*
X142437447Y-102325095D01*
X142418400Y-102334619D01*
X142704114Y-102344142D02*
X142704114Y-102477476D01*
X142656495Y-102267952D02*
X142608876Y-102410809D01*
X142732685Y-102410809D01*
X142808876Y-102458428D02*
X142818400Y-102467952D01*
X142808876Y-102477476D01*
X142799352Y-102467952D01*
X142808876Y-102458428D01*
X142808876Y-102477476D01*
X142989828Y-102344142D02*
X142989828Y-102477476D01*
X142942209Y-102267952D02*
X142894590Y-102410809D01*
X143018400Y-102410809D01*
X143227923Y-102477476D02*
X143332685Y-102344142D01*
X143227923Y-102344142D02*
X143332685Y-102477476D01*
X143666019Y-102477476D02*
X143551733Y-102477476D01*
X143608876Y-102477476D02*
X143608876Y-102277476D01*
X143589828Y-102306047D01*
X143570780Y-102325095D01*
X143551733Y-102334619D01*
X143751733Y-102458428D02*
X143761257Y-102467952D01*
X143751733Y-102477476D01*
X143742209Y-102467952D01*
X143751733Y-102458428D01*
X143751733Y-102477476D01*
X143932685Y-102277476D02*
X143894590Y-102277476D01*
X143875542Y-102287000D01*
X143866019Y-102296523D01*
X143846971Y-102325095D01*
X143837447Y-102363190D01*
X143837447Y-102439380D01*
X143846971Y-102458428D01*
X143856495Y-102467952D01*
X143875542Y-102477476D01*
X143913638Y-102477476D01*
X143932685Y-102467952D01*
X143942209Y-102458428D01*
X143951733Y-102439380D01*
X143951733Y-102391761D01*
X143942209Y-102372714D01*
X143932685Y-102363190D01*
X143913638Y-102353666D01*
X143875542Y-102353666D01*
X143856495Y-102363190D01*
X143846971Y-102372714D01*
X143837447Y-102391761D01*
M02*
