M48
; DRILL file {KiCad 5.1.9-73d0e3b20d~88~ubuntu20.10.1} date Tue Mar 16 14:13:45 2021
; FORMAT={-:-/ absolute / metric / decimal}
; #@! TF.CreationDate,2021-03-16T14:13:45-04:00
; #@! TF.GenerationSoftware,Kicad,Pcbnew,5.1.9-73d0e3b20d~88~ubuntu20.10.1
; #@! TF.FileFunction,Plated,1,2,PTH
FMAT,2
METRIC
T1C1.598
%
G90
G05
T1
X138.663Y-82.677
X138.663Y-85.217
X138.663Y-87.757
X138.663Y-90.297
X138.663Y-92.837
X138.663Y-95.377
X138.663Y-97.917
X138.663Y-100.457
X138.663Y-102.997
X138.663Y-105.537
X138.663Y-108.077
X138.663Y-110.617
X138.663Y-113.157
X138.663Y-115.697
X155.774Y-82.677
X155.774Y-85.217
X155.774Y-87.757
X155.774Y-90.297
X155.774Y-92.837
X155.774Y-95.377
X155.774Y-97.917
X155.774Y-100.457
X155.774Y-102.997
X155.774Y-105.537
X155.774Y-108.077
X155.774Y-110.617
X155.774Y-113.157
X155.774Y-115.697
T0
M30
