G04 #@! TF.GenerationSoftware,KiCad,Pcbnew,5.1.4-e60b266~84~ubuntu19.04.1*
G04 #@! TF.CreationDate,2019-08-12T19:04:04-04:00*
G04 #@! TF.ProjectId,pcb2molex8878,70636232-6d6f-46c6-9578-383837382e6b,rev?*
G04 #@! TF.SameCoordinates,Original*
G04 #@! TF.FileFunction,Other,ECO1*
%FSLAX46Y46*%
G04 Gerber Fmt 4.6, Leading zero omitted, Abs format (unit mm)*
G04 Created by KiCad (PCBNEW 5.1.4-e60b266~84~ubuntu19.04.1) date 2019-08-12 19:04:04*
%MOMM*%
%LPD*%
G04 APERTURE LIST*
%ADD10C,0.025400*%
%ADD11C,0.010000*%
G04 APERTURE END LIST*
D10*
X139090400Y-80137000D02*
X146456400Y-80137000D01*
X155346400Y-118237000D02*
X155346400Y-80137000D01*
X139090400Y-118237000D02*
X139090400Y-80137000D01*
X150253700Y-118237000D02*
X144183100Y-118237000D01*
X150253700Y-120777000D02*
X150253700Y-118237000D01*
X151777700Y-120777000D02*
X150253700Y-120777000D01*
X151777700Y-118237000D02*
X151777700Y-120777000D01*
X144183100Y-120777000D02*
X144183100Y-118237000D01*
X142659100Y-120777000D02*
X144183100Y-120777000D01*
X142659100Y-118237000D02*
X142659100Y-120777000D01*
X147980400Y-77597000D02*
X147980400Y-80137000D01*
X146456400Y-77597000D02*
X147980400Y-77597000D01*
X146456400Y-80137000D02*
X146456400Y-77597000D01*
X147980400Y-80137000D02*
X155346400Y-80137000D01*
X142659100Y-118237000D02*
X139090400Y-118237000D01*
X155346400Y-118237000D02*
X151777700Y-118237000D01*
D11*
X143975542Y-112027476D02*
X143975542Y-111827476D01*
X144042209Y-111970333D01*
X144108876Y-111827476D01*
X144108876Y-112027476D01*
X144289828Y-112027476D02*
X144289828Y-111922714D01*
X144280304Y-111903666D01*
X144261257Y-111894142D01*
X144223161Y-111894142D01*
X144204114Y-111903666D01*
X144289828Y-112017952D02*
X144270780Y-112027476D01*
X144223161Y-112027476D01*
X144204114Y-112017952D01*
X144194590Y-111998904D01*
X144194590Y-111979857D01*
X144204114Y-111960809D01*
X144223161Y-111951285D01*
X144270780Y-111951285D01*
X144289828Y-111941761D01*
X144366019Y-111894142D02*
X144413638Y-112027476D01*
X144461257Y-111894142D02*
X144413638Y-112027476D01*
X144394590Y-112075095D01*
X144385066Y-112084619D01*
X144366019Y-112094142D01*
X144775542Y-112027476D02*
X144775542Y-111827476D01*
X144775542Y-112017952D02*
X144756495Y-112027476D01*
X144718400Y-112027476D01*
X144699352Y-112017952D01*
X144689828Y-112008428D01*
X144680304Y-111989380D01*
X144680304Y-111932238D01*
X144689828Y-111913190D01*
X144699352Y-111903666D01*
X144718400Y-111894142D01*
X144756495Y-111894142D01*
X144775542Y-111903666D01*
X144946971Y-112017952D02*
X144927923Y-112027476D01*
X144889828Y-112027476D01*
X144870780Y-112017952D01*
X144861257Y-111998904D01*
X144861257Y-111922714D01*
X144870780Y-111903666D01*
X144889828Y-111894142D01*
X144927923Y-111894142D01*
X144946971Y-111903666D01*
X144956495Y-111922714D01*
X144956495Y-111941761D01*
X144861257Y-111960809D01*
X145070780Y-112027476D02*
X145051733Y-112017952D01*
X145042209Y-111998904D01*
X145042209Y-111827476D01*
X145223161Y-112017952D02*
X145204114Y-112027476D01*
X145166019Y-112027476D01*
X145146971Y-112017952D01*
X145137447Y-111998904D01*
X145137447Y-111922714D01*
X145146971Y-111903666D01*
X145166019Y-111894142D01*
X145204114Y-111894142D01*
X145223161Y-111903666D01*
X145232685Y-111922714D01*
X145232685Y-111941761D01*
X145137447Y-111960809D01*
X145289828Y-111894142D02*
X145366019Y-111894142D01*
X145318400Y-111827476D02*
X145318400Y-111998904D01*
X145327923Y-112017952D01*
X145346971Y-112027476D01*
X145366019Y-112027476D01*
X145508876Y-112017952D02*
X145489828Y-112027476D01*
X145451733Y-112027476D01*
X145432685Y-112017952D01*
X145423161Y-111998904D01*
X145423161Y-111922714D01*
X145432685Y-111903666D01*
X145451733Y-111894142D01*
X145489828Y-111894142D01*
X145508876Y-111903666D01*
X145518400Y-111922714D01*
X145518400Y-111941761D01*
X145423161Y-111960809D01*
X145756495Y-112027476D02*
X145756495Y-111827476D01*
X145870780Y-112027476D01*
X145870780Y-111827476D01*
X145966019Y-112027476D02*
X145966019Y-111827476D01*
X146042209Y-111827476D01*
X146061257Y-111837000D01*
X146070780Y-111846523D01*
X146080304Y-111865571D01*
X146080304Y-111894142D01*
X146070780Y-111913190D01*
X146061257Y-111922714D01*
X146042209Y-111932238D01*
X145966019Y-111932238D01*
X146137447Y-111827476D02*
X146251733Y-111827476D01*
X146194590Y-112027476D02*
X146194590Y-111827476D01*
X146318400Y-112027476D02*
X146318400Y-111827476D01*
X146318400Y-111922714D02*
X146432685Y-111922714D01*
X146432685Y-112027476D02*
X146432685Y-111827476D01*
X146680304Y-112027476D02*
X146680304Y-111894142D01*
X146680304Y-111913190D02*
X146689828Y-111903666D01*
X146708876Y-111894142D01*
X146737447Y-111894142D01*
X146756495Y-111903666D01*
X146766019Y-111922714D01*
X146766019Y-112027476D01*
X146766019Y-111922714D02*
X146775542Y-111903666D01*
X146794590Y-111894142D01*
X146823161Y-111894142D01*
X146842209Y-111903666D01*
X146851733Y-111922714D01*
X146851733Y-112027476D01*
X147023161Y-112017952D02*
X147004114Y-112027476D01*
X146966019Y-112027476D01*
X146946971Y-112017952D01*
X146937447Y-111998904D01*
X146937447Y-111922714D01*
X146946971Y-111903666D01*
X146966019Y-111894142D01*
X147004114Y-111894142D01*
X147023161Y-111903666D01*
X147032685Y-111922714D01*
X147032685Y-111941761D01*
X146937447Y-111960809D01*
X147204114Y-112017952D02*
X147185066Y-112027476D01*
X147146971Y-112027476D01*
X147127923Y-112017952D01*
X147118400Y-112008428D01*
X147108876Y-111989380D01*
X147108876Y-111932238D01*
X147118400Y-111913190D01*
X147127923Y-111903666D01*
X147146971Y-111894142D01*
X147185066Y-111894142D01*
X147204114Y-111903666D01*
X147289828Y-112027476D02*
X147289828Y-111827476D01*
X147375542Y-112027476D02*
X147375542Y-111922714D01*
X147366019Y-111903666D01*
X147346971Y-111894142D01*
X147318400Y-111894142D01*
X147299352Y-111903666D01*
X147289828Y-111913190D01*
X147556495Y-112027476D02*
X147556495Y-111922714D01*
X147546971Y-111903666D01*
X147527923Y-111894142D01*
X147489828Y-111894142D01*
X147470780Y-111903666D01*
X147556495Y-112017952D02*
X147537447Y-112027476D01*
X147489828Y-112027476D01*
X147470780Y-112017952D01*
X147461257Y-111998904D01*
X147461257Y-111979857D01*
X147470780Y-111960809D01*
X147489828Y-111951285D01*
X147537447Y-111951285D01*
X147556495Y-111941761D01*
X147651733Y-111894142D02*
X147651733Y-112027476D01*
X147651733Y-111913190D02*
X147661257Y-111903666D01*
X147680304Y-111894142D01*
X147708876Y-111894142D01*
X147727923Y-111903666D01*
X147737447Y-111922714D01*
X147737447Y-112027476D01*
X147832685Y-112027476D02*
X147832685Y-111894142D01*
X147832685Y-111827476D02*
X147823161Y-111837000D01*
X147832685Y-111846523D01*
X147842209Y-111837000D01*
X147832685Y-111827476D01*
X147832685Y-111846523D01*
X148013638Y-112017952D02*
X147994590Y-112027476D01*
X147956495Y-112027476D01*
X147937447Y-112017952D01*
X147927923Y-112008428D01*
X147918400Y-111989380D01*
X147918400Y-111932238D01*
X147927923Y-111913190D01*
X147937447Y-111903666D01*
X147956495Y-111894142D01*
X147994590Y-111894142D01*
X148013638Y-111903666D01*
X148185066Y-112027476D02*
X148185066Y-111922714D01*
X148175542Y-111903666D01*
X148156495Y-111894142D01*
X148118400Y-111894142D01*
X148099352Y-111903666D01*
X148185066Y-112017952D02*
X148166019Y-112027476D01*
X148118400Y-112027476D01*
X148099352Y-112017952D01*
X148089828Y-111998904D01*
X148089828Y-111979857D01*
X148099352Y-111960809D01*
X148118400Y-111951285D01*
X148166019Y-111951285D01*
X148185066Y-111941761D01*
X148308876Y-112027476D02*
X148289828Y-112017952D01*
X148280304Y-111998904D01*
X148280304Y-111827476D01*
X148537447Y-111894142D02*
X148537447Y-112094142D01*
X148537447Y-111903666D02*
X148556495Y-111894142D01*
X148594590Y-111894142D01*
X148613638Y-111903666D01*
X148623161Y-111913190D01*
X148632685Y-111932238D01*
X148632685Y-111989380D01*
X148623161Y-112008428D01*
X148613638Y-112017952D01*
X148594590Y-112027476D01*
X148556495Y-112027476D01*
X148537447Y-112017952D01*
X148746971Y-112027476D02*
X148727923Y-112017952D01*
X148718400Y-112008428D01*
X148708876Y-111989380D01*
X148708876Y-111932238D01*
X148718400Y-111913190D01*
X148727923Y-111903666D01*
X148746971Y-111894142D01*
X148775542Y-111894142D01*
X148794590Y-111903666D01*
X148804114Y-111913190D01*
X148813638Y-111932238D01*
X148813638Y-111989380D01*
X148804114Y-112008428D01*
X148794590Y-112017952D01*
X148775542Y-112027476D01*
X148746971Y-112027476D01*
X148927923Y-112027476D02*
X148908876Y-112017952D01*
X148899352Y-111998904D01*
X148899352Y-111827476D01*
X149089828Y-112027476D02*
X149089828Y-111922714D01*
X149080304Y-111903666D01*
X149061257Y-111894142D01*
X149023161Y-111894142D01*
X149004114Y-111903666D01*
X149089828Y-112017952D02*
X149070780Y-112027476D01*
X149023161Y-112027476D01*
X149004114Y-112017952D01*
X148994590Y-111998904D01*
X148994590Y-111979857D01*
X149004114Y-111960809D01*
X149023161Y-111951285D01*
X149070780Y-111951285D01*
X149089828Y-111941761D01*
X149185066Y-112027476D02*
X149185066Y-111894142D01*
X149185066Y-111932238D02*
X149194590Y-111913190D01*
X149204114Y-111903666D01*
X149223161Y-111894142D01*
X149242209Y-111894142D01*
X149308876Y-112027476D02*
X149308876Y-111894142D01*
X149308876Y-111827476D02*
X149299352Y-111837000D01*
X149308876Y-111846523D01*
X149318400Y-111837000D01*
X149308876Y-111827476D01*
X149308876Y-111846523D01*
X149375542Y-111894142D02*
X149451733Y-111894142D01*
X149404114Y-111827476D02*
X149404114Y-111998904D01*
X149413638Y-112017952D01*
X149432685Y-112027476D01*
X149451733Y-112027476D01*
X149499352Y-111894142D02*
X149546971Y-112027476D01*
X149594590Y-111894142D02*
X149546971Y-112027476D01*
X149527923Y-112075095D01*
X149518400Y-112084619D01*
X149499352Y-112094142D01*
X149823161Y-112027476D02*
X149823161Y-111827476D01*
X149908876Y-112027476D02*
X149908876Y-111922714D01*
X149899352Y-111903666D01*
X149880304Y-111894142D01*
X149851733Y-111894142D01*
X149832685Y-111903666D01*
X149823161Y-111913190D01*
X150032685Y-112027476D02*
X150013638Y-112017952D01*
X150004114Y-112008428D01*
X149994590Y-111989380D01*
X149994590Y-111932238D01*
X150004114Y-111913190D01*
X150013638Y-111903666D01*
X150032685Y-111894142D01*
X150061257Y-111894142D01*
X150080304Y-111903666D01*
X150089828Y-111913190D01*
X150099352Y-111932238D01*
X150099352Y-111989380D01*
X150089828Y-112008428D01*
X150080304Y-112017952D01*
X150061257Y-112027476D01*
X150032685Y-112027476D01*
X150213638Y-112027476D02*
X150194590Y-112017952D01*
X150185066Y-111998904D01*
X150185066Y-111827476D01*
X150366019Y-112017952D02*
X150346971Y-112027476D01*
X150308876Y-112027476D01*
X150289828Y-112017952D01*
X150280304Y-111998904D01*
X150280304Y-111922714D01*
X150289828Y-111903666D01*
X150308876Y-111894142D01*
X150346971Y-111894142D01*
X150366019Y-111903666D01*
X150375542Y-111922714D01*
X150375542Y-111941761D01*
X150280304Y-111960809D01*
X150461257Y-112008428D02*
X150470780Y-112017952D01*
X150461257Y-112027476D01*
X150451733Y-112017952D01*
X150461257Y-112008428D01*
X150461257Y-112027476D01*
X143626695Y-111422714D02*
X143693361Y-111422714D01*
X143721933Y-111527476D02*
X143626695Y-111527476D01*
X143626695Y-111327476D01*
X143721933Y-111327476D01*
X143893361Y-111517952D02*
X143874314Y-111527476D01*
X143836219Y-111527476D01*
X143817171Y-111517952D01*
X143807647Y-111508428D01*
X143798123Y-111489380D01*
X143798123Y-111432238D01*
X143807647Y-111413190D01*
X143817171Y-111403666D01*
X143836219Y-111394142D01*
X143874314Y-111394142D01*
X143893361Y-111403666D01*
X144007647Y-111527476D02*
X143988600Y-111517952D01*
X143979076Y-111508428D01*
X143969552Y-111489380D01*
X143969552Y-111432238D01*
X143979076Y-111413190D01*
X143988600Y-111403666D01*
X144007647Y-111394142D01*
X144036219Y-111394142D01*
X144055266Y-111403666D01*
X144064790Y-111413190D01*
X144074314Y-111432238D01*
X144074314Y-111489380D01*
X144064790Y-111508428D01*
X144055266Y-111517952D01*
X144036219Y-111527476D01*
X144007647Y-111527476D01*
X144264790Y-111527476D02*
X144150504Y-111527476D01*
X144207647Y-111527476D02*
X144207647Y-111327476D01*
X144188600Y-111356047D01*
X144169552Y-111375095D01*
X144150504Y-111384619D01*
X144350504Y-111508428D02*
X144360028Y-111517952D01*
X144350504Y-111527476D01*
X144340980Y-111517952D01*
X144350504Y-111508428D01*
X144350504Y-111527476D01*
X144445742Y-111327476D02*
X144445742Y-111489380D01*
X144455266Y-111508428D01*
X144464790Y-111517952D01*
X144483838Y-111527476D01*
X144521933Y-111527476D01*
X144540980Y-111517952D01*
X144550504Y-111508428D01*
X144560028Y-111489380D01*
X144560028Y-111327476D01*
X144645742Y-111517952D02*
X144664790Y-111527476D01*
X144702885Y-111527476D01*
X144721933Y-111517952D01*
X144731457Y-111498904D01*
X144731457Y-111489380D01*
X144721933Y-111470333D01*
X144702885Y-111460809D01*
X144674314Y-111460809D01*
X144655266Y-111451285D01*
X144645742Y-111432238D01*
X144645742Y-111422714D01*
X144655266Y-111403666D01*
X144674314Y-111394142D01*
X144702885Y-111394142D01*
X144721933Y-111403666D01*
X144893361Y-111517952D02*
X144874314Y-111527476D01*
X144836219Y-111527476D01*
X144817171Y-111517952D01*
X144807647Y-111498904D01*
X144807647Y-111422714D01*
X144817171Y-111403666D01*
X144836219Y-111394142D01*
X144874314Y-111394142D01*
X144893361Y-111403666D01*
X144902885Y-111422714D01*
X144902885Y-111441761D01*
X144807647Y-111460809D01*
X144988600Y-111527476D02*
X144988600Y-111394142D01*
X144988600Y-111432238D02*
X144998123Y-111413190D01*
X145007647Y-111403666D01*
X145026695Y-111394142D01*
X145045742Y-111394142D01*
X145264790Y-111527476D02*
X145264790Y-111394142D01*
X145264790Y-111327476D02*
X145255266Y-111337000D01*
X145264790Y-111346523D01*
X145274314Y-111337000D01*
X145264790Y-111327476D01*
X145264790Y-111346523D01*
X145350504Y-111517952D02*
X145369552Y-111527476D01*
X145407647Y-111527476D01*
X145426695Y-111517952D01*
X145436219Y-111498904D01*
X145436219Y-111489380D01*
X145426695Y-111470333D01*
X145407647Y-111460809D01*
X145379076Y-111460809D01*
X145360028Y-111451285D01*
X145350504Y-111432238D01*
X145350504Y-111422714D01*
X145360028Y-111403666D01*
X145379076Y-111394142D01*
X145407647Y-111394142D01*
X145426695Y-111403666D01*
X145674314Y-111422714D02*
X145740980Y-111422714D01*
X145769552Y-111527476D02*
X145674314Y-111527476D01*
X145674314Y-111327476D01*
X145769552Y-111327476D01*
X145940980Y-111527476D02*
X145940980Y-111327476D01*
X145940980Y-111517952D02*
X145921933Y-111527476D01*
X145883838Y-111527476D01*
X145864790Y-111517952D01*
X145855266Y-111508428D01*
X145845742Y-111489380D01*
X145845742Y-111432238D01*
X145855266Y-111413190D01*
X145864790Y-111403666D01*
X145883838Y-111394142D01*
X145921933Y-111394142D01*
X145940980Y-111403666D01*
X146121933Y-111394142D02*
X146121933Y-111556047D01*
X146112409Y-111575095D01*
X146102885Y-111584619D01*
X146083838Y-111594142D01*
X146055266Y-111594142D01*
X146036219Y-111584619D01*
X146121933Y-111517952D02*
X146102885Y-111527476D01*
X146064790Y-111527476D01*
X146045742Y-111517952D01*
X146036219Y-111508428D01*
X146026695Y-111489380D01*
X146026695Y-111432238D01*
X146036219Y-111413190D01*
X146045742Y-111403666D01*
X146064790Y-111394142D01*
X146102885Y-111394142D01*
X146121933Y-111403666D01*
X146293361Y-111517952D02*
X146274314Y-111527476D01*
X146236219Y-111527476D01*
X146217171Y-111517952D01*
X146207647Y-111498904D01*
X146207647Y-111422714D01*
X146217171Y-111403666D01*
X146236219Y-111394142D01*
X146274314Y-111394142D01*
X146293361Y-111403666D01*
X146302885Y-111422714D01*
X146302885Y-111441761D01*
X146207647Y-111460809D01*
X146388600Y-111508428D02*
X146398123Y-111517952D01*
X146388600Y-111527476D01*
X146379076Y-111517952D01*
X146388600Y-111508428D01*
X146388600Y-111527476D01*
X146598123Y-111508428D02*
X146588600Y-111517952D01*
X146560028Y-111527476D01*
X146540980Y-111527476D01*
X146512409Y-111517952D01*
X146493361Y-111498904D01*
X146483838Y-111479857D01*
X146474314Y-111441761D01*
X146474314Y-111413190D01*
X146483838Y-111375095D01*
X146493361Y-111356047D01*
X146512409Y-111337000D01*
X146540980Y-111327476D01*
X146560028Y-111327476D01*
X146588600Y-111337000D01*
X146598123Y-111346523D01*
X146769552Y-111394142D02*
X146769552Y-111527476D01*
X146683838Y-111394142D02*
X146683838Y-111498904D01*
X146693361Y-111517952D01*
X146712409Y-111527476D01*
X146740980Y-111527476D01*
X146760028Y-111517952D01*
X146769552Y-111508428D01*
X146836219Y-111394142D02*
X146912409Y-111394142D01*
X146864790Y-111327476D02*
X146864790Y-111498904D01*
X146874314Y-111517952D01*
X146893361Y-111527476D01*
X146912409Y-111527476D01*
X146969552Y-111517952D02*
X146988600Y-111527476D01*
X147026695Y-111527476D01*
X147045742Y-111517952D01*
X147055266Y-111498904D01*
X147055266Y-111489380D01*
X147045742Y-111470333D01*
X147026695Y-111460809D01*
X146998123Y-111460809D01*
X146979076Y-111451285D01*
X146969552Y-111432238D01*
X146969552Y-111422714D01*
X146979076Y-111403666D01*
X146998123Y-111394142D01*
X147026695Y-111394142D01*
X147045742Y-111403666D01*
X147264790Y-111394142D02*
X147340980Y-111394142D01*
X147293361Y-111527476D02*
X147293361Y-111356047D01*
X147302885Y-111337000D01*
X147321933Y-111327476D01*
X147340980Y-111327476D01*
X147436219Y-111527476D02*
X147417171Y-111517952D01*
X147407647Y-111508428D01*
X147398123Y-111489380D01*
X147398123Y-111432238D01*
X147407647Y-111413190D01*
X147417171Y-111403666D01*
X147436219Y-111394142D01*
X147464790Y-111394142D01*
X147483838Y-111403666D01*
X147493361Y-111413190D01*
X147502885Y-111432238D01*
X147502885Y-111489380D01*
X147493361Y-111508428D01*
X147483838Y-111517952D01*
X147464790Y-111527476D01*
X147436219Y-111527476D01*
X147588600Y-111527476D02*
X147588600Y-111394142D01*
X147588600Y-111432238D02*
X147598123Y-111413190D01*
X147607647Y-111403666D01*
X147626695Y-111394142D01*
X147645742Y-111394142D01*
X147950504Y-111394142D02*
X147950504Y-111527476D01*
X147864790Y-111394142D02*
X147864790Y-111498904D01*
X147874314Y-111517952D01*
X147893361Y-111527476D01*
X147921933Y-111527476D01*
X147940980Y-111517952D01*
X147950504Y-111508428D01*
X148036219Y-111517952D02*
X148055266Y-111527476D01*
X148093361Y-111527476D01*
X148112409Y-111517952D01*
X148121933Y-111498904D01*
X148121933Y-111489380D01*
X148112409Y-111470333D01*
X148093361Y-111460809D01*
X148064790Y-111460809D01*
X148045742Y-111451285D01*
X148036219Y-111432238D01*
X148036219Y-111422714D01*
X148045742Y-111403666D01*
X148064790Y-111394142D01*
X148093361Y-111394142D01*
X148112409Y-111403666D01*
X148283838Y-111517952D02*
X148264790Y-111527476D01*
X148226695Y-111527476D01*
X148207647Y-111517952D01*
X148198123Y-111498904D01*
X148198123Y-111422714D01*
X148207647Y-111403666D01*
X148226695Y-111394142D01*
X148264790Y-111394142D01*
X148283838Y-111403666D01*
X148293361Y-111422714D01*
X148293361Y-111441761D01*
X148198123Y-111460809D01*
X148512409Y-111394142D02*
X148550504Y-111527476D01*
X148588600Y-111432238D01*
X148626695Y-111527476D01*
X148664790Y-111394142D01*
X148740980Y-111527476D02*
X148740980Y-111394142D01*
X148740980Y-111327476D02*
X148731457Y-111337000D01*
X148740980Y-111346523D01*
X148750504Y-111337000D01*
X148740980Y-111327476D01*
X148740980Y-111346523D01*
X148807647Y-111394142D02*
X148883838Y-111394142D01*
X148836219Y-111327476D02*
X148836219Y-111498904D01*
X148845742Y-111517952D01*
X148864790Y-111527476D01*
X148883838Y-111527476D01*
X148950504Y-111527476D02*
X148950504Y-111327476D01*
X149036219Y-111527476D02*
X149036219Y-111422714D01*
X149026695Y-111403666D01*
X149007647Y-111394142D01*
X148979076Y-111394142D01*
X148960028Y-111403666D01*
X148950504Y-111413190D01*
X149160028Y-111527476D02*
X149140980Y-111517952D01*
X149131457Y-111508428D01*
X149121933Y-111489380D01*
X149121933Y-111432238D01*
X149131457Y-111413190D01*
X149140980Y-111403666D01*
X149160028Y-111394142D01*
X149188600Y-111394142D01*
X149207647Y-111403666D01*
X149217171Y-111413190D01*
X149226695Y-111432238D01*
X149226695Y-111489380D01*
X149217171Y-111508428D01*
X149207647Y-111517952D01*
X149188600Y-111527476D01*
X149160028Y-111527476D01*
X149398123Y-111394142D02*
X149398123Y-111527476D01*
X149312409Y-111394142D02*
X149312409Y-111498904D01*
X149321933Y-111517952D01*
X149340980Y-111527476D01*
X149369552Y-111527476D01*
X149388600Y-111517952D01*
X149398123Y-111508428D01*
X149464790Y-111394142D02*
X149540980Y-111394142D01*
X149493361Y-111327476D02*
X149493361Y-111498904D01*
X149502885Y-111517952D01*
X149521933Y-111527476D01*
X149540980Y-111527476D01*
X149845742Y-111517952D02*
X149826695Y-111527476D01*
X149788600Y-111527476D01*
X149769552Y-111517952D01*
X149760028Y-111508428D01*
X149750504Y-111489380D01*
X149750504Y-111432238D01*
X149760028Y-111413190D01*
X149769552Y-111403666D01*
X149788600Y-111394142D01*
X149826695Y-111394142D01*
X149845742Y-111403666D01*
X150017171Y-111527476D02*
X150017171Y-111422714D01*
X150007647Y-111403666D01*
X149988600Y-111394142D01*
X149950504Y-111394142D01*
X149931457Y-111403666D01*
X150017171Y-111517952D02*
X149998123Y-111527476D01*
X149950504Y-111527476D01*
X149931457Y-111517952D01*
X149921933Y-111498904D01*
X149921933Y-111479857D01*
X149931457Y-111460809D01*
X149950504Y-111451285D01*
X149998123Y-111451285D01*
X150017171Y-111441761D01*
X150112409Y-111527476D02*
X150112409Y-111394142D01*
X150112409Y-111432238D02*
X150121933Y-111413190D01*
X150131457Y-111403666D01*
X150150504Y-111394142D01*
X150169552Y-111394142D01*
X150236219Y-111527476D02*
X150236219Y-111394142D01*
X150236219Y-111432238D02*
X150245742Y-111413190D01*
X150255266Y-111403666D01*
X150274314Y-111394142D01*
X150293361Y-111394142D01*
X150360028Y-111527476D02*
X150360028Y-111394142D01*
X150360028Y-111327476D02*
X150350504Y-111337000D01*
X150360028Y-111346523D01*
X150369552Y-111337000D01*
X150360028Y-111327476D01*
X150360028Y-111346523D01*
X150531457Y-111517952D02*
X150512409Y-111527476D01*
X150474314Y-111527476D01*
X150455266Y-111517952D01*
X150445742Y-111498904D01*
X150445742Y-111422714D01*
X150455266Y-111403666D01*
X150474314Y-111394142D01*
X150512409Y-111394142D01*
X150531457Y-111403666D01*
X150540980Y-111422714D01*
X150540980Y-111441761D01*
X150445742Y-111460809D01*
X150626695Y-111527476D02*
X150626695Y-111394142D01*
X150626695Y-111432238D02*
X150636219Y-111413190D01*
X150645742Y-111403666D01*
X150664790Y-111394142D01*
X150683838Y-111394142D01*
X150750504Y-111508428D02*
X150760028Y-111517952D01*
X150750504Y-111527476D01*
X150740980Y-111517952D01*
X150750504Y-111508428D01*
X150750504Y-111527476D01*
M02*
