G04 #@! TF.GenerationSoftware,KiCad,Pcbnew,5.1.4-e60b266~84~ubuntu19.04.1*
G04 #@! TF.CreationDate,2019-08-12T19:04:04-04:00*
G04 #@! TF.ProjectId,pcb2molex8878,70636232-6d6f-46c6-9578-383837382e6b,rev?*
G04 #@! TF.SameCoordinates,Original*
G04 #@! TF.FileFunction,Copper,L1,Top*
G04 #@! TF.FilePolarity,Positive*
%FSLAX46Y46*%
G04 Gerber Fmt 4.6, Leading zero omitted, Abs format (unit mm)*
G04 Created by KiCad (PCBNEW 5.1.4-e60b266~84~ubuntu19.04.1) date 2019-08-12 19:04:04*
%MOMM*%
%LPD*%
G04 APERTURE LIST*
%ADD10C,0.050800*%
%ADD11C,1.905000*%
G04 APERTURE END LIST*
D10*
G36*
X139667872Y-81661917D02*
G01*
X139686365Y-81664660D01*
X139704499Y-81669203D01*
X139722101Y-81675501D01*
X139739001Y-81683494D01*
X139755036Y-81693105D01*
X139770052Y-81704242D01*
X139783904Y-81716796D01*
X139796458Y-81730648D01*
X139807595Y-81745664D01*
X139817206Y-81761699D01*
X139825199Y-81778599D01*
X139831497Y-81796201D01*
X139836040Y-81814335D01*
X139838783Y-81832828D01*
X139839700Y-81851500D01*
X139839700Y-83502500D01*
X139838783Y-83521172D01*
X139836040Y-83539665D01*
X139831497Y-83557799D01*
X139825199Y-83575401D01*
X139817206Y-83592301D01*
X139807595Y-83608336D01*
X139796458Y-83623352D01*
X139783904Y-83637204D01*
X139770052Y-83649758D01*
X139755036Y-83660895D01*
X139739001Y-83670506D01*
X139722101Y-83678499D01*
X139704499Y-83684797D01*
X139686365Y-83689340D01*
X139667872Y-83692083D01*
X139649200Y-83693000D01*
X138125200Y-83693000D01*
X138106528Y-83692083D01*
X138088035Y-83689340D01*
X138069901Y-83684797D01*
X138052299Y-83678499D01*
X138035399Y-83670506D01*
X138019364Y-83660895D01*
X138004348Y-83649758D01*
X137990496Y-83637204D01*
X137977942Y-83623352D01*
X137966805Y-83608336D01*
X137957194Y-83592301D01*
X137949201Y-83575401D01*
X137942903Y-83557799D01*
X137938360Y-83539665D01*
X137935617Y-83521172D01*
X137934700Y-83502500D01*
X137934700Y-81851500D01*
X137935617Y-81832828D01*
X137938360Y-81814335D01*
X137942903Y-81796201D01*
X137949201Y-81778599D01*
X137957194Y-81761699D01*
X137966805Y-81745664D01*
X137977942Y-81730648D01*
X137990496Y-81716796D01*
X138004348Y-81704242D01*
X138019364Y-81693105D01*
X138035399Y-81683494D01*
X138052299Y-81675501D01*
X138069901Y-81669203D01*
X138088035Y-81664660D01*
X138106528Y-81661917D01*
X138125200Y-81661000D01*
X139649200Y-81661000D01*
X139667872Y-81661917D01*
X139667872Y-81661917D01*
G37*
D11*
X138887200Y-82677000D03*
D10*
G36*
X156330272Y-114681917D02*
G01*
X156348765Y-114684660D01*
X156366899Y-114689203D01*
X156384501Y-114695501D01*
X156401401Y-114703494D01*
X156417436Y-114713105D01*
X156432452Y-114724242D01*
X156446304Y-114736796D01*
X156458858Y-114750648D01*
X156469995Y-114765664D01*
X156479606Y-114781699D01*
X156487599Y-114798599D01*
X156493897Y-114816201D01*
X156498440Y-114834335D01*
X156501183Y-114852828D01*
X156502100Y-114871500D01*
X156502100Y-116522500D01*
X156501183Y-116541172D01*
X156498440Y-116559665D01*
X156493897Y-116577799D01*
X156487599Y-116595401D01*
X156479606Y-116612301D01*
X156469995Y-116628336D01*
X156458858Y-116643352D01*
X156446304Y-116657204D01*
X156432452Y-116669758D01*
X156417436Y-116680895D01*
X156401401Y-116690506D01*
X156384501Y-116698499D01*
X156366899Y-116704797D01*
X156348765Y-116709340D01*
X156330272Y-116712083D01*
X156311600Y-116713000D01*
X154787600Y-116713000D01*
X154768928Y-116712083D01*
X154750435Y-116709340D01*
X154732301Y-116704797D01*
X154714699Y-116698499D01*
X154697799Y-116690506D01*
X154681764Y-116680895D01*
X154666748Y-116669758D01*
X154652896Y-116657204D01*
X154640342Y-116643352D01*
X154629205Y-116628336D01*
X154619594Y-116612301D01*
X154611601Y-116595401D01*
X154605303Y-116577799D01*
X154600760Y-116559665D01*
X154598017Y-116541172D01*
X154597100Y-116522500D01*
X154597100Y-114871500D01*
X154598017Y-114852828D01*
X154600760Y-114834335D01*
X154605303Y-114816201D01*
X154611601Y-114798599D01*
X154619594Y-114781699D01*
X154629205Y-114765664D01*
X154640342Y-114750648D01*
X154652896Y-114736796D01*
X154666748Y-114724242D01*
X154681764Y-114713105D01*
X154697799Y-114703494D01*
X154714699Y-114695501D01*
X154732301Y-114689203D01*
X154750435Y-114684660D01*
X154768928Y-114681917D01*
X154787600Y-114681000D01*
X156311600Y-114681000D01*
X156330272Y-114681917D01*
X156330272Y-114681917D01*
G37*
D11*
X155549600Y-115697000D03*
D10*
G36*
X139667872Y-84201917D02*
G01*
X139686365Y-84204660D01*
X139704499Y-84209203D01*
X139722101Y-84215501D01*
X139739001Y-84223494D01*
X139755036Y-84233105D01*
X139770052Y-84244242D01*
X139783904Y-84256796D01*
X139796458Y-84270648D01*
X139807595Y-84285664D01*
X139817206Y-84301699D01*
X139825199Y-84318599D01*
X139831497Y-84336201D01*
X139836040Y-84354335D01*
X139838783Y-84372828D01*
X139839700Y-84391500D01*
X139839700Y-86042500D01*
X139838783Y-86061172D01*
X139836040Y-86079665D01*
X139831497Y-86097799D01*
X139825199Y-86115401D01*
X139817206Y-86132301D01*
X139807595Y-86148336D01*
X139796458Y-86163352D01*
X139783904Y-86177204D01*
X139770052Y-86189758D01*
X139755036Y-86200895D01*
X139739001Y-86210506D01*
X139722101Y-86218499D01*
X139704499Y-86224797D01*
X139686365Y-86229340D01*
X139667872Y-86232083D01*
X139649200Y-86233000D01*
X138125200Y-86233000D01*
X138106528Y-86232083D01*
X138088035Y-86229340D01*
X138069901Y-86224797D01*
X138052299Y-86218499D01*
X138035399Y-86210506D01*
X138019364Y-86200895D01*
X138004348Y-86189758D01*
X137990496Y-86177204D01*
X137977942Y-86163352D01*
X137966805Y-86148336D01*
X137957194Y-86132301D01*
X137949201Y-86115401D01*
X137942903Y-86097799D01*
X137938360Y-86079665D01*
X137935617Y-86061172D01*
X137934700Y-86042500D01*
X137934700Y-84391500D01*
X137935617Y-84372828D01*
X137938360Y-84354335D01*
X137942903Y-84336201D01*
X137949201Y-84318599D01*
X137957194Y-84301699D01*
X137966805Y-84285664D01*
X137977942Y-84270648D01*
X137990496Y-84256796D01*
X138004348Y-84244242D01*
X138019364Y-84233105D01*
X138035399Y-84223494D01*
X138052299Y-84215501D01*
X138069901Y-84209203D01*
X138088035Y-84204660D01*
X138106528Y-84201917D01*
X138125200Y-84201000D01*
X139649200Y-84201000D01*
X139667872Y-84201917D01*
X139667872Y-84201917D01*
G37*
D11*
X138887200Y-85217000D03*
D10*
G36*
X156330272Y-112141917D02*
G01*
X156348765Y-112144660D01*
X156366899Y-112149203D01*
X156384501Y-112155501D01*
X156401401Y-112163494D01*
X156417436Y-112173105D01*
X156432452Y-112184242D01*
X156446304Y-112196796D01*
X156458858Y-112210648D01*
X156469995Y-112225664D01*
X156479606Y-112241699D01*
X156487599Y-112258599D01*
X156493897Y-112276201D01*
X156498440Y-112294335D01*
X156501183Y-112312828D01*
X156502100Y-112331500D01*
X156502100Y-113982500D01*
X156501183Y-114001172D01*
X156498440Y-114019665D01*
X156493897Y-114037799D01*
X156487599Y-114055401D01*
X156479606Y-114072301D01*
X156469995Y-114088336D01*
X156458858Y-114103352D01*
X156446304Y-114117204D01*
X156432452Y-114129758D01*
X156417436Y-114140895D01*
X156401401Y-114150506D01*
X156384501Y-114158499D01*
X156366899Y-114164797D01*
X156348765Y-114169340D01*
X156330272Y-114172083D01*
X156311600Y-114173000D01*
X154787600Y-114173000D01*
X154768928Y-114172083D01*
X154750435Y-114169340D01*
X154732301Y-114164797D01*
X154714699Y-114158499D01*
X154697799Y-114150506D01*
X154681764Y-114140895D01*
X154666748Y-114129758D01*
X154652896Y-114117204D01*
X154640342Y-114103352D01*
X154629205Y-114088336D01*
X154619594Y-114072301D01*
X154611601Y-114055401D01*
X154605303Y-114037799D01*
X154600760Y-114019665D01*
X154598017Y-114001172D01*
X154597100Y-113982500D01*
X154597100Y-112331500D01*
X154598017Y-112312828D01*
X154600760Y-112294335D01*
X154605303Y-112276201D01*
X154611601Y-112258599D01*
X154619594Y-112241699D01*
X154629205Y-112225664D01*
X154640342Y-112210648D01*
X154652896Y-112196796D01*
X154666748Y-112184242D01*
X154681764Y-112173105D01*
X154697799Y-112163494D01*
X154714699Y-112155501D01*
X154732301Y-112149203D01*
X154750435Y-112144660D01*
X154768928Y-112141917D01*
X154787600Y-112141000D01*
X156311600Y-112141000D01*
X156330272Y-112141917D01*
X156330272Y-112141917D01*
G37*
D11*
X155549600Y-113157000D03*
D10*
G36*
X139667872Y-86741917D02*
G01*
X139686365Y-86744660D01*
X139704499Y-86749203D01*
X139722101Y-86755501D01*
X139739001Y-86763494D01*
X139755036Y-86773105D01*
X139770052Y-86784242D01*
X139783904Y-86796796D01*
X139796458Y-86810648D01*
X139807595Y-86825664D01*
X139817206Y-86841699D01*
X139825199Y-86858599D01*
X139831497Y-86876201D01*
X139836040Y-86894335D01*
X139838783Y-86912828D01*
X139839700Y-86931500D01*
X139839700Y-88582500D01*
X139838783Y-88601172D01*
X139836040Y-88619665D01*
X139831497Y-88637799D01*
X139825199Y-88655401D01*
X139817206Y-88672301D01*
X139807595Y-88688336D01*
X139796458Y-88703352D01*
X139783904Y-88717204D01*
X139770052Y-88729758D01*
X139755036Y-88740895D01*
X139739001Y-88750506D01*
X139722101Y-88758499D01*
X139704499Y-88764797D01*
X139686365Y-88769340D01*
X139667872Y-88772083D01*
X139649200Y-88773000D01*
X138125200Y-88773000D01*
X138106528Y-88772083D01*
X138088035Y-88769340D01*
X138069901Y-88764797D01*
X138052299Y-88758499D01*
X138035399Y-88750506D01*
X138019364Y-88740895D01*
X138004348Y-88729758D01*
X137990496Y-88717204D01*
X137977942Y-88703352D01*
X137966805Y-88688336D01*
X137957194Y-88672301D01*
X137949201Y-88655401D01*
X137942903Y-88637799D01*
X137938360Y-88619665D01*
X137935617Y-88601172D01*
X137934700Y-88582500D01*
X137934700Y-86931500D01*
X137935617Y-86912828D01*
X137938360Y-86894335D01*
X137942903Y-86876201D01*
X137949201Y-86858599D01*
X137957194Y-86841699D01*
X137966805Y-86825664D01*
X137977942Y-86810648D01*
X137990496Y-86796796D01*
X138004348Y-86784242D01*
X138019364Y-86773105D01*
X138035399Y-86763494D01*
X138052299Y-86755501D01*
X138069901Y-86749203D01*
X138088035Y-86744660D01*
X138106528Y-86741917D01*
X138125200Y-86741000D01*
X139649200Y-86741000D01*
X139667872Y-86741917D01*
X139667872Y-86741917D01*
G37*
D11*
X138887200Y-87757000D03*
D10*
G36*
X156330272Y-109601917D02*
G01*
X156348765Y-109604660D01*
X156366899Y-109609203D01*
X156384501Y-109615501D01*
X156401401Y-109623494D01*
X156417436Y-109633105D01*
X156432452Y-109644242D01*
X156446304Y-109656796D01*
X156458858Y-109670648D01*
X156469995Y-109685664D01*
X156479606Y-109701699D01*
X156487599Y-109718599D01*
X156493897Y-109736201D01*
X156498440Y-109754335D01*
X156501183Y-109772828D01*
X156502100Y-109791500D01*
X156502100Y-111442500D01*
X156501183Y-111461172D01*
X156498440Y-111479665D01*
X156493897Y-111497799D01*
X156487599Y-111515401D01*
X156479606Y-111532301D01*
X156469995Y-111548336D01*
X156458858Y-111563352D01*
X156446304Y-111577204D01*
X156432452Y-111589758D01*
X156417436Y-111600895D01*
X156401401Y-111610506D01*
X156384501Y-111618499D01*
X156366899Y-111624797D01*
X156348765Y-111629340D01*
X156330272Y-111632083D01*
X156311600Y-111633000D01*
X154787600Y-111633000D01*
X154768928Y-111632083D01*
X154750435Y-111629340D01*
X154732301Y-111624797D01*
X154714699Y-111618499D01*
X154697799Y-111610506D01*
X154681764Y-111600895D01*
X154666748Y-111589758D01*
X154652896Y-111577204D01*
X154640342Y-111563352D01*
X154629205Y-111548336D01*
X154619594Y-111532301D01*
X154611601Y-111515401D01*
X154605303Y-111497799D01*
X154600760Y-111479665D01*
X154598017Y-111461172D01*
X154597100Y-111442500D01*
X154597100Y-109791500D01*
X154598017Y-109772828D01*
X154600760Y-109754335D01*
X154605303Y-109736201D01*
X154611601Y-109718599D01*
X154619594Y-109701699D01*
X154629205Y-109685664D01*
X154640342Y-109670648D01*
X154652896Y-109656796D01*
X154666748Y-109644242D01*
X154681764Y-109633105D01*
X154697799Y-109623494D01*
X154714699Y-109615501D01*
X154732301Y-109609203D01*
X154750435Y-109604660D01*
X154768928Y-109601917D01*
X154787600Y-109601000D01*
X156311600Y-109601000D01*
X156330272Y-109601917D01*
X156330272Y-109601917D01*
G37*
D11*
X155549600Y-110617000D03*
D10*
G36*
X139667872Y-89281917D02*
G01*
X139686365Y-89284660D01*
X139704499Y-89289203D01*
X139722101Y-89295501D01*
X139739001Y-89303494D01*
X139755036Y-89313105D01*
X139770052Y-89324242D01*
X139783904Y-89336796D01*
X139796458Y-89350648D01*
X139807595Y-89365664D01*
X139817206Y-89381699D01*
X139825199Y-89398599D01*
X139831497Y-89416201D01*
X139836040Y-89434335D01*
X139838783Y-89452828D01*
X139839700Y-89471500D01*
X139839700Y-91122500D01*
X139838783Y-91141172D01*
X139836040Y-91159665D01*
X139831497Y-91177799D01*
X139825199Y-91195401D01*
X139817206Y-91212301D01*
X139807595Y-91228336D01*
X139796458Y-91243352D01*
X139783904Y-91257204D01*
X139770052Y-91269758D01*
X139755036Y-91280895D01*
X139739001Y-91290506D01*
X139722101Y-91298499D01*
X139704499Y-91304797D01*
X139686365Y-91309340D01*
X139667872Y-91312083D01*
X139649200Y-91313000D01*
X138125200Y-91313000D01*
X138106528Y-91312083D01*
X138088035Y-91309340D01*
X138069901Y-91304797D01*
X138052299Y-91298499D01*
X138035399Y-91290506D01*
X138019364Y-91280895D01*
X138004348Y-91269758D01*
X137990496Y-91257204D01*
X137977942Y-91243352D01*
X137966805Y-91228336D01*
X137957194Y-91212301D01*
X137949201Y-91195401D01*
X137942903Y-91177799D01*
X137938360Y-91159665D01*
X137935617Y-91141172D01*
X137934700Y-91122500D01*
X137934700Y-89471500D01*
X137935617Y-89452828D01*
X137938360Y-89434335D01*
X137942903Y-89416201D01*
X137949201Y-89398599D01*
X137957194Y-89381699D01*
X137966805Y-89365664D01*
X137977942Y-89350648D01*
X137990496Y-89336796D01*
X138004348Y-89324242D01*
X138019364Y-89313105D01*
X138035399Y-89303494D01*
X138052299Y-89295501D01*
X138069901Y-89289203D01*
X138088035Y-89284660D01*
X138106528Y-89281917D01*
X138125200Y-89281000D01*
X139649200Y-89281000D01*
X139667872Y-89281917D01*
X139667872Y-89281917D01*
G37*
D11*
X138887200Y-90297000D03*
D10*
G36*
X156330272Y-107061917D02*
G01*
X156348765Y-107064660D01*
X156366899Y-107069203D01*
X156384501Y-107075501D01*
X156401401Y-107083494D01*
X156417436Y-107093105D01*
X156432452Y-107104242D01*
X156446304Y-107116796D01*
X156458858Y-107130648D01*
X156469995Y-107145664D01*
X156479606Y-107161699D01*
X156487599Y-107178599D01*
X156493897Y-107196201D01*
X156498440Y-107214335D01*
X156501183Y-107232828D01*
X156502100Y-107251500D01*
X156502100Y-108902500D01*
X156501183Y-108921172D01*
X156498440Y-108939665D01*
X156493897Y-108957799D01*
X156487599Y-108975401D01*
X156479606Y-108992301D01*
X156469995Y-109008336D01*
X156458858Y-109023352D01*
X156446304Y-109037204D01*
X156432452Y-109049758D01*
X156417436Y-109060895D01*
X156401401Y-109070506D01*
X156384501Y-109078499D01*
X156366899Y-109084797D01*
X156348765Y-109089340D01*
X156330272Y-109092083D01*
X156311600Y-109093000D01*
X154787600Y-109093000D01*
X154768928Y-109092083D01*
X154750435Y-109089340D01*
X154732301Y-109084797D01*
X154714699Y-109078499D01*
X154697799Y-109070506D01*
X154681764Y-109060895D01*
X154666748Y-109049758D01*
X154652896Y-109037204D01*
X154640342Y-109023352D01*
X154629205Y-109008336D01*
X154619594Y-108992301D01*
X154611601Y-108975401D01*
X154605303Y-108957799D01*
X154600760Y-108939665D01*
X154598017Y-108921172D01*
X154597100Y-108902500D01*
X154597100Y-107251500D01*
X154598017Y-107232828D01*
X154600760Y-107214335D01*
X154605303Y-107196201D01*
X154611601Y-107178599D01*
X154619594Y-107161699D01*
X154629205Y-107145664D01*
X154640342Y-107130648D01*
X154652896Y-107116796D01*
X154666748Y-107104242D01*
X154681764Y-107093105D01*
X154697799Y-107083494D01*
X154714699Y-107075501D01*
X154732301Y-107069203D01*
X154750435Y-107064660D01*
X154768928Y-107061917D01*
X154787600Y-107061000D01*
X156311600Y-107061000D01*
X156330272Y-107061917D01*
X156330272Y-107061917D01*
G37*
D11*
X155549600Y-108077000D03*
D10*
G36*
X139667872Y-91821917D02*
G01*
X139686365Y-91824660D01*
X139704499Y-91829203D01*
X139722101Y-91835501D01*
X139739001Y-91843494D01*
X139755036Y-91853105D01*
X139770052Y-91864242D01*
X139783904Y-91876796D01*
X139796458Y-91890648D01*
X139807595Y-91905664D01*
X139817206Y-91921699D01*
X139825199Y-91938599D01*
X139831497Y-91956201D01*
X139836040Y-91974335D01*
X139838783Y-91992828D01*
X139839700Y-92011500D01*
X139839700Y-93662500D01*
X139838783Y-93681172D01*
X139836040Y-93699665D01*
X139831497Y-93717799D01*
X139825199Y-93735401D01*
X139817206Y-93752301D01*
X139807595Y-93768336D01*
X139796458Y-93783352D01*
X139783904Y-93797204D01*
X139770052Y-93809758D01*
X139755036Y-93820895D01*
X139739001Y-93830506D01*
X139722101Y-93838499D01*
X139704499Y-93844797D01*
X139686365Y-93849340D01*
X139667872Y-93852083D01*
X139649200Y-93853000D01*
X138125200Y-93853000D01*
X138106528Y-93852083D01*
X138088035Y-93849340D01*
X138069901Y-93844797D01*
X138052299Y-93838499D01*
X138035399Y-93830506D01*
X138019364Y-93820895D01*
X138004348Y-93809758D01*
X137990496Y-93797204D01*
X137977942Y-93783352D01*
X137966805Y-93768336D01*
X137957194Y-93752301D01*
X137949201Y-93735401D01*
X137942903Y-93717799D01*
X137938360Y-93699665D01*
X137935617Y-93681172D01*
X137934700Y-93662500D01*
X137934700Y-92011500D01*
X137935617Y-91992828D01*
X137938360Y-91974335D01*
X137942903Y-91956201D01*
X137949201Y-91938599D01*
X137957194Y-91921699D01*
X137966805Y-91905664D01*
X137977942Y-91890648D01*
X137990496Y-91876796D01*
X138004348Y-91864242D01*
X138019364Y-91853105D01*
X138035399Y-91843494D01*
X138052299Y-91835501D01*
X138069901Y-91829203D01*
X138088035Y-91824660D01*
X138106528Y-91821917D01*
X138125200Y-91821000D01*
X139649200Y-91821000D01*
X139667872Y-91821917D01*
X139667872Y-91821917D01*
G37*
D11*
X138887200Y-92837000D03*
D10*
G36*
X156330272Y-104521917D02*
G01*
X156348765Y-104524660D01*
X156366899Y-104529203D01*
X156384501Y-104535501D01*
X156401401Y-104543494D01*
X156417436Y-104553105D01*
X156432452Y-104564242D01*
X156446304Y-104576796D01*
X156458858Y-104590648D01*
X156469995Y-104605664D01*
X156479606Y-104621699D01*
X156487599Y-104638599D01*
X156493897Y-104656201D01*
X156498440Y-104674335D01*
X156501183Y-104692828D01*
X156502100Y-104711500D01*
X156502100Y-106362500D01*
X156501183Y-106381172D01*
X156498440Y-106399665D01*
X156493897Y-106417799D01*
X156487599Y-106435401D01*
X156479606Y-106452301D01*
X156469995Y-106468336D01*
X156458858Y-106483352D01*
X156446304Y-106497204D01*
X156432452Y-106509758D01*
X156417436Y-106520895D01*
X156401401Y-106530506D01*
X156384501Y-106538499D01*
X156366899Y-106544797D01*
X156348765Y-106549340D01*
X156330272Y-106552083D01*
X156311600Y-106553000D01*
X154787600Y-106553000D01*
X154768928Y-106552083D01*
X154750435Y-106549340D01*
X154732301Y-106544797D01*
X154714699Y-106538499D01*
X154697799Y-106530506D01*
X154681764Y-106520895D01*
X154666748Y-106509758D01*
X154652896Y-106497204D01*
X154640342Y-106483352D01*
X154629205Y-106468336D01*
X154619594Y-106452301D01*
X154611601Y-106435401D01*
X154605303Y-106417799D01*
X154600760Y-106399665D01*
X154598017Y-106381172D01*
X154597100Y-106362500D01*
X154597100Y-104711500D01*
X154598017Y-104692828D01*
X154600760Y-104674335D01*
X154605303Y-104656201D01*
X154611601Y-104638599D01*
X154619594Y-104621699D01*
X154629205Y-104605664D01*
X154640342Y-104590648D01*
X154652896Y-104576796D01*
X154666748Y-104564242D01*
X154681764Y-104553105D01*
X154697799Y-104543494D01*
X154714699Y-104535501D01*
X154732301Y-104529203D01*
X154750435Y-104524660D01*
X154768928Y-104521917D01*
X154787600Y-104521000D01*
X156311600Y-104521000D01*
X156330272Y-104521917D01*
X156330272Y-104521917D01*
G37*
D11*
X155549600Y-105537000D03*
D10*
G36*
X139667872Y-94361917D02*
G01*
X139686365Y-94364660D01*
X139704499Y-94369203D01*
X139722101Y-94375501D01*
X139739001Y-94383494D01*
X139755036Y-94393105D01*
X139770052Y-94404242D01*
X139783904Y-94416796D01*
X139796458Y-94430648D01*
X139807595Y-94445664D01*
X139817206Y-94461699D01*
X139825199Y-94478599D01*
X139831497Y-94496201D01*
X139836040Y-94514335D01*
X139838783Y-94532828D01*
X139839700Y-94551500D01*
X139839700Y-96202500D01*
X139838783Y-96221172D01*
X139836040Y-96239665D01*
X139831497Y-96257799D01*
X139825199Y-96275401D01*
X139817206Y-96292301D01*
X139807595Y-96308336D01*
X139796458Y-96323352D01*
X139783904Y-96337204D01*
X139770052Y-96349758D01*
X139755036Y-96360895D01*
X139739001Y-96370506D01*
X139722101Y-96378499D01*
X139704499Y-96384797D01*
X139686365Y-96389340D01*
X139667872Y-96392083D01*
X139649200Y-96393000D01*
X138125200Y-96393000D01*
X138106528Y-96392083D01*
X138088035Y-96389340D01*
X138069901Y-96384797D01*
X138052299Y-96378499D01*
X138035399Y-96370506D01*
X138019364Y-96360895D01*
X138004348Y-96349758D01*
X137990496Y-96337204D01*
X137977942Y-96323352D01*
X137966805Y-96308336D01*
X137957194Y-96292301D01*
X137949201Y-96275401D01*
X137942903Y-96257799D01*
X137938360Y-96239665D01*
X137935617Y-96221172D01*
X137934700Y-96202500D01*
X137934700Y-94551500D01*
X137935617Y-94532828D01*
X137938360Y-94514335D01*
X137942903Y-94496201D01*
X137949201Y-94478599D01*
X137957194Y-94461699D01*
X137966805Y-94445664D01*
X137977942Y-94430648D01*
X137990496Y-94416796D01*
X138004348Y-94404242D01*
X138019364Y-94393105D01*
X138035399Y-94383494D01*
X138052299Y-94375501D01*
X138069901Y-94369203D01*
X138088035Y-94364660D01*
X138106528Y-94361917D01*
X138125200Y-94361000D01*
X139649200Y-94361000D01*
X139667872Y-94361917D01*
X139667872Y-94361917D01*
G37*
D11*
X138887200Y-95377000D03*
D10*
G36*
X156330272Y-101981917D02*
G01*
X156348765Y-101984660D01*
X156366899Y-101989203D01*
X156384501Y-101995501D01*
X156401401Y-102003494D01*
X156417436Y-102013105D01*
X156432452Y-102024242D01*
X156446304Y-102036796D01*
X156458858Y-102050648D01*
X156469995Y-102065664D01*
X156479606Y-102081699D01*
X156487599Y-102098599D01*
X156493897Y-102116201D01*
X156498440Y-102134335D01*
X156501183Y-102152828D01*
X156502100Y-102171500D01*
X156502100Y-103822500D01*
X156501183Y-103841172D01*
X156498440Y-103859665D01*
X156493897Y-103877799D01*
X156487599Y-103895401D01*
X156479606Y-103912301D01*
X156469995Y-103928336D01*
X156458858Y-103943352D01*
X156446304Y-103957204D01*
X156432452Y-103969758D01*
X156417436Y-103980895D01*
X156401401Y-103990506D01*
X156384501Y-103998499D01*
X156366899Y-104004797D01*
X156348765Y-104009340D01*
X156330272Y-104012083D01*
X156311600Y-104013000D01*
X154787600Y-104013000D01*
X154768928Y-104012083D01*
X154750435Y-104009340D01*
X154732301Y-104004797D01*
X154714699Y-103998499D01*
X154697799Y-103990506D01*
X154681764Y-103980895D01*
X154666748Y-103969758D01*
X154652896Y-103957204D01*
X154640342Y-103943352D01*
X154629205Y-103928336D01*
X154619594Y-103912301D01*
X154611601Y-103895401D01*
X154605303Y-103877799D01*
X154600760Y-103859665D01*
X154598017Y-103841172D01*
X154597100Y-103822500D01*
X154597100Y-102171500D01*
X154598017Y-102152828D01*
X154600760Y-102134335D01*
X154605303Y-102116201D01*
X154611601Y-102098599D01*
X154619594Y-102081699D01*
X154629205Y-102065664D01*
X154640342Y-102050648D01*
X154652896Y-102036796D01*
X154666748Y-102024242D01*
X154681764Y-102013105D01*
X154697799Y-102003494D01*
X154714699Y-101995501D01*
X154732301Y-101989203D01*
X154750435Y-101984660D01*
X154768928Y-101981917D01*
X154787600Y-101981000D01*
X156311600Y-101981000D01*
X156330272Y-101981917D01*
X156330272Y-101981917D01*
G37*
D11*
X155549600Y-102997000D03*
D10*
G36*
X139667872Y-96901917D02*
G01*
X139686365Y-96904660D01*
X139704499Y-96909203D01*
X139722101Y-96915501D01*
X139739001Y-96923494D01*
X139755036Y-96933105D01*
X139770052Y-96944242D01*
X139783904Y-96956796D01*
X139796458Y-96970648D01*
X139807595Y-96985664D01*
X139817206Y-97001699D01*
X139825199Y-97018599D01*
X139831497Y-97036201D01*
X139836040Y-97054335D01*
X139838783Y-97072828D01*
X139839700Y-97091500D01*
X139839700Y-98742500D01*
X139838783Y-98761172D01*
X139836040Y-98779665D01*
X139831497Y-98797799D01*
X139825199Y-98815401D01*
X139817206Y-98832301D01*
X139807595Y-98848336D01*
X139796458Y-98863352D01*
X139783904Y-98877204D01*
X139770052Y-98889758D01*
X139755036Y-98900895D01*
X139739001Y-98910506D01*
X139722101Y-98918499D01*
X139704499Y-98924797D01*
X139686365Y-98929340D01*
X139667872Y-98932083D01*
X139649200Y-98933000D01*
X138125200Y-98933000D01*
X138106528Y-98932083D01*
X138088035Y-98929340D01*
X138069901Y-98924797D01*
X138052299Y-98918499D01*
X138035399Y-98910506D01*
X138019364Y-98900895D01*
X138004348Y-98889758D01*
X137990496Y-98877204D01*
X137977942Y-98863352D01*
X137966805Y-98848336D01*
X137957194Y-98832301D01*
X137949201Y-98815401D01*
X137942903Y-98797799D01*
X137938360Y-98779665D01*
X137935617Y-98761172D01*
X137934700Y-98742500D01*
X137934700Y-97091500D01*
X137935617Y-97072828D01*
X137938360Y-97054335D01*
X137942903Y-97036201D01*
X137949201Y-97018599D01*
X137957194Y-97001699D01*
X137966805Y-96985664D01*
X137977942Y-96970648D01*
X137990496Y-96956796D01*
X138004348Y-96944242D01*
X138019364Y-96933105D01*
X138035399Y-96923494D01*
X138052299Y-96915501D01*
X138069901Y-96909203D01*
X138088035Y-96904660D01*
X138106528Y-96901917D01*
X138125200Y-96901000D01*
X139649200Y-96901000D01*
X139667872Y-96901917D01*
X139667872Y-96901917D01*
G37*
D11*
X138887200Y-97917000D03*
D10*
G36*
X156330272Y-99441917D02*
G01*
X156348765Y-99444660D01*
X156366899Y-99449203D01*
X156384501Y-99455501D01*
X156401401Y-99463494D01*
X156417436Y-99473105D01*
X156432452Y-99484242D01*
X156446304Y-99496796D01*
X156458858Y-99510648D01*
X156469995Y-99525664D01*
X156479606Y-99541699D01*
X156487599Y-99558599D01*
X156493897Y-99576201D01*
X156498440Y-99594335D01*
X156501183Y-99612828D01*
X156502100Y-99631500D01*
X156502100Y-101282500D01*
X156501183Y-101301172D01*
X156498440Y-101319665D01*
X156493897Y-101337799D01*
X156487599Y-101355401D01*
X156479606Y-101372301D01*
X156469995Y-101388336D01*
X156458858Y-101403352D01*
X156446304Y-101417204D01*
X156432452Y-101429758D01*
X156417436Y-101440895D01*
X156401401Y-101450506D01*
X156384501Y-101458499D01*
X156366899Y-101464797D01*
X156348765Y-101469340D01*
X156330272Y-101472083D01*
X156311600Y-101473000D01*
X154787600Y-101473000D01*
X154768928Y-101472083D01*
X154750435Y-101469340D01*
X154732301Y-101464797D01*
X154714699Y-101458499D01*
X154697799Y-101450506D01*
X154681764Y-101440895D01*
X154666748Y-101429758D01*
X154652896Y-101417204D01*
X154640342Y-101403352D01*
X154629205Y-101388336D01*
X154619594Y-101372301D01*
X154611601Y-101355401D01*
X154605303Y-101337799D01*
X154600760Y-101319665D01*
X154598017Y-101301172D01*
X154597100Y-101282500D01*
X154597100Y-99631500D01*
X154598017Y-99612828D01*
X154600760Y-99594335D01*
X154605303Y-99576201D01*
X154611601Y-99558599D01*
X154619594Y-99541699D01*
X154629205Y-99525664D01*
X154640342Y-99510648D01*
X154652896Y-99496796D01*
X154666748Y-99484242D01*
X154681764Y-99473105D01*
X154697799Y-99463494D01*
X154714699Y-99455501D01*
X154732301Y-99449203D01*
X154750435Y-99444660D01*
X154768928Y-99441917D01*
X154787600Y-99441000D01*
X156311600Y-99441000D01*
X156330272Y-99441917D01*
X156330272Y-99441917D01*
G37*
D11*
X155549600Y-100457000D03*
D10*
G36*
X139667872Y-99441917D02*
G01*
X139686365Y-99444660D01*
X139704499Y-99449203D01*
X139722101Y-99455501D01*
X139739001Y-99463494D01*
X139755036Y-99473105D01*
X139770052Y-99484242D01*
X139783904Y-99496796D01*
X139796458Y-99510648D01*
X139807595Y-99525664D01*
X139817206Y-99541699D01*
X139825199Y-99558599D01*
X139831497Y-99576201D01*
X139836040Y-99594335D01*
X139838783Y-99612828D01*
X139839700Y-99631500D01*
X139839700Y-101282500D01*
X139838783Y-101301172D01*
X139836040Y-101319665D01*
X139831497Y-101337799D01*
X139825199Y-101355401D01*
X139817206Y-101372301D01*
X139807595Y-101388336D01*
X139796458Y-101403352D01*
X139783904Y-101417204D01*
X139770052Y-101429758D01*
X139755036Y-101440895D01*
X139739001Y-101450506D01*
X139722101Y-101458499D01*
X139704499Y-101464797D01*
X139686365Y-101469340D01*
X139667872Y-101472083D01*
X139649200Y-101473000D01*
X138125200Y-101473000D01*
X138106528Y-101472083D01*
X138088035Y-101469340D01*
X138069901Y-101464797D01*
X138052299Y-101458499D01*
X138035399Y-101450506D01*
X138019364Y-101440895D01*
X138004348Y-101429758D01*
X137990496Y-101417204D01*
X137977942Y-101403352D01*
X137966805Y-101388336D01*
X137957194Y-101372301D01*
X137949201Y-101355401D01*
X137942903Y-101337799D01*
X137938360Y-101319665D01*
X137935617Y-101301172D01*
X137934700Y-101282500D01*
X137934700Y-99631500D01*
X137935617Y-99612828D01*
X137938360Y-99594335D01*
X137942903Y-99576201D01*
X137949201Y-99558599D01*
X137957194Y-99541699D01*
X137966805Y-99525664D01*
X137977942Y-99510648D01*
X137990496Y-99496796D01*
X138004348Y-99484242D01*
X138019364Y-99473105D01*
X138035399Y-99463494D01*
X138052299Y-99455501D01*
X138069901Y-99449203D01*
X138088035Y-99444660D01*
X138106528Y-99441917D01*
X138125200Y-99441000D01*
X139649200Y-99441000D01*
X139667872Y-99441917D01*
X139667872Y-99441917D01*
G37*
D11*
X138887200Y-100457000D03*
D10*
G36*
X156330272Y-96901917D02*
G01*
X156348765Y-96904660D01*
X156366899Y-96909203D01*
X156384501Y-96915501D01*
X156401401Y-96923494D01*
X156417436Y-96933105D01*
X156432452Y-96944242D01*
X156446304Y-96956796D01*
X156458858Y-96970648D01*
X156469995Y-96985664D01*
X156479606Y-97001699D01*
X156487599Y-97018599D01*
X156493897Y-97036201D01*
X156498440Y-97054335D01*
X156501183Y-97072828D01*
X156502100Y-97091500D01*
X156502100Y-98742500D01*
X156501183Y-98761172D01*
X156498440Y-98779665D01*
X156493897Y-98797799D01*
X156487599Y-98815401D01*
X156479606Y-98832301D01*
X156469995Y-98848336D01*
X156458858Y-98863352D01*
X156446304Y-98877204D01*
X156432452Y-98889758D01*
X156417436Y-98900895D01*
X156401401Y-98910506D01*
X156384501Y-98918499D01*
X156366899Y-98924797D01*
X156348765Y-98929340D01*
X156330272Y-98932083D01*
X156311600Y-98933000D01*
X154787600Y-98933000D01*
X154768928Y-98932083D01*
X154750435Y-98929340D01*
X154732301Y-98924797D01*
X154714699Y-98918499D01*
X154697799Y-98910506D01*
X154681764Y-98900895D01*
X154666748Y-98889758D01*
X154652896Y-98877204D01*
X154640342Y-98863352D01*
X154629205Y-98848336D01*
X154619594Y-98832301D01*
X154611601Y-98815401D01*
X154605303Y-98797799D01*
X154600760Y-98779665D01*
X154598017Y-98761172D01*
X154597100Y-98742500D01*
X154597100Y-97091500D01*
X154598017Y-97072828D01*
X154600760Y-97054335D01*
X154605303Y-97036201D01*
X154611601Y-97018599D01*
X154619594Y-97001699D01*
X154629205Y-96985664D01*
X154640342Y-96970648D01*
X154652896Y-96956796D01*
X154666748Y-96944242D01*
X154681764Y-96933105D01*
X154697799Y-96923494D01*
X154714699Y-96915501D01*
X154732301Y-96909203D01*
X154750435Y-96904660D01*
X154768928Y-96901917D01*
X154787600Y-96901000D01*
X156311600Y-96901000D01*
X156330272Y-96901917D01*
X156330272Y-96901917D01*
G37*
D11*
X155549600Y-97917000D03*
D10*
G36*
X139667872Y-101981917D02*
G01*
X139686365Y-101984660D01*
X139704499Y-101989203D01*
X139722101Y-101995501D01*
X139739001Y-102003494D01*
X139755036Y-102013105D01*
X139770052Y-102024242D01*
X139783904Y-102036796D01*
X139796458Y-102050648D01*
X139807595Y-102065664D01*
X139817206Y-102081699D01*
X139825199Y-102098599D01*
X139831497Y-102116201D01*
X139836040Y-102134335D01*
X139838783Y-102152828D01*
X139839700Y-102171500D01*
X139839700Y-103822500D01*
X139838783Y-103841172D01*
X139836040Y-103859665D01*
X139831497Y-103877799D01*
X139825199Y-103895401D01*
X139817206Y-103912301D01*
X139807595Y-103928336D01*
X139796458Y-103943352D01*
X139783904Y-103957204D01*
X139770052Y-103969758D01*
X139755036Y-103980895D01*
X139739001Y-103990506D01*
X139722101Y-103998499D01*
X139704499Y-104004797D01*
X139686365Y-104009340D01*
X139667872Y-104012083D01*
X139649200Y-104013000D01*
X138125200Y-104013000D01*
X138106528Y-104012083D01*
X138088035Y-104009340D01*
X138069901Y-104004797D01*
X138052299Y-103998499D01*
X138035399Y-103990506D01*
X138019364Y-103980895D01*
X138004348Y-103969758D01*
X137990496Y-103957204D01*
X137977942Y-103943352D01*
X137966805Y-103928336D01*
X137957194Y-103912301D01*
X137949201Y-103895401D01*
X137942903Y-103877799D01*
X137938360Y-103859665D01*
X137935617Y-103841172D01*
X137934700Y-103822500D01*
X137934700Y-102171500D01*
X137935617Y-102152828D01*
X137938360Y-102134335D01*
X137942903Y-102116201D01*
X137949201Y-102098599D01*
X137957194Y-102081699D01*
X137966805Y-102065664D01*
X137977942Y-102050648D01*
X137990496Y-102036796D01*
X138004348Y-102024242D01*
X138019364Y-102013105D01*
X138035399Y-102003494D01*
X138052299Y-101995501D01*
X138069901Y-101989203D01*
X138088035Y-101984660D01*
X138106528Y-101981917D01*
X138125200Y-101981000D01*
X139649200Y-101981000D01*
X139667872Y-101981917D01*
X139667872Y-101981917D01*
G37*
D11*
X138887200Y-102997000D03*
D10*
G36*
X156330272Y-94361917D02*
G01*
X156348765Y-94364660D01*
X156366899Y-94369203D01*
X156384501Y-94375501D01*
X156401401Y-94383494D01*
X156417436Y-94393105D01*
X156432452Y-94404242D01*
X156446304Y-94416796D01*
X156458858Y-94430648D01*
X156469995Y-94445664D01*
X156479606Y-94461699D01*
X156487599Y-94478599D01*
X156493897Y-94496201D01*
X156498440Y-94514335D01*
X156501183Y-94532828D01*
X156502100Y-94551500D01*
X156502100Y-96202500D01*
X156501183Y-96221172D01*
X156498440Y-96239665D01*
X156493897Y-96257799D01*
X156487599Y-96275401D01*
X156479606Y-96292301D01*
X156469995Y-96308336D01*
X156458858Y-96323352D01*
X156446304Y-96337204D01*
X156432452Y-96349758D01*
X156417436Y-96360895D01*
X156401401Y-96370506D01*
X156384501Y-96378499D01*
X156366899Y-96384797D01*
X156348765Y-96389340D01*
X156330272Y-96392083D01*
X156311600Y-96393000D01*
X154787600Y-96393000D01*
X154768928Y-96392083D01*
X154750435Y-96389340D01*
X154732301Y-96384797D01*
X154714699Y-96378499D01*
X154697799Y-96370506D01*
X154681764Y-96360895D01*
X154666748Y-96349758D01*
X154652896Y-96337204D01*
X154640342Y-96323352D01*
X154629205Y-96308336D01*
X154619594Y-96292301D01*
X154611601Y-96275401D01*
X154605303Y-96257799D01*
X154600760Y-96239665D01*
X154598017Y-96221172D01*
X154597100Y-96202500D01*
X154597100Y-94551500D01*
X154598017Y-94532828D01*
X154600760Y-94514335D01*
X154605303Y-94496201D01*
X154611601Y-94478599D01*
X154619594Y-94461699D01*
X154629205Y-94445664D01*
X154640342Y-94430648D01*
X154652896Y-94416796D01*
X154666748Y-94404242D01*
X154681764Y-94393105D01*
X154697799Y-94383494D01*
X154714699Y-94375501D01*
X154732301Y-94369203D01*
X154750435Y-94364660D01*
X154768928Y-94361917D01*
X154787600Y-94361000D01*
X156311600Y-94361000D01*
X156330272Y-94361917D01*
X156330272Y-94361917D01*
G37*
D11*
X155549600Y-95377000D03*
D10*
G36*
X139667872Y-104521917D02*
G01*
X139686365Y-104524660D01*
X139704499Y-104529203D01*
X139722101Y-104535501D01*
X139739001Y-104543494D01*
X139755036Y-104553105D01*
X139770052Y-104564242D01*
X139783904Y-104576796D01*
X139796458Y-104590648D01*
X139807595Y-104605664D01*
X139817206Y-104621699D01*
X139825199Y-104638599D01*
X139831497Y-104656201D01*
X139836040Y-104674335D01*
X139838783Y-104692828D01*
X139839700Y-104711500D01*
X139839700Y-106362500D01*
X139838783Y-106381172D01*
X139836040Y-106399665D01*
X139831497Y-106417799D01*
X139825199Y-106435401D01*
X139817206Y-106452301D01*
X139807595Y-106468336D01*
X139796458Y-106483352D01*
X139783904Y-106497204D01*
X139770052Y-106509758D01*
X139755036Y-106520895D01*
X139739001Y-106530506D01*
X139722101Y-106538499D01*
X139704499Y-106544797D01*
X139686365Y-106549340D01*
X139667872Y-106552083D01*
X139649200Y-106553000D01*
X138125200Y-106553000D01*
X138106528Y-106552083D01*
X138088035Y-106549340D01*
X138069901Y-106544797D01*
X138052299Y-106538499D01*
X138035399Y-106530506D01*
X138019364Y-106520895D01*
X138004348Y-106509758D01*
X137990496Y-106497204D01*
X137977942Y-106483352D01*
X137966805Y-106468336D01*
X137957194Y-106452301D01*
X137949201Y-106435401D01*
X137942903Y-106417799D01*
X137938360Y-106399665D01*
X137935617Y-106381172D01*
X137934700Y-106362500D01*
X137934700Y-104711500D01*
X137935617Y-104692828D01*
X137938360Y-104674335D01*
X137942903Y-104656201D01*
X137949201Y-104638599D01*
X137957194Y-104621699D01*
X137966805Y-104605664D01*
X137977942Y-104590648D01*
X137990496Y-104576796D01*
X138004348Y-104564242D01*
X138019364Y-104553105D01*
X138035399Y-104543494D01*
X138052299Y-104535501D01*
X138069901Y-104529203D01*
X138088035Y-104524660D01*
X138106528Y-104521917D01*
X138125200Y-104521000D01*
X139649200Y-104521000D01*
X139667872Y-104521917D01*
X139667872Y-104521917D01*
G37*
D11*
X138887200Y-105537000D03*
D10*
G36*
X156330272Y-91821917D02*
G01*
X156348765Y-91824660D01*
X156366899Y-91829203D01*
X156384501Y-91835501D01*
X156401401Y-91843494D01*
X156417436Y-91853105D01*
X156432452Y-91864242D01*
X156446304Y-91876796D01*
X156458858Y-91890648D01*
X156469995Y-91905664D01*
X156479606Y-91921699D01*
X156487599Y-91938599D01*
X156493897Y-91956201D01*
X156498440Y-91974335D01*
X156501183Y-91992828D01*
X156502100Y-92011500D01*
X156502100Y-93662500D01*
X156501183Y-93681172D01*
X156498440Y-93699665D01*
X156493897Y-93717799D01*
X156487599Y-93735401D01*
X156479606Y-93752301D01*
X156469995Y-93768336D01*
X156458858Y-93783352D01*
X156446304Y-93797204D01*
X156432452Y-93809758D01*
X156417436Y-93820895D01*
X156401401Y-93830506D01*
X156384501Y-93838499D01*
X156366899Y-93844797D01*
X156348765Y-93849340D01*
X156330272Y-93852083D01*
X156311600Y-93853000D01*
X154787600Y-93853000D01*
X154768928Y-93852083D01*
X154750435Y-93849340D01*
X154732301Y-93844797D01*
X154714699Y-93838499D01*
X154697799Y-93830506D01*
X154681764Y-93820895D01*
X154666748Y-93809758D01*
X154652896Y-93797204D01*
X154640342Y-93783352D01*
X154629205Y-93768336D01*
X154619594Y-93752301D01*
X154611601Y-93735401D01*
X154605303Y-93717799D01*
X154600760Y-93699665D01*
X154598017Y-93681172D01*
X154597100Y-93662500D01*
X154597100Y-92011500D01*
X154598017Y-91992828D01*
X154600760Y-91974335D01*
X154605303Y-91956201D01*
X154611601Y-91938599D01*
X154619594Y-91921699D01*
X154629205Y-91905664D01*
X154640342Y-91890648D01*
X154652896Y-91876796D01*
X154666748Y-91864242D01*
X154681764Y-91853105D01*
X154697799Y-91843494D01*
X154714699Y-91835501D01*
X154732301Y-91829203D01*
X154750435Y-91824660D01*
X154768928Y-91821917D01*
X154787600Y-91821000D01*
X156311600Y-91821000D01*
X156330272Y-91821917D01*
X156330272Y-91821917D01*
G37*
D11*
X155549600Y-92837000D03*
D10*
G36*
X139667872Y-107061917D02*
G01*
X139686365Y-107064660D01*
X139704499Y-107069203D01*
X139722101Y-107075501D01*
X139739001Y-107083494D01*
X139755036Y-107093105D01*
X139770052Y-107104242D01*
X139783904Y-107116796D01*
X139796458Y-107130648D01*
X139807595Y-107145664D01*
X139817206Y-107161699D01*
X139825199Y-107178599D01*
X139831497Y-107196201D01*
X139836040Y-107214335D01*
X139838783Y-107232828D01*
X139839700Y-107251500D01*
X139839700Y-108902500D01*
X139838783Y-108921172D01*
X139836040Y-108939665D01*
X139831497Y-108957799D01*
X139825199Y-108975401D01*
X139817206Y-108992301D01*
X139807595Y-109008336D01*
X139796458Y-109023352D01*
X139783904Y-109037204D01*
X139770052Y-109049758D01*
X139755036Y-109060895D01*
X139739001Y-109070506D01*
X139722101Y-109078499D01*
X139704499Y-109084797D01*
X139686365Y-109089340D01*
X139667872Y-109092083D01*
X139649200Y-109093000D01*
X138125200Y-109093000D01*
X138106528Y-109092083D01*
X138088035Y-109089340D01*
X138069901Y-109084797D01*
X138052299Y-109078499D01*
X138035399Y-109070506D01*
X138019364Y-109060895D01*
X138004348Y-109049758D01*
X137990496Y-109037204D01*
X137977942Y-109023352D01*
X137966805Y-109008336D01*
X137957194Y-108992301D01*
X137949201Y-108975401D01*
X137942903Y-108957799D01*
X137938360Y-108939665D01*
X137935617Y-108921172D01*
X137934700Y-108902500D01*
X137934700Y-107251500D01*
X137935617Y-107232828D01*
X137938360Y-107214335D01*
X137942903Y-107196201D01*
X137949201Y-107178599D01*
X137957194Y-107161699D01*
X137966805Y-107145664D01*
X137977942Y-107130648D01*
X137990496Y-107116796D01*
X138004348Y-107104242D01*
X138019364Y-107093105D01*
X138035399Y-107083494D01*
X138052299Y-107075501D01*
X138069901Y-107069203D01*
X138088035Y-107064660D01*
X138106528Y-107061917D01*
X138125200Y-107061000D01*
X139649200Y-107061000D01*
X139667872Y-107061917D01*
X139667872Y-107061917D01*
G37*
D11*
X138887200Y-108077000D03*
D10*
G36*
X156330272Y-89281917D02*
G01*
X156348765Y-89284660D01*
X156366899Y-89289203D01*
X156384501Y-89295501D01*
X156401401Y-89303494D01*
X156417436Y-89313105D01*
X156432452Y-89324242D01*
X156446304Y-89336796D01*
X156458858Y-89350648D01*
X156469995Y-89365664D01*
X156479606Y-89381699D01*
X156487599Y-89398599D01*
X156493897Y-89416201D01*
X156498440Y-89434335D01*
X156501183Y-89452828D01*
X156502100Y-89471500D01*
X156502100Y-91122500D01*
X156501183Y-91141172D01*
X156498440Y-91159665D01*
X156493897Y-91177799D01*
X156487599Y-91195401D01*
X156479606Y-91212301D01*
X156469995Y-91228336D01*
X156458858Y-91243352D01*
X156446304Y-91257204D01*
X156432452Y-91269758D01*
X156417436Y-91280895D01*
X156401401Y-91290506D01*
X156384501Y-91298499D01*
X156366899Y-91304797D01*
X156348765Y-91309340D01*
X156330272Y-91312083D01*
X156311600Y-91313000D01*
X154787600Y-91313000D01*
X154768928Y-91312083D01*
X154750435Y-91309340D01*
X154732301Y-91304797D01*
X154714699Y-91298499D01*
X154697799Y-91290506D01*
X154681764Y-91280895D01*
X154666748Y-91269758D01*
X154652896Y-91257204D01*
X154640342Y-91243352D01*
X154629205Y-91228336D01*
X154619594Y-91212301D01*
X154611601Y-91195401D01*
X154605303Y-91177799D01*
X154600760Y-91159665D01*
X154598017Y-91141172D01*
X154597100Y-91122500D01*
X154597100Y-89471500D01*
X154598017Y-89452828D01*
X154600760Y-89434335D01*
X154605303Y-89416201D01*
X154611601Y-89398599D01*
X154619594Y-89381699D01*
X154629205Y-89365664D01*
X154640342Y-89350648D01*
X154652896Y-89336796D01*
X154666748Y-89324242D01*
X154681764Y-89313105D01*
X154697799Y-89303494D01*
X154714699Y-89295501D01*
X154732301Y-89289203D01*
X154750435Y-89284660D01*
X154768928Y-89281917D01*
X154787600Y-89281000D01*
X156311600Y-89281000D01*
X156330272Y-89281917D01*
X156330272Y-89281917D01*
G37*
D11*
X155549600Y-90297000D03*
D10*
G36*
X139667872Y-109601917D02*
G01*
X139686365Y-109604660D01*
X139704499Y-109609203D01*
X139722101Y-109615501D01*
X139739001Y-109623494D01*
X139755036Y-109633105D01*
X139770052Y-109644242D01*
X139783904Y-109656796D01*
X139796458Y-109670648D01*
X139807595Y-109685664D01*
X139817206Y-109701699D01*
X139825199Y-109718599D01*
X139831497Y-109736201D01*
X139836040Y-109754335D01*
X139838783Y-109772828D01*
X139839700Y-109791500D01*
X139839700Y-111442500D01*
X139838783Y-111461172D01*
X139836040Y-111479665D01*
X139831497Y-111497799D01*
X139825199Y-111515401D01*
X139817206Y-111532301D01*
X139807595Y-111548336D01*
X139796458Y-111563352D01*
X139783904Y-111577204D01*
X139770052Y-111589758D01*
X139755036Y-111600895D01*
X139739001Y-111610506D01*
X139722101Y-111618499D01*
X139704499Y-111624797D01*
X139686365Y-111629340D01*
X139667872Y-111632083D01*
X139649200Y-111633000D01*
X138125200Y-111633000D01*
X138106528Y-111632083D01*
X138088035Y-111629340D01*
X138069901Y-111624797D01*
X138052299Y-111618499D01*
X138035399Y-111610506D01*
X138019364Y-111600895D01*
X138004348Y-111589758D01*
X137990496Y-111577204D01*
X137977942Y-111563352D01*
X137966805Y-111548336D01*
X137957194Y-111532301D01*
X137949201Y-111515401D01*
X137942903Y-111497799D01*
X137938360Y-111479665D01*
X137935617Y-111461172D01*
X137934700Y-111442500D01*
X137934700Y-109791500D01*
X137935617Y-109772828D01*
X137938360Y-109754335D01*
X137942903Y-109736201D01*
X137949201Y-109718599D01*
X137957194Y-109701699D01*
X137966805Y-109685664D01*
X137977942Y-109670648D01*
X137990496Y-109656796D01*
X138004348Y-109644242D01*
X138019364Y-109633105D01*
X138035399Y-109623494D01*
X138052299Y-109615501D01*
X138069901Y-109609203D01*
X138088035Y-109604660D01*
X138106528Y-109601917D01*
X138125200Y-109601000D01*
X139649200Y-109601000D01*
X139667872Y-109601917D01*
X139667872Y-109601917D01*
G37*
D11*
X138887200Y-110617000D03*
D10*
G36*
X156330272Y-86741917D02*
G01*
X156348765Y-86744660D01*
X156366899Y-86749203D01*
X156384501Y-86755501D01*
X156401401Y-86763494D01*
X156417436Y-86773105D01*
X156432452Y-86784242D01*
X156446304Y-86796796D01*
X156458858Y-86810648D01*
X156469995Y-86825664D01*
X156479606Y-86841699D01*
X156487599Y-86858599D01*
X156493897Y-86876201D01*
X156498440Y-86894335D01*
X156501183Y-86912828D01*
X156502100Y-86931500D01*
X156502100Y-88582500D01*
X156501183Y-88601172D01*
X156498440Y-88619665D01*
X156493897Y-88637799D01*
X156487599Y-88655401D01*
X156479606Y-88672301D01*
X156469995Y-88688336D01*
X156458858Y-88703352D01*
X156446304Y-88717204D01*
X156432452Y-88729758D01*
X156417436Y-88740895D01*
X156401401Y-88750506D01*
X156384501Y-88758499D01*
X156366899Y-88764797D01*
X156348765Y-88769340D01*
X156330272Y-88772083D01*
X156311600Y-88773000D01*
X154787600Y-88773000D01*
X154768928Y-88772083D01*
X154750435Y-88769340D01*
X154732301Y-88764797D01*
X154714699Y-88758499D01*
X154697799Y-88750506D01*
X154681764Y-88740895D01*
X154666748Y-88729758D01*
X154652896Y-88717204D01*
X154640342Y-88703352D01*
X154629205Y-88688336D01*
X154619594Y-88672301D01*
X154611601Y-88655401D01*
X154605303Y-88637799D01*
X154600760Y-88619665D01*
X154598017Y-88601172D01*
X154597100Y-88582500D01*
X154597100Y-86931500D01*
X154598017Y-86912828D01*
X154600760Y-86894335D01*
X154605303Y-86876201D01*
X154611601Y-86858599D01*
X154619594Y-86841699D01*
X154629205Y-86825664D01*
X154640342Y-86810648D01*
X154652896Y-86796796D01*
X154666748Y-86784242D01*
X154681764Y-86773105D01*
X154697799Y-86763494D01*
X154714699Y-86755501D01*
X154732301Y-86749203D01*
X154750435Y-86744660D01*
X154768928Y-86741917D01*
X154787600Y-86741000D01*
X156311600Y-86741000D01*
X156330272Y-86741917D01*
X156330272Y-86741917D01*
G37*
D11*
X155549600Y-87757000D03*
D10*
G36*
X139667872Y-112141917D02*
G01*
X139686365Y-112144660D01*
X139704499Y-112149203D01*
X139722101Y-112155501D01*
X139739001Y-112163494D01*
X139755036Y-112173105D01*
X139770052Y-112184242D01*
X139783904Y-112196796D01*
X139796458Y-112210648D01*
X139807595Y-112225664D01*
X139817206Y-112241699D01*
X139825199Y-112258599D01*
X139831497Y-112276201D01*
X139836040Y-112294335D01*
X139838783Y-112312828D01*
X139839700Y-112331500D01*
X139839700Y-113982500D01*
X139838783Y-114001172D01*
X139836040Y-114019665D01*
X139831497Y-114037799D01*
X139825199Y-114055401D01*
X139817206Y-114072301D01*
X139807595Y-114088336D01*
X139796458Y-114103352D01*
X139783904Y-114117204D01*
X139770052Y-114129758D01*
X139755036Y-114140895D01*
X139739001Y-114150506D01*
X139722101Y-114158499D01*
X139704499Y-114164797D01*
X139686365Y-114169340D01*
X139667872Y-114172083D01*
X139649200Y-114173000D01*
X138125200Y-114173000D01*
X138106528Y-114172083D01*
X138088035Y-114169340D01*
X138069901Y-114164797D01*
X138052299Y-114158499D01*
X138035399Y-114150506D01*
X138019364Y-114140895D01*
X138004348Y-114129758D01*
X137990496Y-114117204D01*
X137977942Y-114103352D01*
X137966805Y-114088336D01*
X137957194Y-114072301D01*
X137949201Y-114055401D01*
X137942903Y-114037799D01*
X137938360Y-114019665D01*
X137935617Y-114001172D01*
X137934700Y-113982500D01*
X137934700Y-112331500D01*
X137935617Y-112312828D01*
X137938360Y-112294335D01*
X137942903Y-112276201D01*
X137949201Y-112258599D01*
X137957194Y-112241699D01*
X137966805Y-112225664D01*
X137977942Y-112210648D01*
X137990496Y-112196796D01*
X138004348Y-112184242D01*
X138019364Y-112173105D01*
X138035399Y-112163494D01*
X138052299Y-112155501D01*
X138069901Y-112149203D01*
X138088035Y-112144660D01*
X138106528Y-112141917D01*
X138125200Y-112141000D01*
X139649200Y-112141000D01*
X139667872Y-112141917D01*
X139667872Y-112141917D01*
G37*
D11*
X138887200Y-113157000D03*
D10*
G36*
X156330272Y-84201917D02*
G01*
X156348765Y-84204660D01*
X156366899Y-84209203D01*
X156384501Y-84215501D01*
X156401401Y-84223494D01*
X156417436Y-84233105D01*
X156432452Y-84244242D01*
X156446304Y-84256796D01*
X156458858Y-84270648D01*
X156469995Y-84285664D01*
X156479606Y-84301699D01*
X156487599Y-84318599D01*
X156493897Y-84336201D01*
X156498440Y-84354335D01*
X156501183Y-84372828D01*
X156502100Y-84391500D01*
X156502100Y-86042500D01*
X156501183Y-86061172D01*
X156498440Y-86079665D01*
X156493897Y-86097799D01*
X156487599Y-86115401D01*
X156479606Y-86132301D01*
X156469995Y-86148336D01*
X156458858Y-86163352D01*
X156446304Y-86177204D01*
X156432452Y-86189758D01*
X156417436Y-86200895D01*
X156401401Y-86210506D01*
X156384501Y-86218499D01*
X156366899Y-86224797D01*
X156348765Y-86229340D01*
X156330272Y-86232083D01*
X156311600Y-86233000D01*
X154787600Y-86233000D01*
X154768928Y-86232083D01*
X154750435Y-86229340D01*
X154732301Y-86224797D01*
X154714699Y-86218499D01*
X154697799Y-86210506D01*
X154681764Y-86200895D01*
X154666748Y-86189758D01*
X154652896Y-86177204D01*
X154640342Y-86163352D01*
X154629205Y-86148336D01*
X154619594Y-86132301D01*
X154611601Y-86115401D01*
X154605303Y-86097799D01*
X154600760Y-86079665D01*
X154598017Y-86061172D01*
X154597100Y-86042500D01*
X154597100Y-84391500D01*
X154598017Y-84372828D01*
X154600760Y-84354335D01*
X154605303Y-84336201D01*
X154611601Y-84318599D01*
X154619594Y-84301699D01*
X154629205Y-84285664D01*
X154640342Y-84270648D01*
X154652896Y-84256796D01*
X154666748Y-84244242D01*
X154681764Y-84233105D01*
X154697799Y-84223494D01*
X154714699Y-84215501D01*
X154732301Y-84209203D01*
X154750435Y-84204660D01*
X154768928Y-84201917D01*
X154787600Y-84201000D01*
X156311600Y-84201000D01*
X156330272Y-84201917D01*
X156330272Y-84201917D01*
G37*
D11*
X155549600Y-85217000D03*
D10*
G36*
X139667872Y-114681917D02*
G01*
X139686365Y-114684660D01*
X139704499Y-114689203D01*
X139722101Y-114695501D01*
X139739001Y-114703494D01*
X139755036Y-114713105D01*
X139770052Y-114724242D01*
X139783904Y-114736796D01*
X139796458Y-114750648D01*
X139807595Y-114765664D01*
X139817206Y-114781699D01*
X139825199Y-114798599D01*
X139831497Y-114816201D01*
X139836040Y-114834335D01*
X139838783Y-114852828D01*
X139839700Y-114871500D01*
X139839700Y-116522500D01*
X139838783Y-116541172D01*
X139836040Y-116559665D01*
X139831497Y-116577799D01*
X139825199Y-116595401D01*
X139817206Y-116612301D01*
X139807595Y-116628336D01*
X139796458Y-116643352D01*
X139783904Y-116657204D01*
X139770052Y-116669758D01*
X139755036Y-116680895D01*
X139739001Y-116690506D01*
X139722101Y-116698499D01*
X139704499Y-116704797D01*
X139686365Y-116709340D01*
X139667872Y-116712083D01*
X139649200Y-116713000D01*
X138125200Y-116713000D01*
X138106528Y-116712083D01*
X138088035Y-116709340D01*
X138069901Y-116704797D01*
X138052299Y-116698499D01*
X138035399Y-116690506D01*
X138019364Y-116680895D01*
X138004348Y-116669758D01*
X137990496Y-116657204D01*
X137977942Y-116643352D01*
X137966805Y-116628336D01*
X137957194Y-116612301D01*
X137949201Y-116595401D01*
X137942903Y-116577799D01*
X137938360Y-116559665D01*
X137935617Y-116541172D01*
X137934700Y-116522500D01*
X137934700Y-114871500D01*
X137935617Y-114852828D01*
X137938360Y-114834335D01*
X137942903Y-114816201D01*
X137949201Y-114798599D01*
X137957194Y-114781699D01*
X137966805Y-114765664D01*
X137977942Y-114750648D01*
X137990496Y-114736796D01*
X138004348Y-114724242D01*
X138019364Y-114713105D01*
X138035399Y-114703494D01*
X138052299Y-114695501D01*
X138069901Y-114689203D01*
X138088035Y-114684660D01*
X138106528Y-114681917D01*
X138125200Y-114681000D01*
X139649200Y-114681000D01*
X139667872Y-114681917D01*
X139667872Y-114681917D01*
G37*
D11*
X138887200Y-115697000D03*
D10*
G36*
X156330272Y-81661917D02*
G01*
X156348765Y-81664660D01*
X156366899Y-81669203D01*
X156384501Y-81675501D01*
X156401401Y-81683494D01*
X156417436Y-81693105D01*
X156432452Y-81704242D01*
X156446304Y-81716796D01*
X156458858Y-81730648D01*
X156469995Y-81745664D01*
X156479606Y-81761699D01*
X156487599Y-81778599D01*
X156493897Y-81796201D01*
X156498440Y-81814335D01*
X156501183Y-81832828D01*
X156502100Y-81851500D01*
X156502100Y-83502500D01*
X156501183Y-83521172D01*
X156498440Y-83539665D01*
X156493897Y-83557799D01*
X156487599Y-83575401D01*
X156479606Y-83592301D01*
X156469995Y-83608336D01*
X156458858Y-83623352D01*
X156446304Y-83637204D01*
X156432452Y-83649758D01*
X156417436Y-83660895D01*
X156401401Y-83670506D01*
X156384501Y-83678499D01*
X156366899Y-83684797D01*
X156348765Y-83689340D01*
X156330272Y-83692083D01*
X156311600Y-83693000D01*
X154787600Y-83693000D01*
X154768928Y-83692083D01*
X154750435Y-83689340D01*
X154732301Y-83684797D01*
X154714699Y-83678499D01*
X154697799Y-83670506D01*
X154681764Y-83660895D01*
X154666748Y-83649758D01*
X154652896Y-83637204D01*
X154640342Y-83623352D01*
X154629205Y-83608336D01*
X154619594Y-83592301D01*
X154611601Y-83575401D01*
X154605303Y-83557799D01*
X154600760Y-83539665D01*
X154598017Y-83521172D01*
X154597100Y-83502500D01*
X154597100Y-81851500D01*
X154598017Y-81832828D01*
X154600760Y-81814335D01*
X154605303Y-81796201D01*
X154611601Y-81778599D01*
X154619594Y-81761699D01*
X154629205Y-81745664D01*
X154640342Y-81730648D01*
X154652896Y-81716796D01*
X154666748Y-81704242D01*
X154681764Y-81693105D01*
X154697799Y-81683494D01*
X154714699Y-81675501D01*
X154732301Y-81669203D01*
X154750435Y-81664660D01*
X154768928Y-81661917D01*
X154787600Y-81661000D01*
X156311600Y-81661000D01*
X156330272Y-81661917D01*
X156330272Y-81661917D01*
G37*
D11*
X155549600Y-82677000D03*
M02*
