M48
; DRILL file {KiCad 5.1.4-e60b266~84~ubuntu19.04.1} date Mon 12 Aug 2019 07:04:00 PM EDT
; FORMAT={-:-/ absolute / inch / decimal}
; #@! TF.CreationDate,2019-08-12T19:04:00-04:00
; #@! TF.GenerationSoftware,Kicad,Pcbnew,5.1.4-e60b266~84~ubuntu19.04.1
; #@! TF.FileFunction,Plated,1,2,PTH
FMAT,2
INCH
T1C0.0600
%
G90
G05
T1
X5.461Y-3.255
X5.461Y-3.355
X5.461Y-3.455
X5.461Y-3.555
X5.461Y-3.655
X5.461Y-3.755
X5.461Y-3.855
X5.461Y-3.955
X5.461Y-4.055
X5.461Y-4.155
X5.461Y-4.255
X5.461Y-4.355
X5.461Y-4.455
X5.461Y-4.555
X6.131Y-3.255
X6.131Y-3.355
X6.131Y-3.455
X6.131Y-3.555
X6.131Y-3.655
X6.131Y-3.755
X6.131Y-3.855
X6.131Y-3.955
X6.131Y-4.055
X6.131Y-4.155
X6.131Y-4.255
X6.131Y-4.355
X6.131Y-4.455
X6.131Y-4.555
T0
M30
