G04 #@! TF.GenerationSoftware,KiCad,Pcbnew,5.1.4-e60b266~84~ubuntu19.04.1*
G04 #@! TF.CreationDate,2019-10-28T00:30:18-04:00*
G04 #@! TF.ProjectId,pcb2molex8878_bump,70636232-6d6f-46c6-9578-383837385f62,rev?*
G04 #@! TF.SameCoordinates,Original*
G04 #@! TF.FileFunction,Drawing*
%FSLAX46Y46*%
G04 Gerber Fmt 4.6, Leading zero omitted, Abs format (unit mm)*
G04 Created by KiCad (PCBNEW 5.1.4-e60b266~84~ubuntu19.04.1) date 2019-10-28 00:30:18*
%MOMM*%
%LPD*%
G04 APERTURE LIST*
%ADD10C,0.010000*%
G04 APERTURE END LIST*
D10*
X142082000Y-80087000D02*
G75*
G02X141218400Y-79223400I0J863600D01*
G01*
X141468400Y-79787000D02*
X141718400Y-79537000D01*
X141468400Y-79787000D02*
X141618400Y-79787000D01*
X141468400Y-79787000D02*
X141468400Y-79637000D01*
X141218400Y-79887000D02*
X141118400Y-80037000D01*
X141218400Y-79887000D02*
X141118400Y-79737000D01*
X140918400Y-79887000D02*
X141218400Y-79887000D01*
X141218400Y-79887000D02*
X140918400Y-79887000D01*
X139968400Y-101187000D02*
X140718400Y-101187000D01*
X139968400Y-101187000D02*
X140218400Y-101437000D01*
X139968400Y-101187000D02*
X140218400Y-100937000D01*
X139968400Y-117537000D02*
X139968400Y-80837000D01*
X154468400Y-117537000D02*
X139968400Y-117537000D01*
X154468400Y-80837000D02*
X154468400Y-117537000D01*
X139968400Y-80837000D02*
X154468400Y-80837000D01*
X139218400Y-80087000D02*
X155218400Y-118287000D01*
X139218400Y-118287000D02*
X155218400Y-80087000D01*
X141823161Y-79582238D02*
X141823161Y-79529857D01*
X141818400Y-79520333D01*
X141808876Y-79515571D01*
X141789828Y-79515571D01*
X141780304Y-79520333D01*
X141823161Y-79577476D02*
X141813638Y-79582238D01*
X141789828Y-79582238D01*
X141780304Y-79577476D01*
X141775542Y-79567952D01*
X141775542Y-79558428D01*
X141780304Y-79548904D01*
X141789828Y-79544142D01*
X141813638Y-79544142D01*
X141823161Y-79539380D01*
X141913638Y-79577476D02*
X141904114Y-79582238D01*
X141885066Y-79582238D01*
X141875542Y-79577476D01*
X141870780Y-79572714D01*
X141866019Y-79563190D01*
X141866019Y-79534619D01*
X141870780Y-79525095D01*
X141875542Y-79520333D01*
X141885066Y-79515571D01*
X141904114Y-79515571D01*
X141913638Y-79520333D01*
X141942209Y-79515571D02*
X141980304Y-79515571D01*
X141956495Y-79482238D02*
X141956495Y-79567952D01*
X141961257Y-79577476D01*
X141970780Y-79582238D01*
X141980304Y-79582238D01*
X142056495Y-79515571D02*
X142056495Y-79582238D01*
X142013638Y-79515571D02*
X142013638Y-79567952D01*
X142018400Y-79577476D01*
X142027923Y-79582238D01*
X142042209Y-79582238D01*
X142051733Y-79577476D01*
X142056495Y-79572714D01*
X142146971Y-79582238D02*
X142146971Y-79529857D01*
X142142209Y-79520333D01*
X142132685Y-79515571D01*
X142113638Y-79515571D01*
X142104114Y-79520333D01*
X142146971Y-79577476D02*
X142137447Y-79582238D01*
X142113638Y-79582238D01*
X142104114Y-79577476D01*
X142099352Y-79567952D01*
X142099352Y-79558428D01*
X142104114Y-79548904D01*
X142113638Y-79544142D01*
X142137447Y-79544142D01*
X142146971Y-79539380D01*
X142208876Y-79582238D02*
X142199352Y-79577476D01*
X142194590Y-79567952D01*
X142194590Y-79482238D01*
X142323161Y-79515571D02*
X142323161Y-79615571D01*
X142323161Y-79520333D02*
X142332685Y-79515571D01*
X142351733Y-79515571D01*
X142361257Y-79520333D01*
X142366019Y-79525095D01*
X142370780Y-79534619D01*
X142370780Y-79563190D01*
X142366019Y-79572714D01*
X142361257Y-79577476D01*
X142351733Y-79582238D01*
X142332685Y-79582238D01*
X142323161Y-79577476D01*
X142456495Y-79577476D02*
X142446971Y-79582238D01*
X142427923Y-79582238D01*
X142418400Y-79577476D01*
X142413638Y-79572714D01*
X142408876Y-79563190D01*
X142408876Y-79534619D01*
X142413638Y-79525095D01*
X142418400Y-79520333D01*
X142427923Y-79515571D01*
X142446971Y-79515571D01*
X142456495Y-79520333D01*
X142499352Y-79582238D02*
X142499352Y-79482238D01*
X142499352Y-79520333D02*
X142508876Y-79515571D01*
X142527923Y-79515571D01*
X142537447Y-79520333D01*
X142542209Y-79525095D01*
X142546971Y-79534619D01*
X142546971Y-79563190D01*
X142542209Y-79572714D01*
X142537447Y-79577476D01*
X142527923Y-79582238D01*
X142508876Y-79582238D01*
X142499352Y-79577476D01*
X142704114Y-79577476D02*
X142694590Y-79582238D01*
X142675542Y-79582238D01*
X142666019Y-79577476D01*
X142661257Y-79567952D01*
X142661257Y-79529857D01*
X142666019Y-79520333D01*
X142675542Y-79515571D01*
X142694590Y-79515571D01*
X142704114Y-79520333D01*
X142708876Y-79529857D01*
X142708876Y-79539380D01*
X142661257Y-79548904D01*
X142794590Y-79582238D02*
X142794590Y-79482238D01*
X142794590Y-79577476D02*
X142785066Y-79582238D01*
X142766019Y-79582238D01*
X142756495Y-79577476D01*
X142751733Y-79572714D01*
X142746971Y-79563190D01*
X142746971Y-79534619D01*
X142751733Y-79525095D01*
X142756495Y-79520333D01*
X142766019Y-79515571D01*
X142785066Y-79515571D01*
X142794590Y-79520333D01*
X142885066Y-79515571D02*
X142885066Y-79596523D01*
X142880304Y-79606047D01*
X142875542Y-79610809D01*
X142866019Y-79615571D01*
X142851733Y-79615571D01*
X142842209Y-79610809D01*
X142885066Y-79577476D02*
X142875542Y-79582238D01*
X142856495Y-79582238D01*
X142846971Y-79577476D01*
X142842209Y-79572714D01*
X142837447Y-79563190D01*
X142837447Y-79534619D01*
X142842209Y-79525095D01*
X142846971Y-79520333D01*
X142856495Y-79515571D01*
X142875542Y-79515571D01*
X142885066Y-79520333D01*
X142970780Y-79577476D02*
X142961257Y-79582238D01*
X142942209Y-79582238D01*
X142932685Y-79577476D01*
X142927923Y-79567952D01*
X142927923Y-79529857D01*
X142932685Y-79520333D01*
X142942209Y-79515571D01*
X142961257Y-79515571D01*
X142970780Y-79520333D01*
X142975542Y-79529857D01*
X142975542Y-79539380D01*
X142927923Y-79548904D01*
X143094590Y-79544142D02*
X143170780Y-79544142D01*
X143313638Y-79482238D02*
X143323161Y-79482238D01*
X143332685Y-79487000D01*
X143337447Y-79491761D01*
X143342209Y-79501285D01*
X143346971Y-79520333D01*
X143346971Y-79544142D01*
X143342209Y-79563190D01*
X143337447Y-79572714D01*
X143332685Y-79577476D01*
X143323161Y-79582238D01*
X143313638Y-79582238D01*
X143304114Y-79577476D01*
X143299352Y-79572714D01*
X143294590Y-79563190D01*
X143289828Y-79544142D01*
X143289828Y-79520333D01*
X143294590Y-79501285D01*
X143299352Y-79491761D01*
X143304114Y-79487000D01*
X143313638Y-79482238D01*
X143389828Y-79572714D02*
X143394590Y-79577476D01*
X143389828Y-79582238D01*
X143385066Y-79577476D01*
X143389828Y-79572714D01*
X143389828Y-79582238D01*
X143427923Y-79482238D02*
X143489828Y-79482238D01*
X143456495Y-79520333D01*
X143470780Y-79520333D01*
X143480304Y-79525095D01*
X143485066Y-79529857D01*
X143489828Y-79539380D01*
X143489828Y-79563190D01*
X143485066Y-79572714D01*
X143480304Y-79577476D01*
X143470780Y-79582238D01*
X143442209Y-79582238D01*
X143432685Y-79577476D01*
X143427923Y-79572714D01*
X143575542Y-79515571D02*
X143575542Y-79582238D01*
X143551733Y-79477476D02*
X143527923Y-79548904D01*
X143589828Y-79548904D01*
X143623161Y-79482238D02*
X143623161Y-79501285D01*
X143661257Y-79482238D02*
X143661257Y-79501285D01*
X143780304Y-79582238D02*
X143780304Y-79515571D01*
X143780304Y-79525095D02*
X143785066Y-79520333D01*
X143794590Y-79515571D01*
X143808876Y-79515571D01*
X143818400Y-79520333D01*
X143823161Y-79529857D01*
X143823161Y-79582238D01*
X143823161Y-79529857D02*
X143827923Y-79520333D01*
X143837447Y-79515571D01*
X143851733Y-79515571D01*
X143861257Y-79520333D01*
X143866019Y-79529857D01*
X143866019Y-79582238D01*
X143913638Y-79582238D02*
X143913638Y-79515571D01*
X143913638Y-79482238D02*
X143908876Y-79487000D01*
X143913638Y-79491761D01*
X143918400Y-79487000D01*
X143913638Y-79482238D01*
X143913638Y-79491761D01*
X143975542Y-79582238D02*
X143966019Y-79577476D01*
X143961257Y-79567952D01*
X143961257Y-79482238D01*
X144027923Y-79582238D02*
X144018400Y-79577476D01*
X144013638Y-79567952D01*
X144013638Y-79482238D01*
X144142209Y-79582238D02*
X144142209Y-79515571D01*
X144142209Y-79534619D02*
X144146971Y-79525095D01*
X144151733Y-79520333D01*
X144161257Y-79515571D01*
X144170780Y-79515571D01*
X144246971Y-79582238D02*
X144246971Y-79529857D01*
X144242209Y-79520333D01*
X144232685Y-79515571D01*
X144213638Y-79515571D01*
X144204114Y-79520333D01*
X144246971Y-79577476D02*
X144237447Y-79582238D01*
X144213638Y-79582238D01*
X144204114Y-79577476D01*
X144199352Y-79567952D01*
X144199352Y-79558428D01*
X144204114Y-79548904D01*
X144213638Y-79544142D01*
X144237447Y-79544142D01*
X144246971Y-79539380D01*
X144337447Y-79582238D02*
X144337447Y-79482238D01*
X144337447Y-79577476D02*
X144327923Y-79582238D01*
X144308876Y-79582238D01*
X144299352Y-79577476D01*
X144294590Y-79572714D01*
X144289828Y-79563190D01*
X144289828Y-79534619D01*
X144294590Y-79525095D01*
X144299352Y-79520333D01*
X144308876Y-79515571D01*
X144327923Y-79515571D01*
X144337447Y-79520333D01*
X144385066Y-79582238D02*
X144385066Y-79515571D01*
X144385066Y-79482238D02*
X144380304Y-79487000D01*
X144385066Y-79491761D01*
X144389828Y-79487000D01*
X144385066Y-79482238D01*
X144385066Y-79491761D01*
X144475542Y-79515571D02*
X144475542Y-79582238D01*
X144432685Y-79515571D02*
X144432685Y-79567952D01*
X144437447Y-79577476D01*
X144446971Y-79582238D01*
X144461257Y-79582238D01*
X144470780Y-79577476D01*
X144475542Y-79572714D01*
X144518400Y-79577476D02*
X144527923Y-79582238D01*
X144546971Y-79582238D01*
X144556495Y-79577476D01*
X144561257Y-79567952D01*
X144561257Y-79563190D01*
X144556495Y-79553666D01*
X144546971Y-79548904D01*
X144532685Y-79548904D01*
X144523161Y-79544142D01*
X144518400Y-79534619D01*
X144518400Y-79529857D01*
X144523161Y-79520333D01*
X144532685Y-79515571D01*
X144546971Y-79515571D01*
X144556495Y-79520333D01*
X140049352Y-79932238D02*
X140016019Y-79884619D01*
X139992209Y-79932238D02*
X139992209Y-79832238D01*
X140030304Y-79832238D01*
X140039828Y-79837000D01*
X140044590Y-79841761D01*
X140049352Y-79851285D01*
X140049352Y-79865571D01*
X140044590Y-79875095D01*
X140039828Y-79879857D01*
X140030304Y-79884619D01*
X139992209Y-79884619D01*
X140106495Y-79932238D02*
X140096971Y-79927476D01*
X140092209Y-79922714D01*
X140087447Y-79913190D01*
X140087447Y-79884619D01*
X140092209Y-79875095D01*
X140096971Y-79870333D01*
X140106495Y-79865571D01*
X140120780Y-79865571D01*
X140130304Y-79870333D01*
X140135066Y-79875095D01*
X140139828Y-79884619D01*
X140139828Y-79913190D01*
X140135066Y-79922714D01*
X140130304Y-79927476D01*
X140120780Y-79932238D01*
X140106495Y-79932238D01*
X140225542Y-79865571D02*
X140225542Y-79932238D01*
X140182685Y-79865571D02*
X140182685Y-79917952D01*
X140187447Y-79927476D01*
X140196971Y-79932238D01*
X140211257Y-79932238D01*
X140220780Y-79927476D01*
X140225542Y-79922714D01*
X140258876Y-79865571D02*
X140296971Y-79865571D01*
X140273161Y-79832238D02*
X140273161Y-79917952D01*
X140277923Y-79927476D01*
X140287447Y-79932238D01*
X140296971Y-79932238D01*
X140368400Y-79927476D02*
X140358876Y-79932238D01*
X140339828Y-79932238D01*
X140330304Y-79927476D01*
X140325542Y-79917952D01*
X140325542Y-79879857D01*
X140330304Y-79870333D01*
X140339828Y-79865571D01*
X140358876Y-79865571D01*
X140368400Y-79870333D01*
X140373161Y-79879857D01*
X140373161Y-79889380D01*
X140325542Y-79898904D01*
X140416019Y-79932238D02*
X140416019Y-79865571D01*
X140416019Y-79884619D02*
X140420780Y-79875095D01*
X140425542Y-79870333D01*
X140435066Y-79865571D01*
X140444590Y-79865571D01*
X140554114Y-79932238D02*
X140554114Y-79832238D01*
X140592209Y-79832238D01*
X140601733Y-79837000D01*
X140606495Y-79841761D01*
X140611257Y-79851285D01*
X140611257Y-79865571D01*
X140606495Y-79875095D01*
X140601733Y-79879857D01*
X140592209Y-79884619D01*
X140554114Y-79884619D01*
X140696971Y-79932238D02*
X140696971Y-79879857D01*
X140692209Y-79870333D01*
X140682685Y-79865571D01*
X140663638Y-79865571D01*
X140654114Y-79870333D01*
X140696971Y-79927476D02*
X140687447Y-79932238D01*
X140663638Y-79932238D01*
X140654114Y-79927476D01*
X140649352Y-79917952D01*
X140649352Y-79908428D01*
X140654114Y-79898904D01*
X140663638Y-79894142D01*
X140687447Y-79894142D01*
X140696971Y-79889380D01*
X140730304Y-79865571D02*
X140768400Y-79865571D01*
X140744590Y-79832238D02*
X140744590Y-79917952D01*
X140749352Y-79927476D01*
X140758876Y-79932238D01*
X140768400Y-79932238D01*
X140801733Y-79932238D02*
X140801733Y-79832238D01*
X140844590Y-79932238D02*
X140844590Y-79879857D01*
X140839828Y-79870333D01*
X140830304Y-79865571D01*
X140816019Y-79865571D01*
X140806495Y-79870333D01*
X140801733Y-79875095D01*
X141242209Y-101427476D02*
X141242209Y-101227476D01*
X141242209Y-101303666D02*
X141261257Y-101294142D01*
X141299352Y-101294142D01*
X141318400Y-101303666D01*
X141327923Y-101313190D01*
X141337447Y-101332238D01*
X141337447Y-101389380D01*
X141327923Y-101408428D01*
X141318400Y-101417952D01*
X141299352Y-101427476D01*
X141261257Y-101427476D01*
X141242209Y-101417952D01*
X141508876Y-101427476D02*
X141508876Y-101322714D01*
X141499352Y-101303666D01*
X141480304Y-101294142D01*
X141442209Y-101294142D01*
X141423161Y-101303666D01*
X141508876Y-101417952D02*
X141489828Y-101427476D01*
X141442209Y-101427476D01*
X141423161Y-101417952D01*
X141413638Y-101398904D01*
X141413638Y-101379857D01*
X141423161Y-101360809D01*
X141442209Y-101351285D01*
X141489828Y-101351285D01*
X141508876Y-101341761D01*
X141689828Y-101417952D02*
X141670780Y-101427476D01*
X141632685Y-101427476D01*
X141613638Y-101417952D01*
X141604114Y-101408428D01*
X141594590Y-101389380D01*
X141594590Y-101332238D01*
X141604114Y-101313190D01*
X141613638Y-101303666D01*
X141632685Y-101294142D01*
X141670780Y-101294142D01*
X141689828Y-101303666D01*
X141775542Y-101427476D02*
X141775542Y-101227476D01*
X141794590Y-101351285D02*
X141851733Y-101427476D01*
X141851733Y-101294142D02*
X141775542Y-101370333D01*
X141927923Y-101417952D02*
X141946971Y-101427476D01*
X141985066Y-101427476D01*
X142004114Y-101417952D01*
X142013638Y-101398904D01*
X142013638Y-101389380D01*
X142004114Y-101370333D01*
X141985066Y-101360809D01*
X141956495Y-101360809D01*
X141937447Y-101351285D01*
X141927923Y-101332238D01*
X141927923Y-101322714D01*
X141937447Y-101303666D01*
X141956495Y-101294142D01*
X141985066Y-101294142D01*
X142004114Y-101303666D01*
X142099352Y-101427476D02*
X142099352Y-101294142D01*
X142099352Y-101227476D02*
X142089828Y-101237000D01*
X142099352Y-101246523D01*
X142108876Y-101237000D01*
X142099352Y-101227476D01*
X142099352Y-101246523D01*
X142280304Y-101427476D02*
X142280304Y-101227476D01*
X142280304Y-101417952D02*
X142261257Y-101427476D01*
X142223161Y-101427476D01*
X142204114Y-101417952D01*
X142194590Y-101408428D01*
X142185066Y-101389380D01*
X142185066Y-101332238D01*
X142194590Y-101313190D01*
X142204114Y-101303666D01*
X142223161Y-101294142D01*
X142261257Y-101294142D01*
X142280304Y-101303666D01*
X142451733Y-101417952D02*
X142432685Y-101427476D01*
X142394590Y-101427476D01*
X142375542Y-101417952D01*
X142366019Y-101398904D01*
X142366019Y-101322714D01*
X142375542Y-101303666D01*
X142394590Y-101294142D01*
X142432685Y-101294142D01*
X142451733Y-101303666D01*
X142461257Y-101322714D01*
X142461257Y-101341761D01*
X142366019Y-101360809D01*
X142785066Y-101417952D02*
X142766019Y-101427476D01*
X142727923Y-101427476D01*
X142708876Y-101417952D01*
X142699352Y-101408428D01*
X142689828Y-101389380D01*
X142689828Y-101332238D01*
X142699352Y-101313190D01*
X142708876Y-101303666D01*
X142727923Y-101294142D01*
X142766019Y-101294142D01*
X142785066Y-101303666D01*
X142899352Y-101427476D02*
X142880304Y-101417952D01*
X142870780Y-101408428D01*
X142861257Y-101389380D01*
X142861257Y-101332238D01*
X142870780Y-101313190D01*
X142880304Y-101303666D01*
X142899352Y-101294142D01*
X142927923Y-101294142D01*
X142946971Y-101303666D01*
X142956495Y-101313190D01*
X142966019Y-101332238D01*
X142966019Y-101389380D01*
X142956495Y-101408428D01*
X142946971Y-101417952D01*
X142927923Y-101427476D01*
X142899352Y-101427476D01*
X143051733Y-101427476D02*
X143051733Y-101294142D01*
X143051733Y-101313190D02*
X143061257Y-101303666D01*
X143080304Y-101294142D01*
X143108876Y-101294142D01*
X143127923Y-101303666D01*
X143137447Y-101322714D01*
X143137447Y-101427476D01*
X143137447Y-101322714D02*
X143146971Y-101303666D01*
X143166019Y-101294142D01*
X143194590Y-101294142D01*
X143213638Y-101303666D01*
X143223161Y-101322714D01*
X143223161Y-101427476D01*
X143318400Y-101294142D02*
X143318400Y-101494142D01*
X143318400Y-101303666D02*
X143337447Y-101294142D01*
X143375542Y-101294142D01*
X143394590Y-101303666D01*
X143404114Y-101313190D01*
X143413638Y-101332238D01*
X143413638Y-101389380D01*
X143404114Y-101408428D01*
X143394590Y-101417952D01*
X143375542Y-101427476D01*
X143337447Y-101427476D01*
X143318400Y-101417952D01*
X143527923Y-101427476D02*
X143508876Y-101417952D01*
X143499352Y-101408428D01*
X143489828Y-101389380D01*
X143489828Y-101332238D01*
X143499352Y-101313190D01*
X143508876Y-101303666D01*
X143527923Y-101294142D01*
X143556495Y-101294142D01*
X143575542Y-101303666D01*
X143585066Y-101313190D01*
X143594590Y-101332238D01*
X143594590Y-101389380D01*
X143585066Y-101408428D01*
X143575542Y-101417952D01*
X143556495Y-101427476D01*
X143527923Y-101427476D01*
X143680304Y-101294142D02*
X143680304Y-101427476D01*
X143680304Y-101313190D02*
X143689828Y-101303666D01*
X143708876Y-101294142D01*
X143737447Y-101294142D01*
X143756495Y-101303666D01*
X143766019Y-101322714D01*
X143766019Y-101427476D01*
X143937447Y-101417952D02*
X143918400Y-101427476D01*
X143880304Y-101427476D01*
X143861257Y-101417952D01*
X143851733Y-101398904D01*
X143851733Y-101322714D01*
X143861257Y-101303666D01*
X143880304Y-101294142D01*
X143918400Y-101294142D01*
X143937447Y-101303666D01*
X143946971Y-101322714D01*
X143946971Y-101341761D01*
X143851733Y-101360809D01*
X144032685Y-101294142D02*
X144032685Y-101427476D01*
X144032685Y-101313190D02*
X144042209Y-101303666D01*
X144061257Y-101294142D01*
X144089828Y-101294142D01*
X144108876Y-101303666D01*
X144118400Y-101322714D01*
X144118400Y-101427476D01*
X144185066Y-101294142D02*
X144261257Y-101294142D01*
X144213638Y-101227476D02*
X144213638Y-101398904D01*
X144223161Y-101417952D01*
X144242209Y-101427476D01*
X144261257Y-101427476D01*
X144318400Y-101417952D02*
X144337447Y-101427476D01*
X144375542Y-101427476D01*
X144394590Y-101417952D01*
X144404114Y-101398904D01*
X144404114Y-101389380D01*
X144394590Y-101370333D01*
X144375542Y-101360809D01*
X144346971Y-101360809D01*
X144327923Y-101351285D01*
X144318400Y-101332238D01*
X144318400Y-101322714D01*
X144327923Y-101303666D01*
X144346971Y-101294142D01*
X144375542Y-101294142D01*
X144394590Y-101303666D01*
X140908876Y-100927476D02*
X141032685Y-100927476D01*
X140966019Y-101003666D01*
X140994590Y-101003666D01*
X141013638Y-101013190D01*
X141023161Y-101022714D01*
X141032685Y-101041761D01*
X141032685Y-101089380D01*
X141023161Y-101108428D01*
X141013638Y-101117952D01*
X140994590Y-101127476D01*
X140937447Y-101127476D01*
X140918400Y-101117952D01*
X140908876Y-101108428D01*
X141204114Y-100927476D02*
X141166019Y-100927476D01*
X141146971Y-100937000D01*
X141137447Y-100946523D01*
X141118400Y-100975095D01*
X141108876Y-101013190D01*
X141108876Y-101089380D01*
X141118400Y-101108428D01*
X141127923Y-101117952D01*
X141146971Y-101127476D01*
X141185066Y-101127476D01*
X141204114Y-101117952D01*
X141213638Y-101108428D01*
X141223161Y-101089380D01*
X141223161Y-101041761D01*
X141213638Y-101022714D01*
X141204114Y-101013190D01*
X141185066Y-101003666D01*
X141146971Y-101003666D01*
X141127923Y-101013190D01*
X141118400Y-101022714D01*
X141108876Y-101041761D01*
X141308876Y-101108428D02*
X141318400Y-101117952D01*
X141308876Y-101127476D01*
X141299352Y-101117952D01*
X141308876Y-101108428D01*
X141308876Y-101127476D01*
X141385066Y-100927476D02*
X141518400Y-100927476D01*
X141432685Y-101127476D01*
X141727923Y-101127476D02*
X141832685Y-100994142D01*
X141727923Y-100994142D02*
X141832685Y-101127476D01*
X142166019Y-101127476D02*
X142051733Y-101127476D01*
X142108876Y-101127476D02*
X142108876Y-100927476D01*
X142089828Y-100956047D01*
X142070780Y-100975095D01*
X142051733Y-100984619D01*
X142337447Y-100994142D02*
X142337447Y-101127476D01*
X142289828Y-100917952D02*
X142242209Y-101060809D01*
X142366019Y-101060809D01*
X142442209Y-101108428D02*
X142451733Y-101117952D01*
X142442209Y-101127476D01*
X142432685Y-101117952D01*
X142442209Y-101108428D01*
X142442209Y-101127476D01*
X142632685Y-100927476D02*
X142537447Y-100927476D01*
X142527923Y-101022714D01*
X142537447Y-101013190D01*
X142556495Y-101003666D01*
X142604114Y-101003666D01*
X142623161Y-101013190D01*
X142632685Y-101022714D01*
X142642209Y-101041761D01*
X142642209Y-101089380D01*
X142632685Y-101108428D01*
X142623161Y-101117952D01*
X142604114Y-101127476D01*
X142556495Y-101127476D01*
X142537447Y-101117952D01*
X142527923Y-101108428D01*
X142861257Y-101127476D02*
X142966019Y-100994142D01*
X142861257Y-100994142D02*
X142966019Y-101127476D01*
X143299352Y-101127476D02*
X143185066Y-101127476D01*
X143242209Y-101127476D02*
X143242209Y-100927476D01*
X143223161Y-100956047D01*
X143204114Y-100975095D01*
X143185066Y-100984619D01*
X143385066Y-101108428D02*
X143394590Y-101117952D01*
X143385066Y-101127476D01*
X143375542Y-101117952D01*
X143385066Y-101108428D01*
X143385066Y-101127476D01*
X143566019Y-100927476D02*
X143527923Y-100927476D01*
X143508876Y-100937000D01*
X143499352Y-100946523D01*
X143480304Y-100975095D01*
X143470780Y-101013190D01*
X143470780Y-101089380D01*
X143480304Y-101108428D01*
X143489828Y-101117952D01*
X143508876Y-101127476D01*
X143546971Y-101127476D01*
X143566019Y-101117952D01*
X143575542Y-101108428D01*
X143585066Y-101089380D01*
X143585066Y-101041761D01*
X143575542Y-101022714D01*
X143566019Y-101013190D01*
X143546971Y-101003666D01*
X143508876Y-101003666D01*
X143489828Y-101013190D01*
X143480304Y-101022714D01*
X143470780Y-101041761D01*
X143823161Y-100994142D02*
X143823161Y-101194142D01*
X143823161Y-101003666D02*
X143842209Y-100994142D01*
X143880304Y-100994142D01*
X143899352Y-101003666D01*
X143908876Y-101013190D01*
X143918400Y-101032238D01*
X143918400Y-101089380D01*
X143908876Y-101108428D01*
X143899352Y-101117952D01*
X143880304Y-101127476D01*
X143842209Y-101127476D01*
X143823161Y-101117952D01*
X144032685Y-101127476D02*
X144013638Y-101117952D01*
X144004114Y-101108428D01*
X143994590Y-101089380D01*
X143994590Y-101032238D01*
X144004114Y-101013190D01*
X144013638Y-101003666D01*
X144032685Y-100994142D01*
X144061257Y-100994142D01*
X144080304Y-101003666D01*
X144089828Y-101013190D01*
X144099352Y-101032238D01*
X144099352Y-101089380D01*
X144089828Y-101108428D01*
X144080304Y-101117952D01*
X144061257Y-101127476D01*
X144032685Y-101127476D01*
X144270780Y-101117952D02*
X144251733Y-101127476D01*
X144213638Y-101127476D01*
X144194590Y-101117952D01*
X144185066Y-101108428D01*
X144175542Y-101089380D01*
X144175542Y-101032238D01*
X144185066Y-101013190D01*
X144194590Y-101003666D01*
X144213638Y-100994142D01*
X144251733Y-100994142D01*
X144270780Y-101003666D01*
X144356495Y-101127476D02*
X144356495Y-100927476D01*
X144375542Y-101051285D02*
X144432685Y-101127476D01*
X144432685Y-100994142D02*
X144356495Y-101070333D01*
X144594590Y-101117952D02*
X144575542Y-101127476D01*
X144537447Y-101127476D01*
X144518400Y-101117952D01*
X144508876Y-101098904D01*
X144508876Y-101022714D01*
X144518400Y-101003666D01*
X144537447Y-100994142D01*
X144575542Y-100994142D01*
X144594590Y-101003666D01*
X144604114Y-101022714D01*
X144604114Y-101041761D01*
X144508876Y-101060809D01*
X144661257Y-100994142D02*
X144737447Y-100994142D01*
X144689828Y-100927476D02*
X144689828Y-101098904D01*
X144699352Y-101117952D01*
X144718400Y-101127476D01*
X144737447Y-101127476D01*
M02*
